<svg xmlns="http://www.w3.org/2000/svg" xmlns:xlink="http://www.w3.org/1999/xlink" width="184" zoomAndPan="magnify" viewBox="0 0 138 137.999998" height="184" preserveAspectRatio="xMidYMid meet" version="1.0"><rect x="-13.8" width="165.6" fill="#ffffff" y="-13.8" height="165.599997" fill-opacity="1"/><rect x="-13.8" width="165.6" fill="#ffffff" y="-13.8" height="165.599997" fill-opacity="1"/><path fill="#254f7a" d="M 88.84375 62.511719 C 88.84375 51.566406 79.945312 42.667969 69 42.667969 C 58.054688 42.667969 49.15625 51.566406 49.15625 62.511719 C 49.15625 69.578125 52.878906 75.792969 58.46875 79.304688 C 52.878906 82.816406 49.15625 89.027344 49.15625 96.09375 L 49.15625 129.679688 C 49.15625 131.359375 50.527344 132.734375 52.207031 132.734375 L 85.792969 132.734375 C 87.472656 132.734375 88.84375 131.359375 88.84375 129.679688 L 88.84375 96.09375 C 88.84375 89.027344 85.121094 82.816406 79.53125 79.304688 C 85.121094 75.792969 88.84375 69.578125 88.84375 62.511719 Z M 82.738281 96.09375 L 82.738281 126.625 L 55.261719 126.625 L 55.261719 96.09375 C 55.261719 88.523438 61.429688 82.355469 69 82.355469 C 76.570312 82.355469 82.738281 88.523438 82.738281 96.09375 Z M 69 76.25 C 61.429688 76.25 55.261719 70.082031 55.261719 62.511719 C 55.261719 54.941406 61.429688 48.773438 69 48.773438 C 76.570312 48.773438 82.738281 54.941406 82.738281 62.511719 C 82.738281 70.082031 76.570312 76.25 69 76.25 Z M 137.695312 62.511719 C 137.695312 51.566406 128.792969 42.667969 117.847656 42.667969 C 106.902344 42.667969 98.003906 51.566406 98.003906 62.511719 C 98.003906 69.578125 101.730469 75.792969 107.316406 79.304688 C 101.730469 82.816406 98.003906 89.027344 98.003906 96.09375 L 98.003906 129.679688 C 98.003906 131.359375 99.378906 132.734375 101.058594 132.734375 L 134.640625 132.734375 C 136.320312 132.734375 137.695312 131.359375 137.695312 129.679688 L 137.695312 96.09375 C 137.695312 89.027344 133.96875 82.816406 128.382812 79.304688 C 133.96875 75.792969 137.695312 69.578125 137.695312 62.511719 Z M 131.589844 96.09375 L 131.589844 126.625 L 104.109375 126.625 L 104.109375 96.09375 C 104.109375 88.523438 110.277344 82.355469 117.847656 82.355469 C 125.421875 82.355469 131.589844 88.523438 131.589844 96.09375 Z M 117.847656 76.25 C 110.277344 76.25 104.109375 70.082031 104.109375 62.511719 C 104.109375 54.941406 110.277344 48.773438 117.847656 48.773438 C 125.421875 48.773438 131.589844 54.941406 131.589844 62.511719 C 131.589844 70.082031 125.421875 76.25 117.847656 76.25 Z M 39.996094 62.511719 C 39.996094 51.566406 31.097656 42.667969 20.152344 42.667969 C 9.207031 42.667969 0.304688 51.566406 0.304688 62.511719 C 0.304688 69.578125 4.03125 75.792969 9.617188 79.304688 C 4.03125 82.816406 0.304688 89.027344 0.304688 96.09375 L 0.304688 129.679688 C 0.304688 131.359375 1.679688 132.734375 3.359375 132.734375 L 36.941406 132.734375 C 38.621094 132.734375 39.996094 131.359375 39.996094 129.679688 L 39.996094 96.09375 C 39.996094 89.027344 36.269531 82.816406 30.683594 79.304688 C 36.269531 75.792969 39.996094 69.578125 39.996094 62.511719 Z M 33.890625 96.09375 L 33.890625 126.625 L 6.410156 126.625 L 6.410156 96.09375 C 6.410156 88.523438 12.578125 82.355469 20.152344 82.355469 C 27.722656 82.355469 33.890625 88.523438 33.890625 96.09375 Z M 20.152344 76.25 C 12.578125 76.25 6.410156 70.082031 6.410156 62.511719 C 6.410156 54.941406 12.578125 48.773438 20.152344 48.773438 C 27.722656 48.773438 33.890625 54.941406 33.890625 62.511719 C 33.890625 70.082031 27.722656 76.25 20.152344 76.25 Z M 39.09375 6.410156 C 40.285156 7.601562 40.285156 9.539062 39.09375 10.730469 L 16.714844 33.125 C 16.136719 33.707031 15.371094 34.027344 14.5625 34.027344 C 13.753906 34.027344 12.976562 33.707031 12.410156 33.125 L 1.222656 21.9375 C 0.03125 20.746094 0.03125 18.804688 1.222656 17.617188 C 2.410156 16.425781 4.351562 16.425781 5.542969 17.617188 L 14.578125 26.652344 L 34.789062 6.410156 C 35.980469 5.21875 37.902344 5.21875 39.09375 6.410156 Z M 87.945312 6.410156 C 89.136719 7.601562 89.136719 9.539062 87.945312 10.730469 L 65.566406 33.125 C 64.984375 33.707031 64.222656 34.027344 63.414062 34.027344 C 62.605469 34.027344 61.824219 33.707031 61.261719 33.125 L 50.070312 21.9375 C 48.878906 20.746094 48.878906 18.804688 50.070312 17.617188 C 51.261719 16.425781 53.199219 16.425781 54.390625 17.617188 L 63.429688 26.652344 L 83.640625 6.410156 C 84.832031 5.21875 86.753906 5.21875 87.945312 6.410156 Z M 98.90625 21.921875 C 97.714844 20.730469 97.714844 18.792969 98.90625 17.601562 C 100.097656 16.410156 102.035156 16.410156 103.226562 17.601562 L 112.261719 26.636719 L 132.488281 6.410156 C 133.679688 5.21875 135.617188 5.21875 136.808594 6.410156 C 138 7.601562 138 9.539062 136.808594 10.730469 L 114.414062 33.125 C 113.835938 33.707031 113.070312 34.027344 112.261719 34.027344 C 111.453125 34.027344 110.675781 33.707031 110.109375 33.125 Z M 98.90625 21.921875 " fill-opacity="1" fill-rule="nonzero"/></svg>