<svg xmlns="http://www.w3.org/2000/svg" xmlns:xlink="http://www.w3.org/1999/xlink" width="184" zoomAndPan="magnify" viewBox="0 0 138 137.999998" height="184" preserveAspectRatio="xMidYMid meet" version="1.0"><rect x="-13.8" width="165.6" fill="#ffffff" y="-13.8" height="165.599997" fill-opacity="1"/><rect x="-13.8" width="165.6" fill="#ffffff" y="-13.8" height="165.599997" fill-opacity="1"/><path fill="#254f7a" d="M 34.5 0 C 31.777344 0 29.570312 2.207031 29.570312 4.929688 L 29.570312 9.855469 L 19.714844 9.855469 C 8.882812 9.855469 0 18.738281 0 29.570312 L 0 118.285156 C 0 129.117188 8.882812 138 19.714844 138 L 118.285156 138 C 129.117188 138 138 129.117188 138 118.285156 L 138 29.570312 C 138 18.738281 129.117188 9.855469 118.285156 9.855469 L 108.429688 9.855469 L 108.429688 4.929688 C 108.429688 2.207031 106.222656 0 103.5 0 C 100.777344 0 98.570312 2.207031 98.570312 4.929688 L 98.570312 9.855469 L 73.929688 9.855469 L 73.929688 4.929688 C 73.929688 2.207031 71.722656 0 69 0 C 66.277344 0 64.070312 2.207031 64.070312 4.929688 L 64.070312 9.855469 L 39.429688 9.855469 L 39.429688 4.929688 C 39.429688 2.207031 37.222656 0 34.5 0 Z M 19.714844 19.714844 L 29.570312 19.714844 L 29.570312 24.644531 C 29.570312 27.363281 31.777344 29.570312 34.5 29.570312 C 37.222656 29.570312 39.429688 27.363281 39.429688 24.644531 L 39.429688 19.714844 L 64.070312 19.714844 L 64.070312 24.644531 C 64.070312 27.363281 66.277344 29.570312 69 29.570312 C 71.722656 29.570312 73.929688 27.363281 73.929688 24.644531 L 73.929688 19.714844 L 98.570312 19.714844 L 98.570312 24.644531 C 98.570312 27.363281 100.777344 29.570312 103.5 29.570312 C 106.222656 29.570312 108.429688 27.363281 108.429688 24.644531 L 108.429688 19.714844 L 118.285156 19.714844 C 123.832031 19.714844 128.144531 24.027344 128.144531 29.570312 L 128.144531 39.429688 L 9.855469 39.429688 L 9.855469 29.570312 C 9.855469 24.027344 14.167969 19.714844 19.714844 19.714844 Z M 9.855469 49.285156 L 128.144531 49.285156 L 128.144531 118.285156 C 128.144531 123.832031 123.832031 128.144531 118.285156 128.144531 L 19.714844 128.144531 C 14.167969 128.144531 9.855469 123.832031 9.855469 118.285156 Z M 9.855469 49.285156 " fill-opacity="1" fill-rule="nonzero"/><path fill="#254f7a" d="M 27.132812 64.097656 L 36.964844 64.097656 C 38.324219 64.097656 39.429688 65.175781 39.429688 66.5625 L 39.429688 76.394531 C 39.429688 77.753906 38.324219 78.855469 36.964844 78.855469 L 27.132812 78.855469 C 25.746094 78.855469 24.667969 77.753906 24.667969 76.394531 L 24.667969 66.5625 C 24.667969 65.175781 25.746094 64.097656 27.132812 64.097656 Z M 27.132812 64.097656 " fill-opacity="1" fill-rule="nonzero"/><path fill="#254f7a" d="M 51.75 64.097656 L 61.582031 64.097656 C 62.96875 64.097656 64.046875 65.175781 64.046875 66.5625 L 64.046875 76.394531 C 64.046875 77.753906 62.96875 78.855469 61.582031 78.855469 L 51.75 78.855469 C 50.390625 78.855469 49.285156 77.753906 49.285156 76.394531 L 49.285156 66.5625 C 49.285156 65.175781 50.390625 64.097656 51.75 64.097656 Z M 51.75 64.097656 " fill-opacity="1" fill-rule="nonzero"/><path fill="#254f7a" d="M 76.417969 64.097656 L 86.25 64.097656 C 87.609375 64.097656 88.714844 65.175781 88.714844 66.5625 L 88.714844 76.394531 C 88.714844 77.753906 87.609375 78.855469 86.25 78.855469 L 76.417969 78.855469 C 75.03125 78.855469 73.953125 77.753906 73.953125 76.394531 L 73.953125 66.5625 C 73.953125 65.175781 75.03125 64.097656 76.417969 64.097656 Z M 76.417969 64.097656 " fill-opacity="1" fill-rule="nonzero"/><path fill="#254f7a" d="M 101.035156 64.097656 L 110.867188 64.097656 C 112.253906 64.097656 113.332031 65.175781 113.332031 66.5625 L 113.332031 76.394531 C 113.332031 77.753906 112.253906 78.855469 110.867188 78.855469 L 101.035156 78.855469 C 99.675781 78.855469 98.570312 77.753906 98.570312 76.394531 L 98.570312 66.5625 C 98.570312 65.175781 99.675781 64.097656 101.035156 64.097656 Z M 101.035156 64.097656 " fill-opacity="1" fill-rule="nonzero"/><path fill="#254f7a" d="M 27.132812 93.644531 L 36.964844 93.644531 C 38.324219 93.644531 39.429688 94.746094 39.429688 96.105469 L 39.429688 105.9375 C 39.429688 107.324219 38.324219 108.402344 36.964844 108.402344 L 27.132812 108.402344 C 25.746094 108.402344 24.667969 107.324219 24.667969 105.9375 L 24.667969 96.105469 C 24.667969 94.746094 25.746094 93.644531 27.132812 93.644531 Z M 27.132812 93.644531 " fill-opacity="1" fill-rule="nonzero"/><path fill="#254f7a" d="M 51.75 93.644531 L 61.582031 93.644531 C 62.96875 93.644531 64.046875 94.746094 64.046875 96.105469 L 64.046875 105.9375 C 64.046875 107.324219 62.96875 108.402344 61.582031 108.402344 L 51.75 108.402344 C 50.390625 108.402344 49.285156 107.324219 49.285156 105.9375 L 49.285156 96.105469 C 49.285156 94.746094 50.390625 93.644531 51.75 93.644531 Z M 51.75 93.644531 " fill-opacity="1" fill-rule="nonzero"/><path fill="#254f7a" d="M 76.417969 93.644531 L 86.25 93.644531 C 87.609375 93.644531 88.714844 94.746094 88.714844 96.105469 L 88.714844 105.9375 C 88.714844 107.324219 87.609375 108.402344 86.25 108.402344 L 76.417969 108.402344 C 75.03125 108.402344 73.953125 107.324219 73.953125 105.9375 L 73.953125 96.105469 C 73.953125 94.746094 75.03125 93.644531 76.417969 93.644531 Z M 76.417969 93.644531 " fill-opacity="1" fill-rule="nonzero"/><path fill="#254f7a" d="M 101.035156 93.644531 L 110.867188 93.644531 C 112.253906 93.644531 113.332031 94.746094 113.332031 96.105469 L 113.332031 105.9375 C 113.332031 107.324219 112.253906 108.402344 110.867188 108.402344 L 101.035156 108.402344 C 99.675781 108.402344 98.570312 107.324219 98.570312 105.9375 L 98.570312 96.105469 C 98.570312 94.746094 99.675781 93.644531 101.035156 93.644531 Z M 101.035156 93.644531 " fill-opacity="1" fill-rule="nonzero"/></svg>