<svg xmlns="http://www.w3.org/2000/svg" xmlns:xlink="http://www.w3.org/1999/xlink" width="184" zoomAndPan="magnify" viewBox="0 0 138 137.999998" height="184" preserveAspectRatio="xMidYMid meet" version="1.0"><defs><clipPath id="65c6f09849"><path d="M 72 28 L 138 28 L 138 130.152344 L 72 130.152344 Z M 72 28 " clip-rule="nonzero"/></clipPath><clipPath id="c5e290ec47"><path d="M 0 28 L 66 28 L 66 130.152344 L 0 130.152344 Z M 0 28 " clip-rule="nonzero"/></clipPath></defs><rect x="-13.8" width="165.6" fill="#ffffff" y="-13.8" height="165.599997" fill-opacity="1"/><rect x="-13.8" width="165.6" fill="#ffffff" y="-13.8" height="165.599997" fill-opacity="1"/><g clip-path="url(#65c6f09849)"><path fill="#254f7a" d="M 138 72.882812 C 137.964844 78.046875 137.054688 80.777344 134.628906 84.386719 C 131 89.308594 123.335938 98.621094 107.015625 118.539062 C 102 124.648438 105.398438 130.078125 102.773438 130.078125 L 73.386719 130.078125 C 71.519531 130.078125 72.316406 128.085938 73.921875 115.09375 C 76.160156 99.171875 81.875 90.273438 87.269531 85.058594 C 89.972656 82.871094 92.449219 81.53125 94.207031 80.578125 C 103.140625 75.726562 112.042969 58.78125 119.152344 60.800781 C 120.5 61.179688 121.664062 62.292969 122.117188 63.625 C 123.089844 66.480469 122.226562 66.429688 102.289062 92.207031 C 100.484375 94.539062 104.015625 97.273438 105.824219 94.9375 L 124.921875 70.234375 C 128.160156 65.84375 126.882812 60.78125 123.359375 58.035156 L 124.464844 51.875 C 118.699219 33.632812 127.691406 26.011719 131.957031 29.339844 C 133.054688 30.191406 132.972656 29.515625 136.304688 42.597656 C 137.390625 46.863281 137.945312 51.246094 137.957031 55.648438 Z M 138 72.882812 " fill-opacity="1" fill-rule="nonzero"/></g><g clip-path="url(#c5e290ec47)"><path fill="#254f7a" d="M 0 72.882812 C 0.0351562 78.046875 0.945312 80.777344 3.371094 84.386719 C 7 89.308594 14.664062 98.621094 30.984375 118.539062 C 36 124.648438 32.601562 130.078125 35.226562 130.078125 L 64.613281 130.078125 C 66.480469 130.078125 65.683594 128.085938 64.078125 115.09375 C 61.839844 99.171875 56.125 90.273438 50.730469 85.058594 C 48.027344 82.871094 45.550781 81.53125 43.792969 80.578125 C 34.859375 75.726562 25.957031 58.78125 18.847656 60.800781 C 17.5 61.179688 16.335938 62.292969 15.882812 63.625 C 14.910156 66.480469 15.773438 66.429688 35.710938 92.207031 C 37.515625 94.539062 33.984375 97.273438 32.175781 94.9375 L 13.078125 70.234375 C 9.839844 65.847656 11.117188 60.785156 14.640625 58.039062 L 13.535156 51.878906 C 19.300781 33.636719 10.308594 26.015625 6.042969 29.34375 C 4.945312 30.195312 5.027344 29.515625 1.695312 42.597656 C 0.609375 46.867188 0.0546875 51.25 0.0429688 55.652344 L 0 72.886719 Z M 0 72.882812 " fill-opacity="1" fill-rule="nonzero"/></g><path fill="#254f7a" d="M 69 20.003906 C 75.519531 11.417969 86.050781 7.90625 95.433594 12.128906 C 107.355469 17.492188 113.734375 33.613281 107.835938 47.382812 C 102.878906 58.949219 85.359375 69.296875 69 85.367188 C 52.652344 69.296875 35.121094 58.949219 30.175781 47.382812 C 24.269531 33.613281 30.644531 17.488281 42.570312 12.128906 C 51.953125 7.90625 62.484375 11.417969 69.003906 20.003906 " fill-opacity="1" fill-rule="nonzero"/></svg>