<svg xmlns="http://www.w3.org/2000/svg" xmlns:xlink="http://www.w3.org/1999/xlink" width="184" zoomAndPan="magnify" viewBox="0 0 138 137.999998" height="184" preserveAspectRatio="xMidYMid meet" version="1.0"><defs><clipPath id="54f7d42517"><path d="M 19.148438 0 L 118.898438 0 L 118.898438 138 L 19.148438 138 Z M 19.148438 0 " clip-rule="nonzero"/></clipPath></defs><rect x="-13.8" width="165.6" fill="#ffffff" y="-13.8" height="165.599997" fill-opacity="1"/><rect x="-13.8" width="165.6" fill="#ffffff" y="-13.8" height="165.599997" fill-opacity="1"/><g clip-path="url(#54f7d42517)"><path fill="#254f7a" d="M 87.679688 21.726562 L 87.679688 16.804688 C 87.679688 15.488281 87.140625 14.292969 86.269531 13.421875 C 85.402344 12.554688 84.203125 12.015625 82.890625 12.015625 L 77.53125 12.015625 C 76.574219 12.015625 75.796875 11.242188 75.796875 10.285156 C 75.796875 8.40625 75.039062 6.703125 73.8125 5.472656 C 72.582031 4.246094 70.878906 3.484375 69 3.484375 C 67.121094 3.484375 65.421875 4.246094 64.191406 5.476562 L 64.1875 5.472656 C 62.960938 6.703125 62.199219 8.40625 62.199219 10.285156 C 62.199219 11.242188 61.425781 12.015625 60.46875 12.015625 L 55.109375 12.015625 C 53.792969 12.015625 52.59375 12.554688 51.726562 13.421875 C 50.859375 14.292969 50.320312 15.488281 50.320312 16.804688 L 50.320312 25.132812 L 87.679688 25.132812 Z M 72.0625 10.285156 C 72.0625 11.976562 70.691406 13.347656 69 13.347656 C 67.308594 13.347656 65.9375 11.976562 65.9375 10.285156 C 65.9375 8.59375 67.308594 7.222656 69 7.222656 C 70.691406 7.222656 72.0625 8.59375 72.0625 10.285156 Z M 63.386719 96.101562 C 62.429688 96.101562 61.65625 95.328125 61.65625 94.371094 C 61.65625 93.414062 62.429688 92.640625 63.386719 92.640625 L 98.425781 92.640625 C 99.382812 92.640625 100.15625 93.414062 100.15625 94.371094 C 100.15625 95.328125 99.382812 96.101562 98.425781 96.101562 Z M 63.386719 88.496094 C 62.429688 88.496094 61.65625 87.722656 61.65625 86.765625 C 61.65625 85.808594 62.429688 85.035156 63.386719 85.035156 L 98.425781 85.035156 C 99.382812 85.035156 100.15625 85.808594 100.15625 86.765625 C 100.15625 87.722656 99.382812 88.496094 98.425781 88.496094 Z M 42.761719 91.578125 C 42.074219 90.917969 42.054688 89.828125 42.714844 89.140625 C 43.375 88.453125 44.46875 88.433594 45.15625 89.09375 L 46.320312 90.214844 L 48.75 87.285156 C 49.359375 86.550781 50.449219 86.449219 51.183594 87.054688 C 51.917969 87.664062 52.023438 88.753906 51.414062 89.488281 L 47.796875 93.851562 L 47.792969 93.847656 C 47.765625 93.882812 47.738281 93.914062 47.707031 93.945312 C 47.046875 94.632812 45.953125 94.652344 45.265625 93.992188 Z M 42.027344 81.390625 C 40.875 81.390625 39.828125 81.863281 39.070312 82.621094 C 38.3125 83.375 37.84375 84.421875 37.84375 85.574219 L 37.84375 95.558594 C 37.84375 96.714844 38.3125 97.761719 39.070312 98.519531 C 39.828125 99.273438 40.875 99.746094 42.027344 99.746094 L 52.011719 99.746094 C 53.164062 99.746094 54.210938 99.273438 54.96875 98.519531 C 55.726562 97.761719 56.195312 96.714844 56.195312 95.558594 L 56.195312 85.574219 C 56.195312 84.421875 55.726562 83.375 54.96875 82.621094 C 54.210938 81.863281 53.164062 81.390625 52.011719 81.390625 Z M 52.011719 84.851562 L 42.027344 84.851562 C 41.828125 84.851562 41.648438 84.933594 41.515625 85.066406 C 41.386719 85.199219 41.304688 85.378906 41.304688 85.574219 L 41.304688 95.558594 C 41.304688 95.757812 41.386719 95.941406 41.515625 96.070312 C 41.648438 96.203125 41.828125 96.285156 42.027344 96.285156 L 52.011719 96.285156 C 52.210938 96.285156 52.390625 96.203125 52.523438 96.070312 C 52.652344 95.941406 52.734375 95.757812 52.734375 95.558594 L 52.734375 85.574219 C 52.734375 85.378906 52.652344 85.199219 52.523438 85.066406 C 52.390625 84.933594 52.210938 84.851562 52.011719 84.851562 Z M 63.386719 119.132812 C 62.429688 119.132812 61.65625 118.355469 61.65625 117.402344 C 61.65625 116.445312 62.429688 115.671875 63.386719 115.671875 L 98.425781 115.671875 C 99.382812 115.671875 100.15625 116.445312 100.15625 117.402344 C 100.15625 118.355469 99.382812 119.132812 98.425781 119.132812 Z M 63.386719 111.527344 C 62.429688 111.527344 61.65625 110.75 61.65625 109.796875 C 61.65625 108.839844 62.429688 108.066406 63.386719 108.066406 L 98.425781 108.066406 C 99.382812 108.066406 100.15625 108.839844 100.15625 109.796875 C 100.15625 110.75 99.382812 111.527344 98.425781 111.527344 Z M 42.761719 114.609375 C 42.074219 113.949219 42.054688 112.855469 42.714844 112.167969 C 43.375 111.484375 44.46875 111.460938 45.15625 112.121094 L 46.320312 113.246094 L 48.75 110.316406 C 49.359375 109.582031 50.449219 109.476562 51.183594 110.085938 C 51.917969 110.695312 52.023438 111.785156 51.414062 112.519531 L 47.796875 116.878906 L 47.792969 116.878906 C 47.765625 116.910156 47.738281 116.945312 47.707031 116.976562 C 47.046875 117.664062 45.953125 117.683594 45.265625 117.023438 Z M 42.027344 104.421875 C 40.875 104.421875 39.828125 104.890625 39.070312 105.648438 C 38.3125 106.40625 37.84375 107.453125 37.84375 108.605469 L 37.84375 118.589844 C 37.84375 119.742188 38.3125 120.789062 39.070312 121.546875 C 39.828125 122.304688 40.875 122.773438 42.027344 122.773438 L 52.011719 122.773438 C 53.164062 122.773438 54.210938 122.304688 54.96875 121.546875 C 55.726562 120.789062 56.195312 119.742188 56.195312 118.589844 L 56.195312 108.605469 C 56.195312 107.453125 55.726562 106.40625 54.96875 105.648438 C 54.210938 104.890625 53.164062 104.421875 52.011719 104.421875 Z M 52.011719 107.882812 L 42.027344 107.882812 C 41.828125 107.882812 41.648438 107.964844 41.515625 108.097656 C 41.386719 108.226562 41.304688 108.410156 41.304688 108.605469 L 41.304688 118.589844 C 41.304688 118.789062 41.386719 118.96875 41.515625 119.101562 C 41.648438 119.230469 41.828125 119.3125 42.027344 119.3125 L 52.011719 119.3125 C 52.210938 119.3125 52.390625 119.230469 52.523438 119.101562 C 52.652344 118.96875 52.734375 118.789062 52.734375 118.589844 L 52.734375 108.605469 C 52.734375 108.410156 52.652344 108.226562 52.523438 108.097656 C 52.390625 107.964844 52.210938 107.882812 52.011719 107.882812 Z M 63.386719 73.070312 C 62.429688 73.070312 61.65625 72.296875 61.65625 71.339844 C 61.65625 70.386719 62.429688 69.609375 63.386719 69.609375 L 98.425781 69.609375 C 99.382812 69.609375 100.15625 70.386719 100.15625 71.339844 C 100.15625 72.296875 99.382812 73.070312 98.425781 73.070312 Z M 63.386719 65.464844 C 62.429688 65.464844 61.65625 64.691406 61.65625 63.734375 C 61.65625 62.78125 62.429688 62.003906 63.386719 62.003906 L 98.425781 62.003906 C 99.382812 62.003906 100.15625 62.78125 100.15625 63.734375 C 100.15625 64.691406 99.382812 65.464844 98.425781 65.464844 Z M 42.761719 68.550781 C 42.074219 67.890625 42.054688 66.796875 42.714844 66.109375 C 43.375 65.421875 44.46875 65.402344 45.15625 66.0625 L 46.320312 67.183594 L 48.75 64.257812 C 49.359375 63.519531 50.449219 63.417969 51.183594 64.027344 C 51.917969 64.632812 52.023438 65.722656 51.414062 66.460938 L 47.796875 70.820312 L 47.792969 70.820312 C 47.765625 70.851562 47.738281 70.882812 47.707031 70.914062 C 47.046875 71.601562 45.953125 71.625 45.265625 70.960938 Z M 42.027344 58.363281 C 40.875 58.363281 39.828125 58.832031 39.070312 59.589844 C 38.3125 60.347656 37.84375 61.394531 37.84375 62.546875 L 37.84375 72.53125 C 37.84375 73.683594 38.3125 74.730469 39.070312 75.488281 C 39.828125 76.246094 40.875 76.714844 42.027344 76.714844 L 52.011719 76.714844 C 53.164062 76.714844 54.210938 76.246094 54.96875 75.488281 C 55.726562 74.730469 56.195312 73.683594 56.195312 72.53125 L 56.195312 62.546875 C 56.195312 61.394531 55.726562 60.347656 54.96875 59.589844 C 54.210938 58.832031 53.164062 58.363281 52.011719 58.363281 Z M 52.011719 61.824219 L 42.027344 61.824219 C 41.828125 61.824219 41.648438 61.90625 41.515625 62.035156 C 41.386719 62.167969 41.304688 62.347656 41.304688 62.546875 L 41.304688 72.53125 C 41.304688 72.730469 41.386719 72.910156 41.515625 73.039062 C 41.648438 73.171875 41.828125 73.253906 42.027344 73.253906 L 52.011719 73.253906 C 52.210938 73.253906 52.390625 73.171875 52.523438 73.039062 C 52.652344 72.910156 52.734375 72.730469 52.734375 72.53125 L 52.734375 62.546875 C 52.734375 62.347656 52.652344 62.167969 52.523438 62.035156 C 52.390625 61.90625 52.210938 61.824219 52.011719 61.824219 Z M 63.386719 50.042969 C 62.429688 50.042969 61.65625 49.265625 61.65625 48.3125 C 61.65625 47.355469 62.429688 46.582031 63.386719 46.582031 L 98.425781 46.582031 C 99.382812 46.582031 100.15625 47.355469 100.15625 48.3125 C 100.15625 49.265625 99.382812 50.042969 98.425781 50.042969 Z M 63.386719 42.4375 C 62.429688 42.4375 61.65625 41.660156 61.65625 40.707031 C 61.65625 39.75 62.429688 38.976562 63.386719 38.976562 L 98.425781 38.976562 C 99.382812 38.976562 100.15625 39.75 100.15625 40.707031 C 100.15625 41.660156 99.382812 42.4375 98.425781 42.4375 Z M 42.761719 45.519531 C 42.074219 44.859375 42.054688 43.765625 42.714844 43.082031 C 43.375 42.394531 44.46875 42.371094 45.15625 43.03125 L 46.320312 44.15625 L 48.75 41.226562 C 49.359375 40.492188 50.449219 40.386719 51.183594 40.996094 C 51.917969 41.605469 52.023438 42.695312 51.414062 43.429688 L 47.796875 47.789062 L 47.792969 47.789062 C 47.765625 47.820312 47.738281 47.855469 47.707031 47.886719 C 47.046875 48.570312 45.953125 48.59375 45.265625 47.933594 Z M 42.027344 35.332031 C 40.875 35.332031 39.828125 35.800781 39.070312 36.558594 C 38.3125 37.316406 37.84375 38.363281 37.84375 39.515625 L 37.84375 49.5 C 37.84375 50.652344 38.3125 51.699219 39.070312 52.457031 C 39.828125 53.214844 40.875 53.683594 42.027344 53.683594 L 52.011719 53.683594 C 53.164062 53.683594 54.210938 53.214844 54.96875 52.457031 C 55.726562 51.699219 56.195312 50.652344 56.195312 49.5 L 56.195312 39.515625 C 56.195312 38.363281 55.726562 37.316406 54.96875 36.558594 C 54.210938 35.800781 53.164062 35.332031 52.011719 35.332031 Z M 52.011719 38.792969 L 42.027344 38.792969 C 41.828125 38.792969 41.648438 38.875 41.515625 39.007812 C 41.386719 39.136719 41.304688 39.320312 41.304688 39.515625 L 41.304688 49.5 C 41.304688 49.699219 41.386719 49.878906 41.515625 50.011719 C 41.648438 50.140625 41.828125 50.222656 42.027344 50.222656 L 52.011719 50.222656 C 52.210938 50.222656 52.390625 50.140625 52.523438 50.011719 C 52.652344 49.878906 52.734375 49.699219 52.734375 49.5 L 52.734375 39.515625 C 52.734375 39.320312 52.652344 39.136719 52.523438 39.007812 C 52.390625 38.875 52.210938 38.792969 52.011719 38.792969 Z M 46.859375 23.457031 L 46.859375 26.863281 C 46.859375 27.820312 47.632812 28.59375 48.589844 28.59375 L 89.410156 28.59375 C 90.367188 28.59375 91.140625 27.820312 91.140625 26.863281 L 91.140625 23.457031 L 108.851562 23.457031 C 108.914062 23.457031 108.972656 23.480469 109.007812 23.519531 L 109.015625 23.523438 C 109.050781 23.5625 109.074219 23.617188 109.074219 23.683594 L 109.074219 127.875 C 109.074219 127.9375 109.050781 127.996094 109.011719 128.035156 C 108.972656 128.074219 108.914062 128.097656 108.851562 128.097656 L 29.148438 128.097656 C 29.085938 128.097656 29.03125 128.074219 28.988281 128.03125 C 28.949219 127.992188 28.921875 127.933594 28.921875 127.875 L 28.921875 23.683594 C 28.921875 23.621094 28.945312 23.5625 28.984375 23.519531 C 29.027344 23.480469 29.085938 23.457031 29.148438 23.457031 Z M 79.113281 8.554688 L 82.890625 8.554688 C 85.160156 8.554688 87.222656 9.480469 88.71875 10.976562 C 89.488281 11.746094 90.109375 12.667969 90.527344 13.691406 L 115.15625 13.691406 C 116.171875 13.691406 117.09375 14.105469 117.761719 14.773438 C 117.800781 14.8125 117.839844 14.855469 117.878906 14.902344 C 118.476562 15.558594 118.84375 16.429688 118.84375 17.378906 L 118.84375 134.183594 C 118.84375 135.191406 118.429688 136.113281 117.761719 136.78125 C 117.097656 137.445312 116.175781 137.859375 115.160156 137.863281 L 22.847656 138.03125 C 22.347656 138.03125 21.878906 137.9375 21.4375 137.757812 C 20.992188 137.574219 20.59375 137.304688 20.246094 136.957031 L 20.242188 136.953125 L 20.238281 136.957031 C 19.894531 136.613281 19.625 136.214844 19.4375 135.761719 C 19.25 135.316406 19.15625 134.84375 19.15625 134.347656 L 19.15625 17.378906 C 19.15625 16.367188 19.570312 15.445312 20.238281 14.777344 L 20.242188 14.773438 C 20.910156 14.105469 21.832031 13.691406 22.84375 13.691406 L 47.472656 13.691406 C 47.890625 12.667969 48.511719 11.746094 49.28125 10.976562 C 50.773438 9.480469 52.839844 8.554688 55.109375 8.554688 L 58.882812 8.554688 C 59.25 6.417969 60.273438 4.507812 61.742188 3.035156 L 61.746094 3.035156 L 61.742188 3.03125 C 63.601562 1.171875 66.167969 0.0234375 69 0.0234375 C 71.828125 0.0234375 74.390625 1.171875 76.246094 3.03125 L 76.253906 3.035156 C 77.722656 4.507812 78.75 6.417969 79.113281 8.554688 Z M 91.140625 19.996094 L 91.140625 17.152344 L 115.15625 17.152344 C 115.214844 17.152344 115.273438 17.179688 115.3125 17.21875 L 115.347656 17.25 C 115.367188 17.285156 115.378906 17.328125 115.378906 17.378906 L 115.378906 134.183594 C 115.378906 134.25 115.355469 134.304688 115.316406 134.347656 C 115.273438 134.386719 115.21875 134.414062 115.160156 134.414062 L 22.847656 134.582031 C 22.804688 134.582031 22.773438 134.578125 22.75 134.566406 C 22.734375 134.5625 22.710938 134.542969 22.679688 134.511719 L 22.683594 134.511719 C 22.648438 134.476562 22.628906 134.453125 22.625 134.445312 L 22.625 134.4375 C 22.621094 134.425781 22.617188 134.394531 22.617188 134.347656 L 22.617188 17.378906 C 22.617188 17.3125 22.640625 17.257812 22.679688 17.214844 C 22.722656 17.175781 22.777344 17.152344 22.84375 17.152344 L 46.859375 17.152344 L 46.859375 19.996094 L 29.148438 19.996094 C 28.136719 19.996094 27.21875 20.410156 26.550781 21.078125 L 26.542969 21.085938 C 25.875 21.753906 25.460938 22.671875 25.460938 23.683594 L 25.460938 127.875 C 25.460938 128.890625 25.875 129.8125 26.542969 130.480469 C 27.210938 131.144531 28.132812 131.5625 29.148438 131.5625 L 108.851562 131.5625 C 109.859375 131.5625 110.78125 131.148438 111.449219 130.480469 L 111.457031 130.472656 C 112.121094 129.804688 112.539062 128.886719 112.539062 127.875 L 112.539062 23.683594 C 112.539062 22.675781 112.125 21.753906 111.457031 21.085938 L 111.449219 21.078125 C 110.777344 20.410156 109.859375 19.996094 108.851562 19.996094 Z M 91.140625 19.996094 " fill-opacity="1" fill-rule="evenodd"/></g></svg>