<svg xmlns="http://www.w3.org/2000/svg" xmlns:xlink="http://www.w3.org/1999/xlink" width="184" zoomAndPan="magnify" viewBox="0 0 138 137.999998" height="184" preserveAspectRatio="xMidYMid meet" version="1.0"><rect x="-13.8" width="165.6" fill="#ffffff" y="-13.8" height="165.599997" fill-opacity="1"/><rect x="-13.8" width="165.6" fill="#ffffff" y="-13.8" height="165.599997" fill-opacity="1"/><path fill="#254f7a" d="M 68.703125 11.804688 C 69.007812 11.433594 69.316406 11.054688 69.628906 10.691406 L 69.636719 10.675781 C 71.425781 8.609375 73.882812 7.429688 76.425781 7.199219 C 79.101562 6.949219 81.824219 7.757812 84.023438 9.628906 L 84.035156 9.636719 C 88.394531 13.394531 87.886719 18.511719 85.261719 23.699219 C 107.433594 29.960938 124.398438 48.332031 128.625 71.238281 C 128.824219 72.328125 128.105469 73.371094 127.015625 73.574219 C 125.929688 73.769531 124.886719 73.054688 124.683594 71.964844 C 120.675781 50.207031 104.34375 32.84375 83.152344 27.289062 C 80.789062 30.816406 77.265625 34.792969 74.648438 37.390625 C 71.578125 40.464844 65.78125 40.433594 62.8125 37.4375 L 62.804688 37.449219 C 60.140625 34.773438 56.640625 30.855469 54.25 27.289062 C 33.0625 32.84375 16.726562 50.214844 12.722656 71.964844 C 12.515625 73.054688 11.476562 73.769531 10.386719 73.574219 C 9.296875 73.371094 8.582031 72.328125 8.777344 71.238281 C 13.003906 48.332031 29.96875 29.960938 52.140625 23.699219 C 49.519531 18.507812 49.007812 13.375 53.382812 9.628906 C 53.472656 9.53125 53.578125 9.453125 53.6875 9.375 C 55.816406 7.675781 58.441406 6.96875 60.976562 7.199219 C 63.589844 7.4375 66.097656 8.667969 67.894531 10.832031 Z M 72.46875 13.527344 L 69.984375 16.464844 C 69.128906 17.171875 67.867188 17.054688 67.160156 16.207031 L 64.820312 13.382812 C 62.640625 10.765625 58.695312 10.402344 56.082031 12.574219 C 49.585938 17.972656 61.878906 30.835938 65.640625 34.597656 L 65.640625 34.605469 C 67.09375 36.015625 70.292969 36.066406 71.816406 34.550781 C 75.027344 31.285156 79.164062 26.710938 81.484375 22.289062 C 83.453125 18.566406 84.082031 14.988281 81.445312 12.675781 C 81.371094 12.625 81.285156 12.550781 81.203125 12.476562 C 79.917969 11.457031 78.328125 11.039062 76.789062 11.171875 C 75.253906 11.320312 73.773438 12.019531 72.695312 13.253906 C 72.621094 13.359375 72.550781 13.4375 72.46875 13.527344 Z M 99.789062 53.136719 C 92.824219 53.136719 89.308594 61.609375 94.246094 66.539062 C 99.171875 71.46875 107.640625 67.964844 107.640625 60.988281 C 107.640625 56.644531 104.132812 53.136719 99.789062 53.136719 Z M 91.402344 52.597656 C 96.035156 47.964844 103.546875 47.964844 108.183594 52.597656 C 112.816406 57.226562 112.824219 64.738281 108.1875 69.371094 C 108.375 69.496094 108.554688 69.628906 108.726562 69.769531 C 112.417969 72.5 115.34375 74.023438 118.46875 74.855469 C 121.664062 75.714844 125.148438 75.898438 129.871094 75.949219 C 134.992188 75.984375 137.464844 82.207031 133.847656 85.765625 C 132.796875 86.804688 131.371094 87.425781 129.78125 87.414062 C 122.863281 87.382812 117.960938 86.925781 112.070312 84.59375 L 112.070312 96.386719 L 116.140625 118.816406 C 117.289062 125.167969 112.171875 129.125 107.425781 127.855469 C 104.921875 127.191406 102.675781 125.117188 101.988281 121.375 L 99.796875 109.515625 L 97.605469 121.375 C 96.40625 127.816406 90.335938 129.652344 86.316406 126.785156 C 84.175781 125.257812 82.785156 122.492188 83.453125 118.816406 L 87.515625 96.386719 L 87.515625 84.59375 C 85.980469 85.203125 84.484375 85.703125 82.90625 86.101562 L 82.90625 119.988281 C 82.90625 127.398438 73.648438 130.96875 68.707031 125.320312 C 64.304688 130.347656 56.171875 128.164062 54.707031 121.800781 C 53.628906 129.691406 42.207031 130.796875 40.46875 121.378906 L 38.273438 109.519531 L 36.085938 121.378906 C 34.890625 127.820312 28.816406 129.65625 24.792969 126.785156 C 22.65625 125.257812 21.265625 122.492188 21.933594 118.820312 L 25.996094 96.390625 L 25.996094 84.597656 C 20.121094 86.929688 15.195312 87.382812 8.28125 87.417969 C 3.140625 87.433594 0.609375 81.253906 4.152344 77.65625 C 5.183594 76.617188 6.613281 75.957031 8.199219 75.949219 C 12.921875 75.898438 16.414062 75.722656 19.609375 74.859375 C 22.726562 74.023438 25.652344 72.503906 29.347656 69.773438 C 29.515625 69.636719 29.695312 69.496094 29.882812 69.375 C 25.246094 64.738281 25.253906 57.226562 29.882812 52.601562 C 34.515625 47.96875 42.027344 47.96875 46.660156 52.601562 C 49.664062 55.589844 50.882812 60.023438 49.695312 64.214844 C 51.832031 64.894531 55.136719 65.789062 57.046875 65.433594 C 58.265625 65.203125 59.363281 65 60.308594 64.828125 C 56.074219 60.183594 56.1875 52.941406 60.546875 48.429688 C 65.054688 43.773438 72.347656 43.773438 76.855469 48.429688 C 81.21875 52.941406 81.328125 60.1875 77.09375 64.828125 C 78.039062 65 79.132812 65.199219 80.355469 65.433594 C 82.417969 65.820312 86.042969 64.777344 88.324219 64.015625 C 87.230469 59.867188 88.457031 55.542969 91.402344 52.597656 Z M 104.3125 71.964844 C 100.429688 73.554688 97.285156 72.515625 97.066406 72.539062 C 94.472656 73.660156 91.847656 74.792969 89.117188 75.742188 C 87.921875 76.449219 86.78125 77.039062 85.671875 77.507812 C 84.976562 77.808594 84.277344 78.074219 83.566406 78.304688 L 83.566406 81.761719 C 85.28125 81.214844 86.894531 80.554688 88.6875 79.734375 C 90.019531 79.117188 91.53125 80.125 91.53125 81.554688 L 91.53125 96.53125 L 87.382812 119.515625 C 86.460938 124.667969 92.671875 126.035156 93.660156 120.65625 L 97.820312 98.164062 C 98.226562 95.984375 101.382812 95.972656 101.761719 98.195312 L 105.917969 120.65625 C 106.914062 126.035156 113.125 124.667969 112.191406 119.515625 C 111.773438 117.210938 108.0625 97.019531 108.054688 96.53125 L 108.054688 82.855469 C 107.097656 82.351562 106.136719 81.792969 105.117188 81.171875 C 104.171875 80.59375 103.871094 79.367188 104.457031 78.421875 C 105.027344 77.472656 106.265625 77.179688 107.210938 77.757812 L 110.410156 79.570312 C 110.632812 79.609375 110.835938 79.6875 111.015625 79.785156 C 114.238281 81.261719 116.859375 82.148438 119.644531 82.667969 C 122.53125 83.203125 125.65625 83.378906 129.808594 83.417969 C 131.335938 83.425781 132.144531 81.5625 131.054688 80.457031 C 130.742188 80.136719 130.308594 79.945312 129.835938 79.945312 C 119.722656 79.855469 114.582031 79.089844 106.34375 72.976562 L 106.332031 72.976562 C 105.617188 72.46875 105.253906 72.175781 104.3125 71.964844 Z M 92.105469 70.019531 C 91.304688 69.335938 90.585938 68.546875 89.996094 67.675781 C 86.871094 68.738281 82.621094 69.929688 79.613281 69.371094 C 78.703125 69.199219 72.417969 68.035156 72.054688 68.066406 C 70.988281 68.402344 69.867188 68.582031 68.703125 68.582031 C 67.53125 68.582031 66.414062 68.402344 65.347656 68.066406 C 64.976562 68.035156 58.695312 69.199219 57.785156 69.371094 C 54.902344 69.90625 50.929688 68.851562 47.941406 67.859375 C 47.316406 68.742188 46.574219 69.53125 45.738281 70.207031 C 49.390625 71.738281 53.082031 73.09375 56.746094 73.664062 C 57.738281 73.78125 58.507812 74.621094 58.507812 75.652344 L 58.507812 119.992188 C 58.507812 123.578125 62.890625 125.476562 65.492188 122.871094 C 66.234375 122.132812 66.695312 121.113281 66.695312 119.992188 L 66.695312 100.265625 C 66.695312 99.160156 67.589844 98.269531 68.703125 98.269531 C 69.808594 98.269531 70.699219 99.164062 70.699219 100.265625 L 70.699219 119.992188 C 70.699219 123.578125 75.082031 125.476562 77.6875 122.871094 C 78.425781 122.132812 78.890625 121.113281 78.890625 119.992188 L 78.890625 75.652344 C 78.890625 74.679688 79.601562 73.816406 80.59375 73.667969 C 84.425781 73.085938 88.289062 71.628906 92.105469 70.019531 Z M 41 72.539062 C 40.121094 72.746094 39.214844 72.847656 38.273438 72.847656 C 36.675781 72.847656 35.148438 72.53125 33.757812 71.964844 C 33.480469 72.027344 33.222656 72.109375 32.980469 72.214844 C 32.410156 72.449219 32.210938 72.632812 31.734375 72.972656 C 23.398438 79.09375 18.460938 79.851562 8.230469 79.945312 C 6.703125 79.953125 5.925781 81.828125 7.027344 82.917969 C 7.347656 83.226562 7.777344 83.417969 8.253906 83.417969 C 12.40625 83.378906 15.53125 83.207031 18.417969 82.667969 C 21.203125 82.148438 23.828125 81.265625 27.042969 79.785156 C 27.230469 79.691406 27.433594 79.613281 27.644531 79.574219 L 30.855469 77.761719 C 31.800781 77.183594 33.039062 77.476562 33.613281 78.425781 C 34.191406 79.371094 33.890625 80.601562 32.949219 81.171875 L 30.011719 82.859375 L 30.011719 96.53125 L 30.003906 96.53125 C 30.003906 97.019531 26.289062 117.210938 25.878906 119.519531 C 24.941406 124.675781 31.152344 126.035156 32.140625 120.660156 L 36.296875 98.195312 C 36.6875 95.976562 39.839844 95.988281 40.25 98.164062 L 44.410156 120.660156 C 45.402344 126.039062 51.617188 124.675781 50.679688 119.519531 L 46.539062 96.53125 L 46.539062 81.558594 C 46.539062 80.128906 48.046875 79.121094 49.382812 79.738281 C 51.167969 80.558594 52.792969 81.21875 54.496094 81.761719 L 54.496094 78.304688 C 53.789062 78.082031 53.09375 77.8125 52.40625 77.507812 C 51.296875 77.039062 50.164062 76.460938 48.980469 75.765625 C 46.414062 74.867188 43.894531 73.789062 41.394531 72.703125 Z M 43.824219 55.433594 C 38.894531 50.5 30.425781 54.015625 30.425781 60.988281 C 30.425781 67.964844 38.898438 71.46875 43.824219 66.539062 C 46.882812 63.472656 46.882812 58.5 43.824219 55.433594 Z M 54.492188 85.9375 C 53.152344 85.566406 51.863281 85.117188 50.539062 84.597656 L 50.539062 96.390625 L 54.492188 118.1875 Z M 68.703125 48.957031 C 62.003906 48.957031 58.714844 57.429688 63.429688 62.3125 C 68.109375 67.152344 76.179688 63.71875 76.179688 56.761719 C 76.179688 52.527344 72.921875 48.957031 68.703125 48.957031 Z M 68.703125 48.957031 " fill-opacity="1" fill-rule="nonzero"/></svg>