<svg xmlns="http://www.w3.org/2000/svg" xmlns:xlink="http://www.w3.org/1999/xlink" width="184" zoomAndPan="magnify" viewBox="0 0 138 137.999998" height="184" preserveAspectRatio="xMidYMid meet" version="1.0"><defs><clipPath id="4707e793c7"><path d="M 78 50 L 138 50 L 138 121.820312 L 78 121.820312 Z M 78 50 " clip-rule="nonzero"/></clipPath><clipPath id="9366cf319e"><path d="M 0 16.070312 L 86 16.070312 L 86 72 L 0 72 Z M 0 16.070312 " clip-rule="nonzero"/></clipPath></defs><rect x="-13.8" width="165.6" fill="#ffffff" y="-13.8" height="165.599997" fill-opacity="1"/><rect x="-13.8" width="165.6" fill="#ffffff" y="-13.8" height="165.599997" fill-opacity="1"/><path fill="#254f7a" d="M 118.097656 30.917969 C 118.097656 30.917969 95.105469 28.046875 76.664062 32.117188 C 76.664062 32.117188 91.515625 31.636719 106.601562 36.90625 C 106.601562 36.90625 93.90625 55.347656 86.960938 90.792969 C 86.960938 90.792969 66.367188 86.722656 52.953125 97.019531 C 52.953125 97.019531 68.28125 92.46875 93.667969 97.019531 C 93.667969 97.019531 101.09375 57.023438 118.097656 30.917969 " fill-opacity="1" fill-rule="nonzero"/><g clip-path="url(#4707e793c7)"><path fill="#254f7a" d="M 112.347656 50.558594 L 109.714844 53.910156 C 109.714844 53.910156 118.816406 54.867188 127.195312 64.6875 C 127.195312 64.6875 112.1875 77.78125 102.128906 110.589844 C 102.128906 110.589844 92.628906 101.089844 78.578125 99.175781 C 78.578125 99.175781 97.261719 111.390625 105.164062 121.929688 C 105.164062 121.929688 115.941406 81.691406 137.976562 63.476562 C 137.976562 63.476562 124.324219 54.148438 112.347656 50.558594 " fill-opacity="1" fill-rule="nonzero"/></g><path fill="#254f7a" d="M 76.027344 57.261719 L 67.203125 40.140625 L 47.6875 56.058594 L 27.804688 51.992188 L 31.160156 71.394531 C 58.144531 80.894531 76.027344 57.261719 76.027344 57.261719 " fill-opacity="1" fill-rule="nonzero"/><path fill="#254f7a" d="M 99.414062 41.335938 C 99.414062 41.335938 90.15625 40.097656 76.105469 43.910156 C 76.105469 43.910156 85.84375 42.335938 96.699219 46.484375 L 99.414062 41.335938 " fill-opacity="1" fill-rule="nonzero"/><path fill="#254f7a" d="M 91.992188 58.699219 C 91.992188 58.699219 81.492188 57.664062 72.511719 64.046875 C 72.511719 64.046875 81.496094 61.5 89.796875 63.242188 L 91.992188 58.699219 " fill-opacity="1" fill-rule="nonzero"/><path fill="#254f7a" d="M 85.527344 77.941406 L 86.800781 72.511719 C 86.800781 72.511719 72.113281 72.511719 60.296875 84.089844 C 60.296875 84.089844 69.558594 78.898438 85.527344 77.941406 " fill-opacity="1" fill-rule="nonzero"/><g clip-path="url(#9366cf319e)"><path fill="#254f7a" d="M 11.839844 69.71875 C 11.839844 68.613281 10.945312 67.71875 9.84375 67.71875 C 9.734375 67.71875 9.628906 67.734375 9.523438 67.75 L 4.378906 45.273438 L 46.007812 51.992188 L 85.527344 20.621094 L 40.5 16.070312 L 0.0234375 44.570312 L 3.953125 45.203125 L 9.136719 67.851562 C 8.382812 68.140625 7.847656 68.867188 7.847656 69.71875 C 7.847656 70.820312 8.742188 71.714844 9.84375 71.714844 C 10.945312 71.714844 11.839844 70.820312 11.839844 69.71875 " fill-opacity="1" fill-rule="nonzero"/></g><path fill="#254f7a" d="M 8.644531 72.292969 L 9.363281 79.695312 L 9.464844 73.910156 C 9.464844 73.910156 10.921875 79.976562 10.960938 79.496094 C 11 79.019531 10.484375 73.597656 10.484375 73.597656 L 12.597656 78.859375 L 11.5625 73.230469 L 14.15625 78.578125 L 12.492188 72.90625 C 12.492188 72.90625 15.152344 78.058594 15.152344 77.941406 C 15.152344 77.820312 12.316406 70.875 12.316406 70.875 C 10.902344 72.96875 8.644531 72.292969 8.644531 72.292969 " fill-opacity="1" fill-rule="nonzero"/></svg>