<svg xmlns="http://www.w3.org/2000/svg" xmlns:xlink="http://www.w3.org/1999/xlink" width="184" zoomAndPan="magnify" viewBox="0 0 138 137.999998" height="184" preserveAspectRatio="xMidYMid meet" version="1.0"><defs><clipPath id="b1b715f694"><path d="M 0 6.039062 L 138 6.039062 L 138 132 L 0 132 Z M 0 6.039062 " clip-rule="nonzero"/></clipPath></defs><rect x="-13.8" width="165.6" fill="#ffffff" y="-13.8" height="165.599997" fill-opacity="1"/><rect x="-13.8" width="165.6" fill="#ffffff" y="-13.8" height="165.599997" fill-opacity="1"/><g clip-path="url(#b1b715f694)"><path fill="#254f7a" d="M 65.277344 13.335938 L 73.960938 28.375 L 73.960938 36.011719 L 56.59375 36.011719 L 56.59375 28.375 Z M 124.605469 40.527344 L 27.28125 40.527344 L 22.6875 21.5 C 21.699219 17.398438 18.097656 14.546875 13.878906 14.546875 L 4.226562 14.546875 C 1.894531 14.546875 0 16.441406 0 18.773438 C 0 21.105469 1.894531 23 4.226562 23 L 13.878906 23 C 14.195312 23 14.425781 23.167969 14.503906 23.476562 L 30.601562 90.175781 C 24.273438 92.367188 19.960938 98.363281 19.960938 105.097656 C 19.960938 113.628906 26.796875 120.625 35.269531 120.878906 C 36.570312 127.164062 42.136719 131.890625 48.8125 131.890625 C 55.480469 131.890625 61.046875 127.167969 62.351562 120.886719 L 86.429688 120.886719 C 87.734375 127.167969 93.300781 131.890625 99.96875 131.890625 C 107.605469 131.890625 113.796875 125.703125 113.796875 118.066406 C 113.796875 110.429688 107.605469 104.238281 99.96875 104.238281 C 94.339844 104.238281 89.492188 107.605469 87.335938 112.433594 L 61.441406 112.433594 C 59.285156 107.605469 54.441406 104.238281 48.8125 104.238281 C 43.179688 104.238281 38.335938 107.605469 36.179688 112.433594 L 35.746094 112.433594 C 31.71875 112.433594 28.410156 109.125 28.410156 105.097656 C 28.410156 101.070312 31.71875 97.761719 35.746094 97.761719 L 100.898438 97.761719 C 107.96875 97.761719 114.054688 93.253906 116.136719 86.5 L 128.53125 46.3125 C 129.621094 43.570312 127.609375 40.527344 124.605469 40.527344 Z M 99.96875 112.433594 C 103.078125 112.433594 105.597656 114.957031 105.597656 118.066406 C 105.597656 121.175781 103.078125 123.695312 99.96875 123.695312 C 96.859375 123.695312 94.339844 121.175781 94.339844 118.066406 C 94.339844 114.957031 96.859375 112.433594 99.96875 112.433594 Z M 48.8125 112.433594 C 51.921875 112.433594 54.441406 114.957031 54.441406 118.066406 C 54.441406 121.175781 51.921875 123.695312 48.8125 123.695312 C 45.703125 123.695312 43.179688 121.175781 43.179688 118.066406 C 43.179688 114.957031 45.703125 112.433594 48.8125 112.433594 Z M 52.015625 89.308594 L 39.058594 89.308594 L 36.328125 77.992188 L 52.015625 77.992188 Z M 52.015625 73.476562 L 35.238281 73.476562 L 33.082031 64.550781 L 52.015625 64.550781 Z M 52.015625 60.03125 L 31.992188 60.03125 L 29.320312 48.976562 L 52.015625 48.976562 Z M 71.398438 89.308594 L 56.53125 89.308594 L 56.53125 77.992188 L 71.398438 77.992188 Z M 71.398438 73.476562 L 56.53125 73.476562 L 56.53125 64.550781 L 71.398438 64.550781 Z M 71.398438 60.03125 L 56.53125 60.03125 L 56.53125 48.976562 L 71.398438 48.976562 Z M 90.78125 89.308594 L 75.914062 89.308594 L 75.914062 77.992188 L 90.78125 77.992188 Z M 90.78125 73.476562 L 75.914062 73.476562 L 75.914062 64.550781 L 90.78125 64.550781 Z M 90.78125 60.03125 L 75.914062 60.03125 L 75.914062 48.976562 L 90.78125 48.976562 Z M 108.082031 84.023438 C 107.082031 87.265625 104.285156 89.308594 100.898438 89.308594 L 95.296875 89.308594 L 95.296875 77.992188 L 109.941406 77.992188 Z M 111.335938 73.476562 L 95.296875 73.476562 L 95.296875 64.550781 L 114.089844 64.550781 Z M 115.480469 60.03125 L 95.296875 60.03125 L 95.296875 48.976562 L 118.890625 48.976562 Z M 110.667969 19.179688 C 110.238281 18.664062 109.765625 18.179688 109.25 17.726562 L 113.292969 10.726562 C 114.011719 9.476562 113.582031 7.867188 112.332031 7.148438 C 111.085938 6.425781 109.476562 6.859375 108.753906 8.105469 L 104.714844 15.105469 C 98.871094 13.136719 92.261719 15.484375 89.0625 21.027344 C 87.511719 23.710938 86.378906 28.894531 84.820312 36.011719 L 110.703125 36.011719 C 111.210938 35.378906 111.628906 34.792969 111.949219 34.242188 C 114.792969 29.3125 114.105469 23.316406 110.667969 19.179688 Z M 105.804688 22.960938 C 105.179688 24.039062 103.800781 24.40625 102.726562 23.78125 C 100.601562 22.554688 97.878906 23.292969 96.652344 25.414062 C 96.03125 26.492188 94.652344 26.859375 93.574219 26.234375 C 92.5 25.609375 92.132812 24.230469 92.753906 23.15625 C 95.226562 18.871094 100.699219 17.410156 104.984375 19.882812 C 106.058594 20.507812 106.425781 21.886719 105.804688 22.960938 Z M 35.964844 11.078125 L 61.367188 11.078125 L 64.222656 6.128906 L 35.964844 6.128906 Z M 29.539062 30.632812 L 52.078125 30.632812 L 52.078125 36.011719 L 30.835938 36.011719 Z M 58.761719 15.59375 L 34.660156 15.59375 L 28.585938 26.117188 L 52.683594 26.117188 Z M 114.804688 17.140625 L 114.839844 17.082031 C 117.59375 16.386719 120.570312 16.800781 123.0625 18.320312 C 123.140625 18.285156 123.21875 18.25 123.292969 18.214844 C 124.097656 15.789062 124.175781 13.273438 123.238281 10.132812 C 122.882812 8.9375 123.5625 7.683594 124.753906 7.328125 C 125.949219 6.972656 127.203125 7.652344 127.558594 8.84375 C 128.070312 10.558594 128.347656 12.144531 128.421875 13.644531 L 131.554688 10.675781 C 132.457031 9.824219 133.878906 9.863281 134.730469 10.765625 C 135.582031 11.667969 135.542969 13.089844 134.640625 13.941406 L 131.84375 16.589844 C 133.191406 16.695312 134.609375 16.964844 136.132812 17.417969 C 137.328125 17.773438 138.003906 19.027344 137.648438 20.222656 C 137.292969 21.414062 136.039062 22.09375 134.84375 21.738281 C 131.703125 20.804688 129.1875 20.878906 126.761719 21.683594 C 126.726562 21.757812 126.691406 21.835938 126.65625 21.914062 C 129.097656 25.917969 128.683594 31.179688 125.40625 34.757812 L 117.449219 32.859375 C 119.097656 27.507812 118.117188 21.65625 114.804688 17.140625 Z M 72.207031 12.171875 C 81.332031 15.613281 82.800781 19.636719 81.269531 23.882812 C 79.945312 21.691406 77.71875 20.820312 73.839844 19.136719 L 78.476562 27.167969 L 78.476562 36.011719 L 80.191406 36.011719 C 80.414062 35.015625 80.632812 34.019531 80.851562 33.023438 C 81.785156 28.792969 82.996094 22.5 85.148438 18.769531 C 86.175781 16.992188 87.480469 15.449219 88.976562 14.171875 C 84.457031 10.847656 78.167969 9.613281 72.207031 12.171875 Z M 72.207031 12.171875 " fill-opacity="1" fill-rule="evenodd"/></g></svg>