<svg xmlns="http://www.w3.org/2000/svg" xmlns:xlink="http://www.w3.org/1999/xlink" width="184" zoomAndPan="magnify" viewBox="0 0 138 137.999998" height="184" preserveAspectRatio="xMidYMid meet" version="1.0"><defs><clipPath id="4c6ade03b3"><path d="M 0 2.257812 L 84 2.257812 L 84 135.757812 L 0 135.757812 Z M 0 2.257812 " clip-rule="nonzero"/></clipPath></defs><rect x="-13.8" width="165.6" fill="#ffffff" y="-13.8" height="165.599997" fill-opacity="1"/><rect x="-13.8" width="165.6" fill="#ffffff" y="-13.8" height="165.599997" fill-opacity="1"/><path fill="#254f7a" d="M 85.691406 69.742188 C 87.773438 67.6875 90.246094 65.78125 93.191406 64.148438 C 111.816406 53.835938 116.859375 52.574219 123.714844 36.507812 C 130.566406 20.441406 138.003906 21.597656 138.003906 21.597656 C 138.003906 21.597656 113.03125 12.5 96.644531 22.378906 C 89.496094 26.6875 84.777344 33.515625 81.917969 40.5 C 83.050781 45.671875 83.925781 50.871094 84.558594 56.050781 C 91.28125 47.914062 102.722656 35.378906 111.871094 32.070312 C 111.871094 32.070312 94.402344 44.558594 84.832031 58.433594 C 85.238281 62.21875 85.523438 65.996094 85.691406 69.742188 Z M 85.691406 69.742188 " fill-opacity="1" fill-rule="evenodd"/><g clip-path="url(#4c6ade03b3)"><path fill="#254f7a" d="M 77.261719 135.601562 C 77.261719 135.601562 83.425781 102.746094 57.496094 81.695312 C 31.570312 60.644531 24.128906 57.308594 17.96875 30.613281 C 11.804688 3.917969 0 3.660156 0 3.660156 C 0 3.660156 41.070312 -3.527344 63.660156 16.238281 C 86.246094 36.003906 85.476562 72.710938 79.832031 84.261719 C 79.832031 84.261719 57.496094 38.570312 37.476562 27.019531 C 37.476562 27.019531 70.332031 60.644531 76.492188 88.113281 C 82.65625 115.578125 79.445312 125.589844 77.261719 135.601562 Z M 77.261719 135.601562 " fill-opacity="1" fill-rule="evenodd"/></g><path fill="#254f7a" d="M 84.210938 102.476562 C 84.210938 102.476562 84.945312 93.164062 93.472656 89.375 C 102 85.582031 104.25 85.222656 107.859375 78.472656 C 111.46875 71.71875 114.671875 72.507812 114.671875 72.507812 C 114.671875 72.507812 104.117188 67.578125 96.578125 71.261719 C 89.042969 74.949219 86.578125 84.910156 87.257812 88.4375 C 87.257812 88.4375 96.613281 77.738281 102.859375 76.082031 C 102.859375 76.082031 91.542969 82.757812 87.878906 89.71875 C 84.214844 96.679688 84.351562 99.617188 84.210938 102.476562 Z M 84.210938 102.476562 " fill-opacity="1" fill-rule="evenodd"/></svg>