<svg xmlns="http://www.w3.org/2000/svg" xmlns:xlink="http://www.w3.org/1999/xlink" width="184" zoomAndPan="magnify" viewBox="0 0 138 137.999998" height="184" preserveAspectRatio="xMidYMid meet" version="1.0"><defs><clipPath id="596c1a0ce3"><path d="M 2.15625 0 L 135.65625 0 L 135.65625 138 L 2.15625 138 Z M 2.15625 0 " clip-rule="nonzero"/></clipPath></defs><rect x="-13.8" width="165.6" fill="#ffffff" y="-13.8" height="165.599997" fill-opacity="1"/><rect x="-13.8" width="165.6" fill="#ffffff" y="-13.8" height="165.599997" fill-opacity="1"/><g clip-path="url(#596c1a0ce3)"><path fill="#254f7a" d="M 47.839844 53.472656 C 47.765625 53.398438 47.703125 53.316406 47.648438 53.234375 C 46.574219 51.839844 46.140625 50.136719 46.308594 48.5 C 46.476562 46.855469 47.253906 45.273438 48.597656 44.128906 C 48.675781 44.054688 48.757812 43.988281 48.84375 43.929688 C 50.238281 42.851562 51.945312 42.417969 53.582031 42.585938 C 55.273438 42.761719 56.902344 43.578125 58.050781 44.996094 L 64.617188 53.078125 L 68.261719 48.59375 L 71.277344 44.878906 L 71.292969 44.859375 L 71.339844 44.804688 L 79.949219 34.210938 C 81.097656 32.792969 82.726562 31.976562 84.417969 31.800781 C 86.105469 31.628906 87.867188 32.09375 89.28125 33.246094 C 90.699219 34.394531 91.515625 36.023438 91.691406 37.714844 C 91.867188 39.402344 91.398438 41.164062 90.25 42.578125 L 81.582031 53.242188 L 78.558594 56.960938 L 78.558594 56.964844 L 69.898438 67.625 C 69.71875 67.84375 69.53125 68.046875 69.34375 68.226562 C 69.152344 68.410156 68.945312 68.585938 68.730469 68.746094 C 67.320312 69.871094 65.578125 70.328125 63.910156 70.15625 C 62.21875 69.980469 60.589844 69.164062 59.441406 67.746094 Z M 67.777344 100.714844 L 67.863281 100.753906 C 68.234375 100.925781 68.617188 101.011719 69 101.011719 C 69.382812 101.011719 69.765625 100.925781 70.136719 100.753906 C 86.484375 93.292969 99.082031 83.34375 106.703125 69.933594 C 114.328125 56.515625 116.933594 39.710938 113.277344 18.574219 C 113.191406 18.078125 112.980469 17.617188 112.664062 17.230469 C 112.625 17.179688 112.582031 17.125 112.535156 17.078125 C 112.160156 16.683594 111.675781 16.402344 111.105469 16.292969 C 111.066406 16.285156 111.027344 16.277344 110.988281 16.269531 C 102.390625 14.972656 94.730469 13.089844 88.023438 10.515625 C 81.363281 7.957031 75.601562 4.703125 70.746094 0.644531 L 70.742188 0.648438 C 70.230469 0.214844 69.613281 0.00390625 69 0.00390625 C 68.449219 0.00390625 67.894531 0.175781 67.414062 0.523438 C 67.359375 0.558594 67.304688 0.597656 67.253906 0.644531 C 62.398438 4.703125 56.640625 7.957031 49.976562 10.515625 C 43.269531 13.089844 35.609375 14.972656 27.011719 16.269531 L 27.011719 16.273438 C 26.394531 16.367188 25.867188 16.65625 25.464844 17.078125 C 25.078125 17.484375 24.820312 18.003906 24.722656 18.574219 C 21.066406 39.710938 23.671875 56.515625 31.296875 69.933594 C 38.90625 83.320312 51.472656 93.257812 67.777344 100.714844 Z M 34.28125 68.242188 C 41.472656 80.898438 53.4375 90.351562 69 97.503906 C 84.5625 90.351562 96.527344 80.898438 103.71875 68.242188 C 110.902344 55.605469 113.367188 39.691406 109.964844 19.589844 C 101.375 18.265625 93.648438 16.34375 86.800781 13.710938 C 79.972656 11.089844 74.039062 7.773438 69 3.65625 C 63.960938 7.773438 58.027344 11.089844 51.199219 13.710938 C 44.351562 16.34375 36.628906 18.265625 28.035156 19.589844 C 24.632812 39.691406 27.097656 55.605469 34.28125 68.242188 Z M 69 89.621094 C 74.058594 87.113281 78.941406 84.1875 83.367188 80.742188 C 87.980469 77.144531 92.113281 72.96875 95.4375 68.089844 C 99.839844 61.628906 102.367188 54.558594 103.542969 47.214844 C 104.664062 40.214844 104.5625 32.949219 103.679688 25.726562 C 97.609375 24.578125 91.546875 23.03125 85.722656 20.910156 C 79.832031 18.761719 74.175781 16.023438 69 12.511719 C 63.824219 16.023438 58.167969 18.761719 52.277344 20.910156 C 46.453125 23.03125 40.390625 24.578125 34.320312 25.726562 C 33.4375 32.949219 33.332031 40.214844 34.457031 47.21875 C 35.632812 54.558594 38.160156 61.628906 42.5625 68.089844 C 45.886719 72.972656 50.019531 77.148438 54.632812 80.742188 C 59.058594 84.191406 63.941406 87.113281 69 89.621094 Z M 85.476562 83.441406 C 90.363281 79.636719 94.742188 75.207031 98.273438 70.023438 C 102.976562 63.117188 105.675781 55.574219 106.929688 47.753906 C 108.171875 39.996094 107.988281 31.972656 106.921875 24.039062 C 106.816406 23.257812 106.195312 22.667969 105.449219 22.570312 C 99.183594 21.4375 92.90625 19.878906 86.890625 17.683594 C 80.902344 15.5 75.175781 12.683594 69.988281 9.023438 C 69.371094 8.585938 68.5625 8.617188 67.984375 9.042969 C 62.804688 12.691406 57.085938 15.503906 51.109375 17.683594 C 45.070312 19.886719 38.765625 21.449219 32.476562 22.582031 C 31.726562 22.714844 31.175781 23.320312 31.082031 24.039062 L 31.078125 24.039062 C 30.011719 31.972656 29.828125 39.996094 31.070312 47.753906 C 32.324219 55.574219 35.023438 63.121094 39.726562 70.023438 C 43.257812 75.207031 47.636719 79.636719 52.523438 83.441406 C 57.382812 87.230469 62.738281 90.394531 68.253906 93.078125 C 68.742188 93.3125 69.292969 93.296875 69.746094 93.078125 L 69.75 93.074219 L 69.761719 93.070312 C 75.273438 90.386719 80.621094 87.226562 85.476562 83.441406 Z M 122.324219 109.578125 L 122.328125 109.574219 L 122.335938 109.574219 L 122.367188 109.554688 L 122.371094 109.550781 L 122.40625 109.53125 L 122.410156 109.527344 L 122.480469 109.484375 L 122.484375 109.480469 L 122.515625 109.460938 C 125.0625 107.714844 127.066406 105.6875 128.519531 103.382812 C 129.992188 101.042969 130.890625 98.4375 131.214844 95.566406 L 131.21875 95.523438 L 135.640625 63.21875 C 136.300781 60.601562 135.136719 58.480469 133.265625 57.191406 C 132.578125 56.71875 131.796875 56.363281 130.980469 56.148438 C 130.164062 55.929688 129.3125 55.847656 128.488281 55.917969 C 126.171875 56.117188 124.042969 57.433594 123.296875 60.21875 L 115.226562 90.390625 L 114.792969 90.640625 C 114.722656 89.789062 114.472656 88.9375 114.015625 88.148438 L 114.011719 88.144531 C 113.1875 86.714844 111.859375 85.753906 110.386719 85.359375 C 108.914062 84.964844 107.285156 85.132812 105.855469 85.953125 L 90.34375 94.878906 C 87.917969 96.210938 85.917969 97.828125 84.34375 99.738281 C 82.839844 101.558594 81.742188 103.632812 81.046875 105.957031 C 81.027344 106.003906 81.011719 106.050781 81 106.101562 L 80.949219 106.289062 C 80.910156 106.429688 80.871094 106.570312 80.835938 106.714844 L 78.507812 115.402344 L 76.761719 114.933594 C 75.847656 114.691406 74.90625 115.234375 74.660156 116.148438 L 71.355469 128.480469 C 71.109375 129.398438 71.65625 130.339844 72.570312 130.582031 L 100.050781 137.945312 C 100.964844 138.191406 101.90625 137.644531 102.152344 136.730469 L 105.457031 124.398438 C 105.699219 123.484375 105.15625 122.542969 104.238281 122.296875 L 102.496094 121.828125 L 103.273438 118.933594 C 107.960938 116.75 111.460938 115.09375 114.453125 113.625 C 117.558594 112.101562 119.910156 110.882812 122.324219 109.578125 Z M 99.179688 120.941406 L 100.164062 117.269531 C 100.289062 116.796875 100.621094 116.378906 101.101562 116.15625 C 106.371094 113.710938 110.0625 111.964844 112.949219 110.546875 C 115.851562 109.125 118.160156 107.925781 120.621094 106.597656 C 122.761719 105.125 124.425781 103.445312 125.617188 101.554688 C 126.679688 99.863281 127.375 97.992188 127.699219 95.933594 L 127.792969 95.238281 L 127.800781 95.191406 C 127.804688 95.148438 127.8125 95.109375 127.816406 95.070312 L 132.257812 62.640625 C 132.265625 62.566406 132.28125 62.496094 132.300781 62.425781 L 132.296875 62.425781 C 132.574219 61.398438 132.089844 60.546875 131.316406 60.015625 C 130.960938 59.769531 130.546875 59.582031 130.109375 59.464844 C 129.671875 59.351562 129.214844 59.308594 128.769531 59.34375 C 127.804688 59.425781 126.917969 59.96875 126.613281 61.105469 L 118.363281 91.960938 C 118.230469 92.464844 117.882812 92.855469 117.445312 93.066406 L 111.992188 96.203125 L 111.832031 96.300781 L 111.820312 96.304688 L 103.605469 101.050781 C 102.785156 101.523438 101.738281 101.246094 101.261719 100.425781 C 100.785156 99.605469 101.066406 98.554688 101.886719 98.082031 L 110.109375 93.332031 C 110.714844 92.984375 111.121094 92.417969 111.289062 91.785156 C 111.457031 91.160156 111.394531 90.476562 111.0625 89.878906 L 111.035156 89.835938 C 110.6875 89.246094 110.125 88.84375 109.5 88.675781 C 108.863281 88.507812 108.167969 88.574219 107.5625 88.921875 L 92.851562 97.386719 C 92.753906 97.472656 92.644531 97.546875 92.523438 97.605469 C 90.234375 98.785156 88.386719 100.21875 86.992188 101.914062 C 85.78125 103.378906 84.894531 105.054688 84.332031 106.933594 L 84.316406 106.988281 L 81.824219 116.289062 Z M 79.292969 119.167969 L 101.691406 125.171875 L 99.277344 134.183594 L 75.117188 127.710938 L 77.535156 118.695312 L 79.261719 119.160156 Z M 17.378906 106.597656 C 19.839844 107.925781 22.152344 109.125 25.050781 110.546875 C 27.9375 111.964844 31.628906 113.710938 36.898438 116.15625 C 37.378906 116.378906 37.710938 116.796875 37.835938 117.269531 L 37.839844 117.269531 L 38.820312 120.941406 L 56.175781 116.289062 L 53.683594 106.988281 L 53.667969 106.929688 C 53.105469 105.050781 52.21875 103.378906 51.007812 101.914062 C 49.613281 100.21875 47.769531 98.785156 45.476562 97.605469 C 45.355469 97.546875 45.246094 97.472656 45.148438 97.386719 L 30.4375 88.921875 C 29.835938 88.574219 29.136719 88.507812 28.5 88.675781 C 27.867188 88.847656 27.300781 89.25 26.957031 89.851562 L 26.953125 89.859375 L 26.902344 89.949219 L 26.902344 89.953125 L 26.894531 89.960938 C 26.601562 90.539062 26.550781 91.191406 26.710938 91.785156 C 26.878906 92.417969 27.285156 92.984375 27.890625 93.332031 L 27.894531 93.335938 L 27.984375 93.386719 L 27.992188 93.390625 L 36.113281 98.082031 C 36.933594 98.554688 37.214844 99.605469 36.738281 100.425781 C 36.261719 101.246094 35.214844 101.523438 34.394531 101.050781 L 26.277344 96.363281 C 26.207031 96.328125 26.140625 96.292969 26.078125 96.25 L 26.074219 96.246094 L 26.078125 96.246094 L 26.011719 96.207031 L 20.554688 93.066406 C 20.117188 92.855469 19.769531 92.464844 19.636719 91.960938 L 11.386719 61.105469 C 11.082031 59.96875 10.195312 59.425781 9.230469 59.34375 C 8.785156 59.304688 8.328125 59.351562 7.894531 59.464844 C 7.453125 59.582031 7.039062 59.769531 6.683594 60.015625 C 5.914062 60.546875 5.425781 61.398438 5.703125 62.425781 L 5.699219 62.425781 C 5.71875 62.496094 5.734375 62.566406 5.742188 62.640625 L 10.183594 95.070312 C 10.1875 95.109375 10.195312 95.148438 10.199219 95.191406 L 10.207031 95.253906 L 10.300781 95.921875 C 10.984375 100.261719 13.34375 103.824219 17.378906 106.597656 Z M 35.503906 121.828125 L 33.761719 122.296875 C 32.84375 122.542969 32.300781 123.484375 32.546875 124.398438 L 35.847656 136.730469 C 36.09375 137.644531 37.035156 138.191406 37.953125 137.945312 L 65.429688 130.582031 C 66.34375 130.339844 66.890625 129.398438 66.644531 128.480469 L 63.339844 116.148438 C 63.097656 115.234375 62.152344 114.691406 61.238281 114.933594 L 59.492188 115.402344 L 57.175781 106.746094 C 57.132812 106.578125 57.085938 106.414062 57.039062 106.25 L 57 106.101562 C 56.988281 106.054688 56.972656 106.007812 56.957031 105.960938 C 56.261719 103.636719 55.160156 101.5625 53.65625 99.738281 C 52.082031 97.828125 50.082031 96.210938 47.65625 94.878906 L 32.144531 85.953125 C 30.714844 85.132812 29.085938 84.964844 27.613281 85.359375 C 26.175781 85.746094 24.875 86.671875 24.042969 88.046875 L 24.039062 88.042969 C 23.980469 88.128906 23.933594 88.21875 23.894531 88.3125 C 23.496094 89.054688 23.269531 89.847656 23.207031 90.640625 L 22.769531 90.390625 L 14.703125 60.21875 C 13.957031 57.433594 11.828125 56.117188 9.515625 55.917969 C 8.691406 55.847656 7.835938 55.929688 7.019531 56.148438 C 6.203125 56.363281 5.421875 56.71875 4.734375 57.191406 C 2.863281 58.484375 1.699219 60.601562 2.359375 63.21875 L 6.78125 95.523438 L 6.785156 95.566406 C 7.433594 101.300781 10.332031 105.933594 15.480469 109.457031 L 15.484375 109.460938 L 15.515625 109.480469 L 15.519531 109.484375 L 15.589844 109.527344 L 15.59375 109.53125 L 15.628906 109.550781 L 15.632812 109.554688 L 15.667969 109.574219 L 15.671875 109.574219 L 15.675781 109.578125 C 18.089844 110.882812 20.441406 112.101562 23.546875 113.625 C 26.542969 115.09375 30.039062 116.75 34.726562 118.933594 Z M 58.730469 119.160156 L 60.464844 118.695312 L 62.882812 127.710938 L 38.722656 134.183594 L 36.308594 125.171875 L 58.714844 119.167969 Z M 49.722656 48.847656 C 49.636719 49.667969 49.859375 50.519531 50.410156 51.199219 L 62.101562 65.585938 C 62.652344 66.265625 63.4375 66.660156 64.257812 66.742188 C 65.054688 66.824219 65.882812 66.617188 66.550781 66.097656 C 66.605469 66.050781 66.667969 66.003906 66.730469 65.960938 C 66.808594 65.898438 66.886719 65.828125 66.964844 65.753906 C 67.066406 65.660156 67.15625 65.5625 67.238281 65.464844 L 75.890625 54.8125 L 75.898438 54.800781 L 78.921875 51.078125 L 87.589844 40.417969 C 88.140625 39.738281 88.363281 38.886719 88.277344 38.0625 C 88.195312 37.242188 87.800781 36.457031 87.121094 35.902344 C 86.441406 35.351562 85.589844 35.128906 84.765625 35.214844 C 83.949219 35.300781 83.160156 35.691406 82.609375 36.371094 L 74.003906 46.964844 L 73.96875 47.007812 L 73.953125 47.03125 L 73.949219 47.027344 L 73.945312 47.035156 L 70.921875 50.757812 L 65.972656 56.847656 C 65.894531 56.949219 65.804688 57.042969 65.699219 57.125 C 64.964844 57.722656 63.882812 57.613281 63.289062 56.878906 L 55.390625 47.15625 C 54.839844 46.476562 54.050781 46.085938 53.230469 46 C 52.414062 45.914062 51.5625 46.136719 50.882812 46.6875 L 50.878906 46.691406 C 50.199219 47.242188 49.804688 48.027344 49.722656 48.847656 Z M 49.722656 48.847656 " fill-opacity="1" fill-rule="evenodd"/></g></svg>