<svg xmlns="http://www.w3.org/2000/svg" xmlns:xlink="http://www.w3.org/1999/xlink" width="184" zoomAndPan="magnify" viewBox="0 0 138 137.999998" height="184" preserveAspectRatio="xMidYMid meet" version="1.0"><rect x="-13.8" width="165.6" fill="#ffffff" y="-13.8" height="165.599997" fill-opacity="1"/><rect x="-13.8" width="165.6" fill="#ffffff" y="-13.8" height="165.599997" fill-opacity="1"/><path fill="#254f7a" d="M 43.109375 137.988281 L 15.691406 137.988281 C 10.191406 137.988281 5.742188 133.460938 5.742188 127.960938 L 5.742188 119.46875 C 5.742188 118.902344 6.148438 118.335938 6.792969 118.335938 C 7.523438 118.335938 7.925781 118.820312 7.925781 119.46875 L 7.925781 127.960938 C 7.925781 132.246094 11.402344 135.804688 15.851562 135.804688 L 43.109375 135.804688 C 47.394531 135.804688 50.953125 132.328125 50.953125 127.960938 L 50.953125 24.839844 C 50.953125 24.273438 51.359375 23.707031 52.085938 23.707031 C 52.734375 23.707031 53.21875 24.195312 53.21875 24.839844 L 53.21875 127.960938 C 53.054688 133.460938 48.609375 137.988281 43.109375 137.988281 Z M 6.792969 113.320312 C 6.308594 113.320312 5.742188 112.835938 5.742188 112.1875 L 5.742188 10.039062 C 5.742188 4.539062 10.191406 0.0117188 15.691406 0.0117188 L 42.945312 0.0117188 C 48.445312 0.0117188 52.976562 4.539062 52.976562 10.039062 L 52.976562 17.078125 C 52.976562 17.640625 52.488281 18.207031 51.84375 18.207031 C 51.195312 18.207031 50.710938 17.722656 50.710938 17.078125 L 50.710938 10.039062 C 50.710938 5.753906 47.234375 2.195312 42.867188 2.195312 L 15.691406 2.195312 C 11.402344 2.195312 7.84375 5.671875 7.84375 10.039062 L 7.84375 112.1875 C 7.925781 112.753906 7.359375 113.320312 6.792969 113.320312 Z M 6.792969 113.320312 " fill-opacity="1" fill-rule="evenodd"/><path fill="#254f7a" d="M 43.109375 132.8125 L 15.691406 132.8125 C 13.019531 132.8125 10.757812 130.546875 10.757812 127.878906 L 10.757812 10.039062 C 10.757812 7.289062 13.019531 5.105469 15.691406 5.105469 L 42.945312 5.105469 C 45.695312 5.105469 47.878906 7.289062 47.878906 10.039062 L 47.878906 127.960938 C 47.878906 130.710938 45.777344 132.8125 43.109375 132.8125 Z M 15.691406 7.289062 C 14.234375 7.289062 13.019531 8.585938 13.019531 10.039062 L 13.019531 127.960938 C 13.019531 129.414062 14.234375 130.710938 15.691406 130.710938 L 42.945312 130.710938 C 44.402344 130.710938 45.695312 129.414062 45.695312 127.960938 L 45.695312 10.039062 C 45.695312 8.585938 44.402344 7.289062 42.945312 7.289062 Z M 15.691406 7.289062 " fill-opacity="1" fill-rule="evenodd"/><path fill="#254f7a" d="M 22.242188 116.234375 L 11.890625 116.234375 C 11.324219 116.234375 10.757812 115.746094 10.757812 115.101562 C 10.757812 114.371094 11.242188 113.96875 11.890625 113.96875 L 22.242188 113.96875 C 22.808594 113.96875 23.375 114.371094 23.375 115.101562 C 23.375 115.746094 22.886719 116.234375 22.242188 116.234375 Z M 22.242188 116.234375 " fill-opacity="1" fill-rule="evenodd"/><path fill="#254f7a" d="M 16.742188 122.785156 L 11.890625 122.785156 C 11.324219 122.785156 10.757812 122.378906 10.757812 121.734375 C 10.757812 121.003906 11.242188 120.601562 11.890625 120.601562 L 16.742188 120.601562 C 17.308594 120.601562 17.875 121.003906 17.875 121.734375 C 17.875 122.378906 17.390625 122.785156 16.742188 122.785156 Z M 16.742188 122.785156 " fill-opacity="1" fill-rule="evenodd"/><path fill="#254f7a" d="M 22.242188 102.078125 L 11.890625 102.078125 C 11.324219 102.078125 10.757812 101.59375 10.757812 100.945312 C 10.757812 100.300781 11.242188 99.816406 11.890625 99.816406 L 22.242188 99.816406 C 22.808594 99.816406 23.375 100.300781 23.375 100.945312 C 23.375 101.59375 22.886719 102.078125 22.242188 102.078125 Z M 22.242188 102.078125 " fill-opacity="1" fill-rule="evenodd"/><path fill="#254f7a" d="M 16.742188 108.710938 L 11.890625 108.710938 C 11.324219 108.710938 10.757812 108.226562 10.757812 107.578125 C 10.757812 106.851562 11.242188 106.445312 11.890625 106.445312 L 16.742188 106.445312 C 17.308594 106.445312 17.875 106.851562 17.875 107.578125 C 17.875 108.226562 17.390625 108.710938 16.742188 108.710938 Z M 16.742188 108.710938 " fill-opacity="1" fill-rule="evenodd"/><path fill="#254f7a" d="M 22.242188 87.925781 L 11.890625 87.925781 C 11.324219 87.925781 10.757812 87.441406 10.757812 86.792969 C 10.757812 86.144531 11.242188 85.660156 11.890625 85.660156 L 22.242188 85.660156 C 22.808594 85.660156 23.375 86.144531 23.375 86.792969 C 23.375 87.441406 22.886719 87.925781 22.242188 87.925781 Z M 22.242188 87.925781 " fill-opacity="1" fill-rule="evenodd"/><path fill="#254f7a" d="M 16.742188 94.636719 L 11.890625 94.636719 C 11.324219 94.636719 10.757812 94.234375 10.757812 93.507812 C 10.757812 92.859375 11.242188 92.375 11.890625 92.375 L 16.742188 92.375 C 17.308594 92.375 17.875 92.859375 17.875 93.507812 C 17.875 94.234375 17.390625 94.636719 16.742188 94.636719 Z M 16.742188 94.636719 " fill-opacity="1" fill-rule="evenodd"/><path fill="#254f7a" d="M 22.242188 73.773438 L 11.890625 73.773438 C 11.324219 73.773438 10.757812 73.285156 10.757812 72.640625 C 10.757812 71.992188 11.242188 71.507812 11.890625 71.507812 L 22.242188 71.507812 C 22.808594 71.507812 23.375 71.992188 23.375 72.640625 C 23.375 73.285156 22.886719 73.773438 22.242188 73.773438 Z M 22.242188 73.773438 " fill-opacity="1" fill-rule="evenodd"/><path fill="#254f7a" d="M 16.742188 80.484375 L 11.890625 80.484375 C 11.324219 80.484375 10.757812 80.082031 10.757812 79.351562 C 10.757812 78.707031 11.242188 78.21875 11.890625 78.21875 L 16.742188 78.21875 C 17.308594 78.21875 17.875 78.707031 17.875 79.351562 C 17.875 80.082031 17.390625 80.484375 16.742188 80.484375 Z M 16.742188 80.484375 " fill-opacity="1" fill-rule="evenodd"/><path fill="#254f7a" d="M 22.242188 59.617188 L 11.890625 59.617188 C 11.324219 59.617188 10.757812 59.214844 10.757812 58.484375 C 10.757812 57.839844 11.242188 57.355469 11.890625 57.355469 L 22.242188 57.355469 C 22.808594 57.355469 23.375 57.839844 23.375 58.484375 C 23.375 59.214844 22.886719 59.617188 22.242188 59.617188 Z M 22.242188 59.617188 " fill-opacity="1" fill-rule="evenodd"/><path fill="#254f7a" d="M 16.742188 66.332031 L 11.890625 66.332031 C 11.324219 66.332031 10.757812 65.925781 10.757812 65.199219 C 10.757812 64.550781 11.242188 64.148438 11.890625 64.148438 L 16.742188 64.148438 C 17.308594 64.148438 17.875 64.550781 17.875 65.28125 C 17.875 65.925781 17.390625 66.332031 16.742188 66.332031 Z M 16.742188 66.332031 " fill-opacity="1" fill-rule="evenodd"/><path fill="#254f7a" d="M 22.242188 45.464844 L 11.890625 45.464844 C 11.324219 45.464844 10.757812 45.058594 10.757812 44.332031 C 10.757812 43.683594 11.242188 43.199219 11.890625 43.199219 L 22.242188 43.199219 C 22.808594 43.199219 23.375 43.683594 23.375 44.332031 C 23.375 45.058594 22.886719 45.464844 22.242188 45.464844 Z M 22.242188 45.464844 " fill-opacity="1" fill-rule="evenodd"/><path fill="#254f7a" d="M 16.742188 52.257812 L 11.890625 52.257812 C 11.324219 52.257812 10.757812 51.773438 10.757812 51.125 C 10.757812 50.398438 11.242188 49.992188 11.890625 49.992188 L 16.742188 49.992188 C 17.308594 49.992188 17.875 50.398438 17.875 51.125 C 17.875 51.773438 17.390625 52.257812 16.742188 52.257812 Z M 16.742188 52.257812 " fill-opacity="1" fill-rule="evenodd"/><path fill="#254f7a" d="M 22.242188 31.472656 L 11.890625 31.472656 C 11.324219 31.472656 10.757812 30.988281 10.757812 30.339844 C 10.757812 29.691406 11.242188 29.207031 11.890625 29.207031 L 22.242188 29.207031 C 22.808594 29.207031 23.375 29.691406 23.375 30.339844 C 23.375 30.988281 22.886719 31.472656 22.242188 31.472656 Z M 22.242188 31.472656 " fill-opacity="1" fill-rule="evenodd"/><path fill="#254f7a" d="M 16.742188 38.105469 L 11.890625 38.105469 C 11.324219 38.105469 10.757812 37.621094 10.757812 36.972656 C 10.757812 36.246094 11.242188 35.839844 11.890625 35.839844 L 16.742188 35.839844 C 17.308594 35.839844 17.875 36.246094 17.875 36.972656 C 17.875 37.621094 17.390625 38.105469 16.742188 38.105469 Z M 16.742188 38.105469 " fill-opacity="1" fill-rule="evenodd"/><path fill="#254f7a" d="M 22.242188 17.320312 L 11.890625 17.320312 C 11.324219 17.320312 10.757812 16.832031 10.757812 16.1875 C 10.757812 15.539062 11.242188 15.054688 11.890625 15.054688 L 22.242188 15.054688 C 22.808594 15.054688 23.375 15.539062 23.375 16.1875 C 23.375 16.832031 22.886719 17.320312 22.242188 17.320312 Z M 22.242188 17.320312 " fill-opacity="1" fill-rule="evenodd"/><path fill="#254f7a" d="M 16.742188 23.949219 L 11.890625 23.949219 C 11.324219 23.949219 10.757812 23.464844 10.757812 22.820312 C 10.757812 22.171875 11.242188 21.6875 11.890625 21.6875 L 16.742188 21.6875 C 17.308594 21.6875 17.875 22.171875 17.875 22.820312 C 17.875 23.464844 17.390625 23.949219 16.742188 23.949219 Z M 16.742188 23.949219 " fill-opacity="1" fill-rule="evenodd"/><path fill="#254f7a" d="M 1.132812 48.863281 C 0.566406 48.863281 0 48.375 0 47.730469 L 0 21.039062 C 0 20.472656 0.40625 19.90625 1.132812 19.90625 C 1.78125 19.90625 2.265625 20.3125 2.265625 21.039062 L 2.265625 47.730469 C 2.101562 48.296875 1.699219 48.863281 1.132812 48.863281 Z M 1.132812 48.863281 " fill-opacity="1" fill-rule="evenodd"/><path fill="#254f7a" d="M 1.132812 15.945312 C 0.566406 15.945312 0 15.539062 0 14.8125 L 0 11.898438 C 0 11.332031 0.40625 10.769531 1.132812 10.769531 C 1.78125 10.769531 2.265625 11.253906 2.265625 11.898438 L 2.265625 14.8125 C 2.101562 15.539062 1.699219 15.945312 1.132812 15.945312 Z M 1.132812 15.945312 " fill-opacity="1" fill-rule="evenodd"/><path fill="#254f7a" d="M 57.667969 118.011719 C 57.101562 118.011719 56.535156 117.527344 56.535156 116.878906 L 56.535156 90.269531 C 56.535156 89.703125 57.019531 89.136719 57.667969 89.136719 C 58.394531 89.136719 58.796875 89.625 58.796875 90.269531 L 58.796875 116.960938 C 58.796875 117.527344 58.394531 118.011719 57.667969 118.011719 Z M 57.667969 118.011719 " fill-opacity="1" fill-rule="evenodd"/><path fill="#254f7a" d="M 57.667969 127.070312 C 57.101562 127.070312 56.535156 126.667969 56.535156 125.9375 L 56.535156 123.027344 C 56.535156 122.460938 57.019531 121.894531 57.667969 121.894531 C 58.394531 121.894531 58.796875 122.378906 58.796875 123.027344 L 58.796875 125.9375 C 58.796875 126.503906 58.394531 127.070312 57.667969 127.070312 Z M 57.667969 127.070312 " fill-opacity="1" fill-rule="evenodd"/><path fill="#254f7a" d="M 36.476562 21.929688 C 33.320312 21.929688 30.734375 19.339844 30.734375 16.265625 C 30.734375 13.195312 33.320312 10.6875 36.476562 10.6875 C 37.042969 10.6875 37.609375 11.171875 37.609375 11.820312 C 37.609375 12.464844 37.121094 12.953125 36.476562 12.953125 C 34.535156 12.953125 32.835938 14.488281 32.835938 16.429688 C 32.835938 18.289062 34.453125 19.90625 36.476562 19.90625 C 38.496094 19.90625 40.035156 18.289062 40.035156 16.429688 C 40.035156 15.863281 40.519531 15.296875 41.167969 15.296875 C 41.894531 15.296875 42.300781 15.703125 42.300781 16.429688 C 42.21875 19.421875 39.628906 21.929688 36.476562 21.929688 Z M 36.476562 21.929688 " fill-opacity="1" fill-rule="evenodd"/><path fill="#254f7a" d="M 131.425781 137.988281 L 119.050781 137.988281 C 118.484375 137.988281 117.921875 137.503906 117.921875 136.855469 C 117.921875 136.210938 118.40625 135.722656 119.050781 135.722656 L 131.425781 135.722656 C 133.773438 135.722656 135.792969 133.785156 135.792969 131.355469 L 135.792969 51.289062 C 135.792969 48.941406 133.933594 46.921875 131.425781 46.921875 L 70.039062 46.921875 C 67.695312 46.921875 65.671875 48.863281 65.671875 51.289062 L 65.671875 55.332031 C 65.671875 55.898438 65.1875 56.464844 64.539062 56.464844 C 63.894531 56.464844 63.410156 56.058594 63.410156 55.332031 L 63.410156 51.289062 C 63.410156 47.730469 66.320312 44.816406 69.878906 44.816406 L 131.347656 44.816406 C 134.90625 44.816406 137.816406 47.730469 137.816406 51.289062 L 137.816406 131.4375 C 137.976562 135.078125 134.984375 137.988281 131.425781 137.988281 Z M 110.964844 137.988281 L 70.039062 137.988281 C 66.402344 137.988281 63.488281 135.078125 63.488281 131.4375 L 63.488281 63.339844 C 63.488281 62.773438 63.972656 62.207031 64.621094 62.207031 C 65.347656 62.207031 65.753906 62.691406 65.753906 63.339844 L 65.753906 131.4375 C 65.753906 133.785156 67.695312 135.804688 70.121094 135.804688 L 110.964844 135.804688 C 111.53125 135.804688 112.097656 136.289062 112.097656 136.9375 C 112.097656 137.664062 111.53125 137.988281 110.964844 137.988281 Z M 110.964844 137.988281 " fill-opacity="1" fill-rule="evenodd"/><path fill="#254f7a" d="M 125.925781 70.292969 L 120.183594 70.292969 C 119.617188 70.292969 119.050781 69.808594 119.050781 69.160156 C 119.050781 68.515625 119.539062 68.03125 120.183594 68.03125 L 125.925781 68.03125 C 127.382812 68.03125 128.515625 66.898438 128.515625 65.441406 L 128.515625 57.273438 C 128.515625 55.816406 127.382812 54.683594 125.925781 54.683594 L 75.539062 54.683594 C 74.085938 54.683594 72.953125 55.816406 72.953125 57.273438 L 72.953125 65.441406 C 72.953125 66.898438 74.085938 68.03125 75.539062 68.03125 L 114.117188 68.03125 C 114.683594 68.03125 115.25 68.515625 115.25 69.160156 C 115.25 69.808594 114.847656 70.292969 114.117188 70.292969 L 75.539062 70.292969 C 72.953125 70.292969 70.847656 68.191406 70.847656 65.601562 L 70.847656 57.273438 C 70.847656 54.683594 72.953125 52.582031 75.539062 52.582031 L 125.847656 52.582031 C 128.433594 52.582031 130.539062 54.683594 130.539062 57.273438 L 130.539062 65.441406 C 130.539062 68.191406 128.515625 70.292969 125.925781 70.292969 Z M 125.925781 70.292969 " fill-opacity="1" fill-rule="evenodd"/><path fill="#254f7a" d="M 80.148438 85.984375 L 75.945312 85.984375 C 73.195312 85.984375 70.929688 83.71875 70.929688 80.96875 C 70.929688 78.140625 73.195312 75.875 75.945312 75.875 L 80.148438 75.875 C 82.898438 75.875 85.164062 78.140625 85.164062 80.96875 C 85.164062 83.71875 82.898438 85.984375 80.148438 85.984375 Z M 75.945312 78.058594 C 74.40625 78.058594 73.03125 79.351562 73.03125 80.96875 C 73.03125 82.507812 74.40625 83.882812 75.945312 83.882812 L 80.148438 83.882812 C 81.6875 83.882812 83.0625 82.507812 83.0625 80.96875 C 83.0625 79.351562 81.6875 78.058594 80.148438 78.058594 Z M 75.945312 78.058594 " fill-opacity="1" fill-rule="evenodd"/><path fill="#254f7a" d="M 102.796875 85.984375 L 98.671875 85.984375 C 95.839844 85.984375 93.574219 83.71875 93.574219 80.96875 C 93.574219 78.140625 95.839844 75.875 98.671875 75.875 L 102.796875 75.875 C 105.625 75.875 107.890625 78.140625 107.890625 80.96875 C 107.890625 83.71875 105.625 85.984375 102.796875 85.984375 Z M 98.671875 78.058594 C 97.054688 78.058594 95.757812 79.351562 95.757812 80.96875 C 95.757812 82.507812 97.054688 83.882812 98.671875 83.882812 L 102.796875 83.882812 C 104.414062 83.882812 105.707031 82.507812 105.707031 80.96875 C 105.707031 79.351562 104.414062 78.058594 102.796875 78.058594 Z M 98.671875 78.058594 " fill-opacity="1" fill-rule="evenodd"/><path fill="#254f7a" d="M 125.441406 85.984375 L 121.316406 85.984375 C 118.484375 85.984375 116.300781 83.71875 116.300781 80.96875 C 116.300781 78.140625 118.484375 75.875 121.316406 75.875 L 125.441406 75.875 C 128.273438 75.875 130.539062 78.140625 130.539062 80.96875 C 130.539062 83.71875 128.273438 85.984375 125.441406 85.984375 Z M 121.316406 78.058594 C 119.78125 78.058594 118.40625 79.351562 118.40625 80.96875 C 118.40625 82.507812 119.78125 83.882812 121.316406 83.882812 L 125.441406 83.882812 C 127.058594 83.882812 128.433594 82.507812 128.433594 80.96875 C 128.433594 79.351562 127.058594 78.058594 125.441406 78.058594 Z M 121.316406 78.058594 " fill-opacity="1" fill-rule="evenodd"/><path fill="#254f7a" d="M 80.148438 100.703125 L 75.945312 100.703125 C 73.195312 100.703125 70.929688 98.441406 70.929688 95.691406 C 70.929688 92.859375 73.195312 90.59375 75.945312 90.59375 L 80.148438 90.59375 C 82.898438 90.59375 85.164062 92.859375 85.164062 95.691406 C 85.164062 98.441406 82.898438 100.703125 80.148438 100.703125 Z M 75.945312 92.777344 C 74.40625 92.777344 73.03125 94.070312 73.03125 95.691406 C 73.03125 97.226562 74.40625 98.601562 75.945312 98.601562 L 80.148438 98.601562 C 81.6875 98.601562 83.0625 97.226562 83.0625 95.691406 C 83.0625 94.070312 81.6875 92.777344 80.148438 92.777344 Z M 75.945312 92.777344 " fill-opacity="1" fill-rule="evenodd"/><path fill="#254f7a" d="M 102.796875 100.703125 L 98.671875 100.703125 C 95.839844 100.703125 93.574219 98.441406 93.574219 95.691406 C 93.574219 92.859375 95.839844 90.59375 98.671875 90.59375 L 102.796875 90.59375 C 105.625 90.59375 107.890625 92.859375 107.890625 95.691406 C 107.890625 98.441406 105.625 100.703125 102.796875 100.703125 Z M 98.671875 92.777344 C 97.054688 92.777344 95.757812 94.070312 95.757812 95.691406 C 95.757812 97.226562 97.054688 98.601562 98.671875 98.601562 L 102.796875 98.601562 C 104.414062 98.601562 105.707031 97.226562 105.707031 95.691406 C 105.707031 94.070312 104.414062 92.777344 102.796875 92.777344 Z M 98.671875 92.777344 " fill-opacity="1" fill-rule="evenodd"/><path fill="#254f7a" d="M 125.441406 100.703125 L 121.316406 100.703125 C 118.484375 100.703125 116.300781 98.441406 116.300781 95.691406 C 116.300781 92.859375 118.484375 90.59375 121.316406 90.59375 L 125.441406 90.59375 C 128.273438 90.59375 130.539062 92.859375 130.539062 95.691406 C 130.539062 98.441406 128.273438 100.703125 125.441406 100.703125 Z M 121.316406 92.777344 C 119.78125 92.777344 118.40625 94.070312 118.40625 95.691406 C 118.40625 97.226562 119.78125 98.601562 121.316406 98.601562 L 125.441406 98.601562 C 127.058594 98.601562 128.433594 97.226562 128.433594 95.691406 C 128.433594 94.070312 127.058594 92.777344 125.441406 92.777344 Z M 121.316406 92.777344 " fill-opacity="1" fill-rule="evenodd"/><path fill="#254f7a" d="M 80.148438 115.425781 L 75.945312 115.425781 C 73.195312 115.425781 70.929688 113.160156 70.929688 110.328125 C 70.929688 107.578125 73.195312 105.3125 75.945312 105.3125 L 80.148438 105.3125 C 82.898438 105.3125 85.164062 107.578125 85.164062 110.328125 C 85.164062 113.160156 82.898438 115.425781 80.148438 115.425781 Z M 75.945312 107.417969 C 74.40625 107.417969 73.03125 108.792969 73.03125 110.328125 C 73.03125 111.945312 74.40625 113.320312 75.945312 113.320312 L 80.148438 113.320312 C 81.6875 113.320312 83.0625 111.945312 83.0625 110.328125 C 83.0625 108.792969 81.6875 107.417969 80.148438 107.417969 Z M 75.945312 107.417969 " fill-opacity="1" fill-rule="evenodd"/><path fill="#254f7a" d="M 102.796875 115.425781 L 98.671875 115.425781 C 95.839844 115.425781 93.574219 113.160156 93.574219 110.328125 C 93.574219 107.578125 95.839844 105.3125 98.671875 105.3125 L 102.796875 105.3125 C 105.625 105.3125 107.890625 107.578125 107.890625 110.328125 C 107.890625 113.160156 105.625 115.425781 102.796875 115.425781 Z M 98.671875 107.417969 C 97.054688 107.417969 95.757812 108.792969 95.757812 110.328125 C 95.757812 111.945312 97.054688 113.320312 98.671875 113.320312 L 102.796875 113.320312 C 104.414062 113.320312 105.707031 111.945312 105.707031 110.328125 C 105.707031 108.792969 104.414062 107.417969 102.796875 107.417969 Z M 98.671875 107.417969 " fill-opacity="1" fill-rule="evenodd"/><path fill="#254f7a" d="M 102.796875 130.144531 L 75.945312 130.144531 C 73.195312 130.144531 70.929688 127.878906 70.929688 125.046875 C 70.929688 122.296875 73.195312 120.035156 75.945312 120.035156 L 102.796875 120.035156 C 105.625 120.035156 107.890625 122.296875 107.890625 125.046875 C 107.890625 127.878906 105.625 130.144531 102.796875 130.144531 Z M 75.945312 122.054688 C 74.40625 122.054688 73.03125 123.351562 73.03125 124.96875 C 73.03125 126.503906 74.40625 127.878906 75.945312 127.878906 L 102.796875 127.878906 C 104.414062 127.878906 105.707031 126.503906 105.707031 124.96875 C 105.707031 123.351562 104.414062 122.054688 102.796875 122.054688 Z M 75.945312 122.054688 " fill-opacity="1" fill-rule="evenodd"/><path fill="#254f7a" d="M 123.417969 130.144531 C 120.671875 130.144531 118.40625 127.878906 118.40625 125.046875 L 118.40625 110.492188 C 118.40625 107.660156 120.671875 105.394531 123.417969 105.394531 C 126.25 105.394531 128.515625 107.660156 128.515625 110.492188 L 128.515625 125.046875 C 128.515625 127.878906 126.25 130.144531 123.417969 130.144531 Z M 123.417969 107.417969 C 121.882812 107.417969 120.507812 108.792969 120.507812 110.328125 L 120.507812 124.96875 C 120.507812 126.503906 121.882812 127.878906 123.417969 127.878906 C 125.039062 127.878906 126.414062 126.503906 126.414062 124.96875 L 126.414062 110.328125 C 126.414062 108.792969 125.039062 107.417969 123.417969 107.417969 Z M 123.417969 107.417969 " fill-opacity="1" fill-rule="evenodd"/><path fill="#254f7a" d="M 125.925781 46.921875 C 125.359375 46.921875 124.792969 46.515625 124.792969 45.789062 L 124.792969 37.941406 C 124.792969 37.375 125.28125 36.8125 125.925781 36.8125 C 126.574219 36.8125 127.058594 37.296875 127.058594 37.941406 L 127.058594 45.789062 C 127.058594 46.515625 126.492188 46.921875 125.925781 46.921875 Z M 106.191406 46.921875 C 105.625 46.921875 105.058594 46.515625 105.058594 45.789062 L 105.058594 19.421875 C 105.058594 18.855469 105.464844 18.289062 106.191406 18.289062 L 125.925781 18.289062 C 126.492188 18.289062 127.058594 18.773438 127.058594 19.421875 L 127.058594 30.339844 C 127.058594 30.90625 126.574219 31.472656 125.925781 31.472656 C 125.28125 31.472656 124.792969 30.988281 124.792969 30.339844 L 124.792969 20.554688 L 107.324219 20.554688 L 107.324219 45.949219 C 107.324219 46.515625 106.757812 46.921875 106.191406 46.921875 Z M 106.191406 46.921875 " fill-opacity="1" fill-rule="evenodd"/><path fill="#254f7a" d="M 125.925781 20.554688 L 106.191406 20.554688 C 105.871094 20.554688 105.382812 20.3125 105.304688 19.988281 C 105.140625 19.664062 105.058594 19.339844 105.304688 19.015625 L 115.171875 0.65625 C 115.414062 0.335938 115.738281 0.171875 116.058594 0.171875 C 116.464844 0.171875 116.867188 0.335938 116.949219 0.65625 L 126.816406 19.015625 C 127.058594 19.339844 127.058594 19.746094 126.816406 19.988281 C 126.574219 20.3125 126.25 20.554688 125.925781 20.554688 Z M 107.972656 18.289062 L 124.148438 18.289062 L 116.058594 3.40625 Z M 107.972656 18.289062 " fill-opacity="1" fill-rule="evenodd"/><path fill="#254f7a" d="M 121.074219 11.578125 L 110.882812 11.578125 C 110.558594 11.578125 110.074219 11.332031 109.992188 11.011719 C 109.914062 10.6875 109.75 10.363281 109.992188 10.039062 L 115.007812 0.578125 C 115.25 0.253906 115.574219 0.0117188 115.898438 0.0117188 C 116.382812 0.0117188 116.707031 0.253906 116.867188 0.578125 L 121.882812 10.039062 C 122.125 10.363281 122.125 10.769531 121.882812 11.011719 C 121.882812 11.496094 121.558594 11.578125 121.074219 11.578125 Z M 112.824219 9.472656 L 119.296875 9.472656 L 116.058594 3.40625 Z M 112.824219 9.472656 " fill-opacity="1" fill-rule="evenodd"/><path fill="#254f7a" d="M 95.273438 46.921875 C 94.707031 46.921875 94.140625 46.515625 94.140625 45.789062 L 94.140625 17.398438 L 76.671875 17.398438 L 76.671875 28.5625 C 76.671875 29.128906 76.1875 29.691406 75.539062 29.691406 C 74.894531 29.691406 74.40625 29.207031 74.40625 28.5625 L 74.40625 16.429688 C 74.40625 15.863281 74.894531 15.296875 75.539062 15.296875 L 95.273438 15.296875 C 95.839844 15.296875 96.40625 15.703125 96.40625 16.429688 L 96.40625 45.949219 C 96.324219 46.515625 95.839844 46.921875 95.273438 46.921875 Z M 75.539062 46.921875 C 74.972656 46.921875 74.40625 46.515625 74.40625 45.789062 L 74.40625 34.789062 C 74.40625 34.222656 74.894531 33.738281 75.539062 33.738281 C 76.1875 33.738281 76.671875 34.140625 76.671875 34.789062 L 76.671875 45.789062 C 76.671875 46.515625 76.105469 46.921875 75.539062 46.921875 Z M 75.539062 46.921875 " fill-opacity="1" fill-rule="evenodd"/><path fill="#254f7a" d="M 95.273438 17.398438 L 75.539062 17.398438 C 74.972656 17.398438 74.40625 16.996094 74.40625 16.265625 L 74.40625 5.269531 C 74.40625 2.355469 76.753906 0.0117188 79.664062 0.0117188 L 90.988281 0.0117188 C 93.898438 0.0117188 96.324219 2.355469 96.324219 5.269531 L 96.324219 16.429688 C 96.324219 16.996094 95.839844 17.398438 95.273438 17.398438 Z M 76.671875 15.296875 L 94.304688 15.296875 L 94.304688 5.269531 C 94.304688 3.652344 92.929688 2.195312 91.148438 2.195312 L 79.664062 2.195312 C 77.964844 2.195312 76.511719 3.488281 76.511719 5.269531 L 76.511719 15.296875 Z M 76.671875 15.296875 " fill-opacity="1" fill-rule="evenodd"/><path fill="#254f7a" d="M 119.214844 46.921875 C 118.648438 46.921875 118.082031 46.515625 118.082031 45.789062 L 118.082031 32.199219 C 118.082031 31.714844 118.484375 31.148438 119.214844 31.148438 C 119.859375 31.148438 120.347656 31.554688 120.347656 32.199219 L 120.347656 45.949219 C 120.347656 46.515625 119.859375 46.921875 119.214844 46.921875 Z M 119.214844 46.921875 " fill-opacity="1" fill-rule="evenodd"/><path fill="#254f7a" d="M 112.582031 46.921875 C 112.015625 46.921875 111.449219 46.515625 111.449219 45.789062 L 111.449219 42.796875 C 111.449219 42.230469 111.933594 41.664062 112.582031 41.664062 C 113.230469 41.664062 113.714844 42.148438 113.714844 42.796875 L 113.714844 45.789062 C 113.714844 46.515625 113.230469 46.921875 112.582031 46.921875 Z M 112.582031 38.671875 C 112.015625 38.671875 111.449219 38.183594 111.449219 37.539062 L 111.449219 31.796875 C 111.449219 31.230469 111.933594 30.664062 112.582031 30.664062 C 113.230469 30.664062 113.714844 31.148438 113.714844 31.796875 L 113.714844 37.539062 C 113.714844 38.183594 113.230469 38.671875 112.582031 38.671875 Z M 112.582031 38.671875 " fill-opacity="1" fill-rule="evenodd"/><path fill="#254f7a" d="M 88.5625 46.921875 C 87.996094 46.921875 87.429688 46.515625 87.429688 45.789062 L 87.429688 39.074219 C 87.429688 38.507812 87.914062 37.941406 88.5625 37.941406 C 89.207031 37.941406 89.695312 38.429688 89.695312 39.074219 L 89.695312 45.789062 C 89.695312 46.515625 89.207031 46.921875 88.5625 46.921875 Z M 88.5625 34.949219 C 87.996094 34.949219 87.429688 34.464844 87.429688 33.816406 L 87.429688 28.074219 C 87.429688 27.507812 87.914062 26.945312 88.5625 26.945312 C 89.207031 26.945312 89.695312 27.429688 89.695312 28.074219 L 89.695312 33.816406 C 89.695312 34.464844 89.207031 34.949219 88.5625 34.949219 Z M 88.5625 34.949219 " fill-opacity="1" fill-rule="evenodd"/><path fill="#254f7a" d="M 81.929688 46.921875 C 81.363281 46.921875 80.796875 46.515625 80.796875 45.789062 L 80.796875 28.5625 C 80.796875 27.996094 81.28125 27.429688 81.929688 27.429688 C 82.578125 27.429688 83.0625 27.832031 83.0625 28.5625 L 83.0625 45.949219 C 83.0625 46.515625 82.578125 46.921875 81.929688 46.921875 Z M 81.929688 46.921875 " fill-opacity="1" fill-rule="evenodd"/><path fill="#254f7a" d="M 90.339844 11.898438 L 75.539062 11.898438 C 74.972656 11.898438 74.40625 11.496094 74.40625 10.769531 C 74.40625 10.121094 74.894531 9.714844 75.539062 9.714844 L 90.339844 9.714844 C 90.90625 9.714844 91.472656 10.121094 91.472656 10.769531 C 91.472656 11.496094 90.90625 11.898438 90.339844 11.898438 Z M 90.339844 11.898438 " fill-opacity="1" fill-rule="evenodd"/></svg>