<svg xmlns="http://www.w3.org/2000/svg" xmlns:xlink="http://www.w3.org/1999/xlink" width="184" zoomAndPan="magnify" viewBox="0 0 138 137.999998" height="184" preserveAspectRatio="xMidYMid meet" version="1.0"><defs><clipPath id="4b6ee51541"><path d="M 1.898438 74 L 62 74 L 62 135 L 1.898438 135 Z M 1.898438 74 " clip-rule="nonzero"/></clipPath><clipPath id="2803ada2f5"><path d="M 113 0 L 136.148438 0 L 136.148438 116 L 113 116 Z M 113 0 " clip-rule="nonzero"/></clipPath><clipPath id="f3ebe1cbce"><path d="M 113 112 L 136.148438 112 L 136.148438 138 L 113 138 Z M 113 112 " clip-rule="nonzero"/></clipPath><clipPath id="07013592c0"><path d="M 113 17 L 136.148438 17 L 136.148438 30 L 113 30 Z M 113 17 " clip-rule="nonzero"/></clipPath></defs><rect x="-13.8" width="165.6" fill="#ffffff" y="-13.8" height="165.599997" fill-opacity="1"/><rect x="-13.8" width="165.6" fill="#ffffff" y="-13.8" height="165.599997" fill-opacity="1"/><path fill="#254f7a" d="M 21.539062 30.753906 L 110.203125 119.417969 C 110.851562 120.066406 110.851562 121.117188 110.203125 121.683594 L 94.441406 137.441406 C 93.796875 138.089844 92.828125 138.089844 92.179688 137.441406 L 3.515625 48.859375 C 2.867188 48.210938 2.867188 47.160156 3.515625 46.515625 L 19.273438 30.753906 C 19.921875 30.105469 20.890625 30.105469 21.539062 30.753906 Z M 106.808594 120.550781 L 20.40625 34.230469 L 6.910156 47.644531 L 93.3125 134.046875 Z M 106.808594 120.550781 " fill-opacity="1" fill-rule="nonzero"/><path fill="#254f7a" d="M 23.800781 66.800781 C 23.15625 67.449219 22.105469 67.449219 21.457031 66.800781 C 20.8125 66.15625 20.8125 65.105469 21.457031 64.539062 L 26.871094 59.125 C 27.4375 58.476562 28.488281 58.476562 29.136719 59.125 C 29.78125 59.769531 29.78125 60.820312 29.136719 61.386719 Z M 23.800781 66.800781 " fill-opacity="1" fill-rule="nonzero"/><path fill="#254f7a" d="M 13.214844 56.214844 C 12.566406 56.859375 11.597656 56.859375 10.949219 56.214844 C 10.304688 55.648438 10.304688 54.597656 10.949219 53.949219 L 14.425781 50.476562 C 15.070312 49.828125 16.042969 49.828125 16.6875 50.476562 C 17.335938 51.121094 17.335938 52.171875 16.6875 52.738281 Z M 13.214844 56.214844 " fill-opacity="1" fill-rule="nonzero"/><path fill="#254f7a" d="M 18.464844 61.546875 C 17.820312 62.195312 16.851562 62.195312 16.203125 61.546875 C 15.558594 60.902344 15.558594 59.851562 16.203125 59.203125 L 19.679688 55.726562 C 20.324219 55.164062 21.375 55.164062 21.941406 55.726562 C 22.589844 56.375 22.589844 57.425781 21.941406 58.074219 Z M 18.464844 61.546875 " fill-opacity="1" fill-rule="nonzero"/><path fill="#254f7a" d="M 39.5625 82.644531 C 38.914062 83.210938 37.945312 83.210938 37.300781 82.644531 C 36.652344 81.996094 36.652344 80.945312 37.300781 80.300781 L 42.632812 74.964844 C 43.28125 74.316406 44.332031 74.316406 44.976562 74.964844 C 45.542969 75.613281 45.542969 76.582031 44.976562 77.226562 Z M 39.5625 82.644531 " fill-opacity="1" fill-rule="nonzero"/><path fill="#254f7a" d="M 29.054688 72.054688 C 28.410156 72.703125 27.359375 72.703125 26.710938 72.054688 C 26.144531 71.410156 26.144531 70.4375 26.710938 69.792969 L 30.1875 66.316406 C 30.832031 65.671875 31.882812 65.671875 32.53125 66.316406 C 33.175781 66.964844 33.175781 67.933594 32.53125 68.578125 Z M 29.054688 72.054688 " fill-opacity="1" fill-rule="nonzero"/><path fill="#254f7a" d="M 34.308594 77.308594 C 33.660156 77.957031 32.609375 77.957031 32.046875 77.308594 C 31.398438 76.742188 31.398438 75.691406 32.046875 75.046875 L 35.519531 71.570312 C 36.085938 70.921875 37.136719 70.921875 37.785156 71.570312 C 38.429688 72.21875 38.429688 73.269531 37.785156 73.832031 Z M 34.308594 77.308594 " fill-opacity="1" fill-rule="nonzero"/><path fill="#254f7a" d="M 55.402344 98.40625 C 54.757812 99.050781 53.707031 99.050781 53.140625 98.40625 C 52.496094 97.757812 52.496094 96.789062 53.140625 96.140625 L 58.476562 90.808594 C 59.121094 90.160156 60.09375 90.160156 60.738281 90.808594 C 61.386719 91.371094 61.386719 92.421875 60.738281 93.070312 Z M 55.402344 98.40625 " fill-opacity="1" fill-rule="nonzero"/><path fill="#254f7a" d="M 44.816406 87.898438 C 44.25 88.542969 43.199219 88.542969 42.554688 87.898438 C 41.90625 87.25 41.90625 86.199219 42.554688 85.632812 L 46.027344 82.078125 C 46.675781 81.511719 47.726562 81.511719 48.292969 82.078125 C 48.9375 82.722656 48.9375 83.773438 48.292969 84.421875 Z M 44.816406 87.898438 " fill-opacity="1" fill-rule="nonzero"/><path fill="#254f7a" d="M 50.152344 93.152344 C 49.503906 93.796875 48.453125 93.796875 47.804688 93.152344 C 47.242188 92.503906 47.242188 91.535156 47.804688 90.886719 L 51.28125 87.410156 C 51.929688 86.765625 52.980469 86.765625 53.625 87.410156 C 54.191406 88.058594 54.191406 89.027344 53.625 89.675781 Z M 50.152344 93.152344 " fill-opacity="1" fill-rule="nonzero"/><path fill="#254f7a" d="M 71.164062 114.246094 C 70.597656 114.894531 69.546875 114.894531 68.902344 114.246094 C 68.253906 113.601562 68.253906 112.550781 68.902344 111.984375 L 74.316406 106.566406 C 74.882812 105.921875 75.933594 105.921875 76.582031 106.566406 C 77.226562 107.214844 77.226562 108.265625 76.582031 108.832031 Z M 71.164062 114.246094 " fill-opacity="1" fill-rule="nonzero"/><path fill="#254f7a" d="M 60.65625 103.65625 C 60.011719 104.304688 59.042969 104.304688 58.394531 103.65625 C 57.75 103.09375 57.75 102.042969 58.394531 101.394531 L 61.871094 97.917969 C 62.515625 97.273438 63.488281 97.273438 64.132812 97.917969 C 64.78125 98.566406 64.78125 99.617188 64.132812 100.183594 Z M 60.65625 103.65625 " fill-opacity="1" fill-rule="nonzero"/><path fill="#254f7a" d="M 65.910156 108.992188 C 65.265625 109.558594 64.296875 109.558594 63.648438 108.992188 C 63 108.347656 63 107.296875 63.648438 106.648438 L 67.125 103.171875 C 67.769531 102.605469 68.742188 102.605469 69.386719 103.171875 C 70.035156 103.820312 70.035156 104.871094 69.386719 105.515625 Z M 65.910156 108.992188 " fill-opacity="1" fill-rule="nonzero"/><path fill="#254f7a" d="M 87.007812 130.089844 C 86.359375 130.652344 85.390625 130.652344 84.742188 130.089844 C 84.097656 129.441406 84.097656 128.390625 84.742188 127.746094 L 90.078125 122.410156 C 90.726562 121.761719 91.777344 121.761719 92.421875 122.410156 C 92.988281 123.054688 92.988281 124.027344 92.421875 124.671875 Z M 87.007812 130.089844 " fill-opacity="1" fill-rule="nonzero"/><path fill="#254f7a" d="M 76.5 119.5 C 75.851562 120.148438 74.800781 120.148438 74.15625 119.5 C 73.589844 118.851562 73.589844 117.882812 74.15625 117.238281 L 77.632812 113.761719 C 78.277344 113.113281 79.328125 113.113281 79.976562 113.761719 C 80.621094 114.40625 80.621094 115.378906 79.976562 116.023438 Z M 76.5 119.5 " fill-opacity="1" fill-rule="nonzero"/><path fill="#254f7a" d="M 81.753906 124.753906 C 81.105469 125.398438 80.054688 125.398438 79.492188 124.753906 C 78.84375 124.1875 78.84375 123.136719 79.492188 122.492188 L 82.964844 119.015625 C 83.53125 118.367188 84.582031 118.367188 85.230469 119.015625 C 85.875 119.660156 85.875 120.710938 85.230469 121.277344 Z M 81.753906 124.753906 " fill-opacity="1" fill-rule="nonzero"/><path fill="#254f7a" d="M 23.882812 40.613281 C 24.769531 41.503906 25.175781 42.632812 25.175781 43.765625 C 25.175781 44.816406 24.769531 45.949219 23.882812 46.835938 C 23.882812 46.835938 23.800781 46.917969 23.800781 46.917969 C 22.914062 47.726562 21.863281 48.128906 20.8125 48.128906 C 19.679688 48.128906 18.546875 47.726562 17.660156 46.835938 C 16.769531 45.949219 16.367188 44.816406 16.367188 43.765625 C 16.367188 42.632812 16.769531 41.503906 17.660156 40.613281 C 18.546875 39.726562 19.679688 39.320312 20.8125 39.320312 C 21.863281 39.320312 22.992188 39.726562 23.882812 40.613281 Z M 23.882812 40.613281 " fill-opacity="1" fill-rule="nonzero"/><g clip-path="url(#4b6ee51541)"><path fill="#254f7a" d="M 3.835938 81.269531 L 8.363281 76.742188 C 9.65625 75.449219 11.433594 74.804688 13.132812 74.804688 C 14.828125 74.804688 16.527344 75.449219 17.820312 76.742188 L 61.464844 120.390625 L 59.203125 122.652344 C 58.070312 121.601562 56.617188 121.117188 55 121.199219 C 53.382812 121.277344 51.765625 122.003906 50.394531 123.378906 C 49.101562 124.671875 48.371094 126.371094 48.292969 127.988281 C 48.128906 129.523438 48.613281 130.976562 49.746094 132.109375 L 47.484375 134.371094 L 3.835938 90.726562 C 2.542969 89.433594 1.898438 87.734375 1.898438 86.039062 C 1.898438 84.339844 2.542969 82.644531 3.835938 81.269531 Z M 3.835938 81.269531 " fill-opacity="1" fill-rule="nonzero"/></g><path fill="#254f7a" d="M 48.128906 121.035156 C 50.070312 119.175781 52.496094 118.125 54.839844 117.964844 C 57.261719 117.800781 59.6875 118.609375 61.464844 120.390625 C 63.246094 122.167969 64.050781 124.511719 63.890625 127.015625 C 63.730469 129.359375 62.679688 131.785156 60.738281 133.726562 C 58.878906 135.585938 56.453125 136.636719 54.03125 136.796875 C 51.605469 136.957031 49.179688 136.148438 47.484375 134.371094 C 45.703125 132.59375 44.898438 130.167969 45.058594 127.746094 C 45.21875 125.398438 46.191406 122.976562 48.128906 121.035156 Z M 55 121.199219 C 53.382812 121.277344 51.765625 122.003906 50.394531 123.378906 C 49.101562 124.671875 48.371094 126.371094 48.292969 127.988281 C 48.128906 129.523438 48.613281 130.976562 49.746094 132.109375 C 50.796875 133.160156 52.332031 133.644531 53.867188 133.5625 C 55.484375 133.484375 57.183594 132.753906 58.476562 131.382812 C 59.847656 130.089844 60.578125 128.390625 60.65625 126.773438 C 60.738281 125.238281 60.253906 123.785156 59.203125 122.652344 C 58.070312 121.601562 56.617188 121.117188 55 121.199219 Z M 55 121.199219 " fill-opacity="1" fill-rule="nonzero"/><g clip-path="url(#2803ada2f5)"><path fill="#254f7a" d="M 113.113281 11.515625 C 113.113281 8.363281 114.40625 5.453125 116.507812 3.351562 C 118.527344 1.332031 121.4375 0.0390625 124.589844 0.0390625 C 127.742188 0.0390625 130.652344 1.332031 132.671875 3.351562 C 134.773438 5.453125 136.066406 8.363281 136.066406 11.515625 L 136.066406 114.003906 C 136.066406 114.894531 135.339844 115.621094 134.453125 115.621094 L 114.730469 115.621094 C 113.839844 115.621094 113.113281 114.894531 113.113281 114.003906 Z M 118.773438 5.695312 C 117.234375 7.152344 116.347656 9.253906 116.347656 11.515625 L 116.347656 112.386719 L 132.835938 112.386719 L 132.835938 11.515625 C 132.835938 9.253906 131.945312 7.152344 130.410156 5.695312 C 128.957031 4.160156 126.855469 3.273438 124.589844 3.273438 C 122.328125 3.273438 120.226562 4.160156 118.773438 5.695312 Z M 118.773438 5.695312 " fill-opacity="1" fill-rule="nonzero"/></g><g clip-path="url(#f3ebe1cbce)"><path fill="#254f7a" d="M 135.988281 114.652344 L 132.351562 122.734375 L 116.832031 122.734375 L 113.277344 114.730469 C 113.195312 114.488281 113.113281 114.246094 113.113281 114.003906 C 113.113281 113.113281 113.839844 112.386719 114.730469 112.386719 L 134.453125 112.386719 C 134.695312 112.386719 134.9375 112.386719 135.097656 112.46875 C 135.90625 112.871094 136.3125 113.84375 135.988281 114.652344 Z M 130.976562 125.964844 L 126.046875 136.957031 C 125.882812 137.363281 125.640625 137.6875 125.238281 137.847656 C 124.429688 138.171875 123.460938 137.765625 123.136719 136.957031 L 118.207031 125.964844 Z M 130.976562 125.964844 " fill-opacity="1" fill-rule="nonzero"/></g><g clip-path="url(#07013592c0)"><path fill="#254f7a" d="M 114.730469 17.175781 L 134.453125 17.175781 C 135.339844 17.175781 136.066406 17.902344 136.066406 18.792969 L 136.066406 28.246094 C 136.066406 29.21875 135.339844 29.863281 134.453125 29.863281 L 114.730469 29.863281 C 113.839844 29.863281 113.113281 29.21875 113.113281 28.246094 L 113.113281 18.792969 C 113.113281 17.902344 113.839844 17.175781 114.730469 17.175781 Z M 114.730469 17.175781 " fill-opacity="1" fill-rule="nonzero"/></g><path fill="#254f7a" d="M 122.972656 28.246094 C 122.972656 27.359375 123.703125 26.632812 124.589844 26.632812 C 125.480469 26.632812 126.207031 27.359375 126.207031 28.246094 L 126.207031 114.003906 C 126.207031 114.894531 125.480469 115.621094 124.589844 115.621094 C 123.703125 115.621094 122.972656 114.894531 122.972656 114.003906 Z M 122.972656 28.246094 " fill-opacity="1" fill-rule="nonzero"/><path fill="#254f7a" d="M 23.316406 17.253906 C 33.175781 7.394531 46.027344 2.546875 58.878906 2.546875 C 71.730469 2.546875 84.582031 7.394531 94.363281 17.253906 C 104.222656 27.035156 109.074219 39.886719 109.074219 52.738281 C 109.074219 65.589844 104.222656 78.519531 94.363281 88.300781 C 93.796875 88.949219 92.746094 88.949219 92.097656 88.300781 L 23.316406 19.519531 C 22.667969 18.871094 22.667969 17.902344 23.316406 17.253906 Z M 58.878906 5.777344 C 47.320312 5.777344 35.761719 9.980469 26.792969 18.386719 L 93.230469 84.824219 C 101.636719 75.855469 105.839844 64.296875 105.839844 52.738281 C 105.839844 40.695312 101.3125 28.734375 92.097656 19.519531 C 82.886719 10.304688 70.921875 5.777344 58.878906 5.777344 Z M 58.878906 5.777344 " fill-opacity="1" fill-rule="nonzero"/><path fill="#254f7a" d="M 90.160156 66.882812 L 44.734375 21.539062 L 44.734375 21.457031 C 44.574219 21.378906 44.492188 21.136719 44.410156 20.972656 C 44.007812 20.164062 44.410156 19.195312 45.300781 18.871094 C 51.929688 16.203125 59.285156 15.558594 66.234375 17.011719 C 73.023438 18.386719 79.410156 21.699219 84.664062 26.953125 C 89.917969 32.207031 93.230469 38.59375 94.605469 45.382812 C 96.058594 52.332031 95.414062 59.609375 92.828125 66.234375 C 92.746094 66.476562 92.585938 66.722656 92.421875 66.882812 C 91.777344 67.527344 90.726562 67.527344 90.160156 66.882812 Z M 90.160156 66.882812 " fill-opacity="1" fill-rule="nonzero"/><path fill="#254f7a" d="M 92.097656 17.253906 C 92.746094 16.609375 93.796875 16.609375 94.363281 17.253906 C 95.007812 17.902344 95.007812 18.871094 94.363281 19.519531 L 91.128906 22.75 C 90.484375 23.398438 89.511719 23.398438 88.867188 22.75 C 88.21875 22.105469 88.21875 21.136719 88.867188 20.488281 Z M 92.097656 17.253906 " fill-opacity="1" fill-rule="nonzero"/><path fill="#254f7a" d="M 100.183594 27.035156 C 100.910156 26.632812 101.960938 26.875 102.363281 27.683594 C 102.847656 28.410156 102.527344 29.378906 101.796875 29.863281 L 97.835938 32.128906 C 97.03125 32.613281 96.058594 32.289062 95.574219 31.5625 C 95.171875 30.753906 95.414062 29.785156 96.222656 29.378906 Z M 100.183594 27.035156 " fill-opacity="1" fill-rule="nonzero"/><path fill="#254f7a" d="M 105.433594 38.59375 C 106.242188 38.351562 107.132812 38.917969 107.375 39.726562 C 107.617188 40.613281 107.132812 41.503906 106.242188 41.746094 L 101.796875 42.957031 C 100.988281 43.121094 100.101562 42.632812 99.859375 41.746094 C 99.617188 40.9375 100.101562 40.046875 100.988281 39.804688 Z M 105.433594 38.59375 " fill-opacity="1" fill-rule="nonzero"/><path fill="#254f7a" d="M 107.457031 51.121094 C 108.34375 51.121094 109.074219 51.847656 109.074219 52.738281 C 109.074219 53.625 108.34375 54.355469 107.457031 54.355469 L 102.929688 54.355469 C 102.039062 54.355469 101.3125 53.625 101.3125 52.738281 C 101.3125 51.847656 102.039062 51.121094 102.929688 51.121094 Z M 107.457031 51.121094 " fill-opacity="1" fill-rule="nonzero"/><path fill="#254f7a" d="M 106.242188 63.8125 C 107.132812 64.054688 107.617188 64.941406 107.375 65.75 C 107.132812 66.640625 106.242188 67.125 105.433594 66.882812 L 100.988281 65.75 C 100.101562 65.507812 99.617188 64.621094 99.859375 63.730469 C 100.101562 62.921875 100.988281 62.355469 101.796875 62.597656 Z M 106.242188 63.8125 " fill-opacity="1" fill-rule="nonzero"/><path fill="#254f7a" d="M 101.796875 75.691406 C 102.527344 76.097656 102.847656 77.148438 102.363281 77.875 C 101.960938 78.683594 100.910156 78.925781 100.183594 78.441406 L 96.222656 76.175781 C 95.414062 75.773438 95.171875 74.722656 95.574219 73.996094 C 96.058594 73.1875 97.03125 72.945312 97.835938 73.429688 Z M 101.796875 75.691406 " fill-opacity="1" fill-rule="nonzero"/><path fill="#254f7a" d="M 33.175781 11.4375 C 32.691406 10.707031 32.933594 9.65625 33.742188 9.253906 C 34.550781 8.769531 35.519531 9.09375 35.925781 9.820312 L 38.1875 13.78125 C 38.671875 14.589844 38.429688 15.558594 37.621094 16.042969 C 36.894531 16.445312 35.84375 16.203125 35.441406 15.394531 Z M 33.175781 11.4375 " fill-opacity="1" fill-rule="nonzero"/><path fill="#254f7a" d="M 44.734375 6.183594 C 44.492188 5.375 44.976562 4.484375 45.867188 4.242188 C 46.753906 4 47.5625 4.484375 47.804688 5.375 L 49.019531 9.820312 C 49.261719 10.628906 48.695312 11.515625 47.886719 11.757812 C 47 12 46.109375 11.515625 45.867188 10.628906 Z M 44.734375 6.183594 " fill-opacity="1" fill-rule="nonzero"/><path fill="#254f7a" d="M 57.261719 4.160156 C 57.261719 3.273438 57.992188 2.546875 58.878906 2.546875 C 59.769531 2.546875 60.496094 3.273438 60.496094 4.160156 L 60.496094 8.6875 C 60.496094 9.578125 59.769531 10.304688 58.878906 10.304688 C 57.992188 10.304688 57.261719 9.578125 57.261719 8.6875 Z M 57.261719 4.160156 " fill-opacity="1" fill-rule="nonzero"/><path fill="#254f7a" d="M 69.871094 5.375 C 70.113281 4.484375 71.003906 4 71.894531 4.242188 C 72.699219 4.484375 73.265625 5.375 73.023438 6.183594 L 71.8125 10.628906 C 71.570312 11.515625 70.679688 12 69.871094 11.757812 C 68.984375 11.515625 68.496094 10.628906 68.660156 9.820312 Z M 69.871094 5.375 " fill-opacity="1" fill-rule="nonzero"/><path fill="#254f7a" d="M 81.753906 9.820312 C 82.238281 9.09375 83.207031 8.769531 84.015625 9.253906 C 84.742188 9.65625 84.988281 10.707031 84.582031 11.4375 L 82.238281 15.394531 C 81.835938 16.203125 80.863281 16.445312 80.054688 16.042969 C 79.328125 15.558594 79.003906 14.589844 79.492188 13.78125 Z M 81.753906 9.820312 " fill-opacity="1" fill-rule="nonzero"/><path fill="#254f7a" d="M 45.542969 39.402344 C 44.898438 40.046875 43.847656 40.046875 43.199219 39.402344 C 42.632812 38.753906 42.632812 37.785156 43.199219 37.136719 L 46.511719 33.824219 C 47.160156 33.257812 48.128906 33.257812 48.777344 33.824219 C 49.421875 34.472656 49.421875 35.523438 48.777344 36.167969 Z M 45.542969 39.402344 " fill-opacity="1" fill-rule="nonzero"/><path fill="#254f7a" d="M 31.074219 24.933594 C 30.429688 25.582031 29.378906 25.582031 28.730469 24.933594 C 28.085938 24.289062 28.085938 23.316406 28.730469 22.671875 L 30.914062 20.570312 C 31.480469 19.921875 32.53125 19.921875 33.175781 20.570312 C 33.824219 21.136719 33.824219 22.1875 33.175781 22.832031 Z M 31.074219 24.933594 " fill-opacity="1" fill-rule="nonzero"/><path fill="#254f7a" d="M 38.269531 32.207031 C 37.621094 32.855469 36.652344 32.855469 36.007812 32.207031 C 35.359375 31.5625 35.359375 30.511719 36.007812 29.863281 L 38.109375 27.761719 C 38.753906 27.117188 39.804688 27.117188 40.371094 27.761719 C 41.015625 28.410156 41.015625 29.460938 40.371094 30.027344 Z M 38.269531 32.207031 " fill-opacity="1" fill-rule="nonzero"/><path fill="#254f7a" d="M 67.203125 61.144531 C 66.640625 61.789062 65.589844 61.789062 64.941406 61.144531 C 64.296875 60.496094 64.296875 59.527344 64.941406 58.878906 L 68.253906 55.566406 C 68.902344 54.921875 69.871094 54.921875 70.519531 55.566406 C 71.164062 56.214844 71.164062 57.265625 70.519531 57.828125 Z M 67.203125 61.144531 " fill-opacity="1" fill-rule="nonzero"/><path fill="#254f7a" d="M 52.738281 46.675781 C 52.089844 47.324219 51.121094 47.324219 50.472656 46.675781 C 49.828125 46.03125 49.828125 44.980469 50.472656 44.414062 L 52.574219 42.230469 C 53.222656 41.664062 54.273438 41.664062 54.917969 42.230469 C 55.484375 42.878906 55.484375 43.929688 54.917969 44.574219 Z M 52.738281 46.675781 " fill-opacity="1" fill-rule="nonzero"/><path fill="#254f7a" d="M 60.011719 53.871094 C 59.363281 54.515625 58.3125 54.515625 57.75 53.871094 C 57.101562 53.304688 57.101562 52.253906 57.75 51.605469 L 59.847656 49.503906 C 60.496094 48.859375 61.464844 48.859375 62.113281 49.503906 C 62.757812 50.152344 62.757812 51.121094 62.113281 51.769531 Z M 60.011719 53.871094 " fill-opacity="1" fill-rule="nonzero"/><path fill="#254f7a" d="M 88.945312 82.886719 C 88.300781 83.53125 87.332031 83.53125 86.683594 82.886719 C 86.039062 82.238281 86.039062 81.1875 86.683594 80.542969 L 89.917969 77.308594 C 90.5625 76.664062 91.613281 76.664062 92.261719 77.308594 C 92.90625 77.957031 92.90625 78.925781 92.261719 79.570312 Z M 88.945312 82.886719 " fill-opacity="1" fill-rule="nonzero"/><path fill="#254f7a" d="M 74.480469 68.417969 C 73.832031 68.984375 72.863281 68.984375 72.214844 68.417969 C 71.570312 67.769531 71.570312 66.722656 72.214844 66.074219 L 74.316406 63.972656 C 74.964844 63.324219 75.933594 63.324219 76.582031 63.972656 C 77.226562 64.621094 77.226562 65.671875 76.582031 66.234375 Z M 74.480469 68.417969 " fill-opacity="1" fill-rule="nonzero"/><path fill="#254f7a" d="M 81.753906 75.613281 C 81.105469 76.257812 80.054688 76.257812 79.410156 75.613281 C 78.84375 74.964844 78.84375 73.996094 79.410156 73.347656 L 81.589844 71.246094 C 82.15625 70.601562 83.207031 70.601562 83.855469 71.246094 C 84.5 71.8125 84.5 72.863281 83.855469 73.511719 Z M 81.753906 75.613281 " fill-opacity="1" fill-rule="nonzero"/></svg>