<svg xmlns="http://www.w3.org/2000/svg" xmlns:xlink="http://www.w3.org/1999/xlink" width="184" zoomAndPan="magnify" viewBox="0 0 138 137.999998" height="184" preserveAspectRatio="xMidYMid meet" version="1.0"><defs><clipPath id="3cdaf6bc3f"><path d="M 0 0 L 138 0 L 138 136.5 L 0 136.5 Z M 0 0 " clip-rule="nonzero"/></clipPath></defs><rect x="-13.8" width="165.6" fill="#ffffff" y="-13.8" height="165.599997" fill-opacity="1"/><rect x="-13.8" width="165.6" fill="#ffffff" y="-13.8" height="165.599997" fill-opacity="1"/><g clip-path="url(#3cdaf6bc3f)"><path fill="#254f7a" d="M 137.925781 134.265625 L 133.261719 63.632812 C 133.257812 62.40625 132.265625 61.410156 131.039062 61.410156 L 120.21875 61.410156 L 120.21875 58.820312 C 120.21875 55.097656 118.574219 51.730469 115.925781 49.292969 C 115.167969 48.597656 114.324219 47.980469 113.417969 47.453125 L 112.074219 27.132812 C 112.074219 25.90625 111.078125 24.910156 109.851562 24.910156 L 90.574219 24.914062 L 90.574219 19.804688 C 90.574219 14.351562 88.15625 9.398438 84.257812 5.820312 C 80.410156 2.285156 75.117188 0.0898438 69.308594 0.0898438 C 66.230469 0.0898438 63.300781 0.710938 60.652344 1.820312 C 58 0.710938 55.070312 0.0898438 51.988281 0.0898438 C 46.183594 0.0898438 40.890625 2.285156 37.042969 5.820312 C 33.152344 9.398438 30.730469 14.351562 30.730469 19.804688 L 30.730469 24.921875 L 26.535156 24.921875 C 26.476562 24.917969 26.417969 24.910156 26.359375 24.910156 L 12.789062 24.917969 C 11.660156 24.917969 10.695312 25.773438 10.582031 26.917969 L 0.0117188 134.1875 L 0 134.421875 C 0.0117188 135.648438 1.011719 136.628906 2.230469 136.617188 L 32.253906 136.28125 C 32.601562 136.5 33.007812 136.628906 33.445312 136.628906 L 80.632812 136.628906 L 135.847656 136.617188 C 137.074219 136.542969 138.003906 135.488281 137.925781 134.265625 Z M 115.769531 58.820312 L 115.769531 61.410156 L 114.335938 61.410156 L 113.8125 53.503906 C 115.042969 54.996094 115.769531 56.835938 115.769531 58.820312 Z M 91.449219 61.410156 L 81.683594 61.410156 L 81.683594 58.816406 C 81.683594 56.390625 82.777344 54.175781 84.535156 52.558594 C 86.339844 50.898438 88.851562 49.863281 91.621094 49.863281 C 92.710938 49.863281 93.753906 50.027344 94.734375 50.320312 C 92.683594 52.632812 91.449219 55.59375 91.449219 58.8125 Z M 95.898438 58.820312 C 95.898438 56.402344 96.980469 54.195312 98.722656 52.582031 C 100.46875 54.195312 101.550781 56.402344 101.550781 58.820312 L 101.550781 61.410156 L 95.894531 61.410156 L 95.894531 58.820312 Z M 102.71875 50.324219 C 103.695312 50.027344 104.746094 49.867188 105.835938 49.867188 C 107 49.867188 108.121094 50.054688 109.160156 50.386719 L 109.886719 61.410156 L 106.003906 61.410156 L 106.003906 58.820312 C 106.003906 55.597656 104.769531 52.640625 102.71875 50.324219 Z M 69.308594 4.539062 C 73.972656 4.539062 78.195312 6.28125 81.25 9.085938 C 84.253906 11.84375 86.121094 15.640625 86.121094 19.804688 L 86.121094 24.914062 L 73.25 24.914062 L 73.25 19.804688 C 73.25 14.351562 70.835938 9.398438 66.9375 5.820312 C 66.578125 5.492188 66.207031 5.175781 65.824219 4.875 C 66.949219 4.65625 68.113281 4.539062 69.308594 4.539062 Z M 52.5 24.917969 L 52.5 19.804688 C 52.5 15.644531 54.367188 11.847656 57.367188 9.085938 C 58.347656 8.183594 59.453125 7.394531 60.652344 6.734375 C 61.847656 7.394531 62.953125 8.183594 63.933594 9.085938 C 66.9375 11.847656 68.804688 15.640625 68.804688 19.804688 L 68.804688 24.917969 Z M 35.179688 19.804688 C 35.179688 15.644531 37.042969 11.847656 40.046875 9.085938 C 43.101562 6.28125 47.328125 4.539062 51.988281 4.539062 C 53.1875 4.539062 54.351562 4.65625 55.476562 4.875 C 55.09375 5.175781 54.71875 5.492188 54.363281 5.820312 C 50.46875 9.398438 48.046875 14.351562 48.046875 19.804688 L 48.046875 24.917969 L 35.179688 24.917969 Z M 48.050781 29.359375 L 48.050781 41.167969 C 48.050781 42.394531 49.046875 43.390625 50.277344 43.390625 C 51.503906 43.390625 52.5 42.394531 52.5 41.167969 L 52.5 29.359375 L 86.121094 29.359375 L 86.121094 41.167969 C 86.121094 42.394531 87.117188 43.390625 88.34375 43.390625 C 89.574219 43.390625 90.570312 42.394531 90.570312 41.167969 L 90.570312 29.359375 L 107.773438 29.359375 L 108.851562 45.722656 C 107.875 45.527344 106.867188 45.417969 105.835938 45.417969 C 103.253906 45.417969 100.828125 46.0625 98.726562 47.1875 C 96.628906 46.066406 94.199219 45.417969 91.621094 45.417969 C 87.703125 45.417969 84.132812 46.902344 81.53125 49.292969 C 78.882812 51.726562 77.238281 55.09375 77.238281 58.816406 L 77.238281 61.410156 L 76.007812 61.410156 C 75.992188 61.410156 75.976562 61.410156 75.960938 61.410156 L 66.542969 61.414062 C 65.417969 61.414062 64.453125 62.265625 64.335938 63.410156 L 57.042969 132.179688 C 51.367188 132.179688 35.527344 132.179688 35.527344 132.179688 L 28.730469 29.359375 Z M 14.796875 29.359375 L 24.28125 29.359375 L 31.050781 131.863281 C 24.191406 131.941406 4.660156 132.160156 4.660156 132.160156 Z M 68.53125 65.859375 L 73.878906 65.859375 L 78.257812 132.179688 C 73.136719 132.179688 61.496094 132.179688 61.496094 132.179688 Z M 82.707031 132.179688 L 78.328125 65.859375 L 91.449219 65.859375 L 91.449219 72.46875 C 91.449219 73.695312 92.445312 74.691406 93.671875 74.691406 C 94.898438 74.691406 95.898438 73.695312 95.898438 72.46875 L 95.898438 65.859375 L 115.769531 65.859375 L 115.769531 72.46875 C 115.769531 73.695312 116.765625 74.691406 117.992188 74.691406 C 119.222656 74.691406 120.21875 73.695312 120.21875 72.46875 L 120.21875 65.859375 L 128.957031 65.859375 L 133.339844 132.179688 Z M 82.707031 132.179688 " fill-opacity="1" fill-rule="nonzero"/></g></svg>