<svg xmlns="http://www.w3.org/2000/svg" xmlns:xlink="http://www.w3.org/1999/xlink" width="184" zoomAndPan="magnify" viewBox="0 0 138 137.999998" height="184" preserveAspectRatio="xMidYMid meet" version="1.0"><defs><clipPath id="a301f6b841"><path d="M 5.519531 0 L 132.269531 0 L 132.269531 138 L 5.519531 138 Z M 5.519531 0 " clip-rule="nonzero"/></clipPath></defs><rect x="-13.8" width="165.6" fill="#ffffff" y="-13.8" height="165.599997" fill-opacity="1"/><rect x="-13.8" width="165.6" fill="#ffffff" y="-13.8" height="165.599997" fill-opacity="1"/><g clip-path="url(#a301f6b841)"><path fill="#254f7a" d="M 124.714844 101.175781 C 125.851562 94.886719 126.636719 88.480469 127.023438 82.109375 C 127.90625 67.660156 126.832031 53.015625 123.863281 38.566406 C 124.449219 38.394531 125.148438 38.273438 125.886719 38.148438 C 128.089844 37.78125 130.835938 37.324219 132.082031 34.917969 C 132.222656 34.648438 132.246094 34.332031 132.144531 34.042969 C 132.039062 33.757812 131.824219 33.527344 131.542969 33.40625 C 131.488281 33.382812 126.019531 30.992188 123.296875 26.648438 C 122.9375 26.089844 122.59375 25.445312 122.25 24.785156 C 122.242188 24.761719 122.230469 24.742188 122.214844 24.71875 C 121.65625 23.605469 121.09375 22.347656 120.5 21.015625 C 120.132812 20.195312 119.757812 19.355469 119.367188 18.511719 C 117.777344 15.0625 115.789062 11.199219 113.117188 8.703125 C 113.113281 8.699219 113.109375 8.699219 113.109375 8.695312 C 113.105469 8.691406 113.101562 8.6875 113.101562 8.6875 C 113.101562 8.683594 113.097656 8.683594 113.097656 8.683594 C 112.988281 8.574219 112.878906 8.476562 112.769531 8.378906 L 112.769531 8.382812 C 112.769531 8.378906 112.769531 8.378906 112.769531 8.378906 C 112.765625 8.378906 112.765625 8.375 112.765625 8.375 C 107.039062 3.367188 89.449219 0 68.988281 0 C 48.53125 0 30.941406 3.367188 25.214844 8.375 C 25.214844 8.375 25.214844 8.378906 25.214844 8.378906 C 25.210938 8.378906 25.210938 8.378906 25.210938 8.378906 C 25.09375 8.484375 24.976562 8.585938 24.894531 8.675781 C 24.890625 8.675781 24.886719 8.679688 24.882812 8.683594 C 24.882812 8.683594 24.882812 8.683594 24.878906 8.6875 C 24.875 8.691406 24.871094 8.699219 24.867188 8.703125 C 22.179688 11.226562 20.195312 15.074219 18.613281 18.507812 C 18.222656 19.351562 17.847656 20.195312 17.480469 21.011719 C 16.882812 22.351562 16.320312 23.617188 15.765625 24.714844 C 15.761719 24.722656 15.761719 24.726562 15.757812 24.730469 C 15.75 24.746094 15.742188 24.761719 15.734375 24.773438 C 15.386719 25.445312 15.042969 26.089844 14.683594 26.65625 C 11.96875 30.976562 6.492188 33.382812 6.4375 33.40625 C 6.15625 33.523438 5.941406 33.757812 5.839844 34.042969 C 5.734375 34.332031 5.757812 34.644531 5.898438 34.914062 C 7.148438 37.324219 9.890625 37.78125 12.09375 38.148438 C 12.832031 38.269531 13.53125 38.390625 14.117188 38.5625 C 11.148438 53.015625 10.078125 67.660156 10.957031 82.109375 C 11.347656 88.484375 12.132812 94.894531 13.265625 101.175781 C 11.027344 102.015625 5.5 104.535156 5.753906 108.894531 C 6.054688 114.082031 12.90625 115.898438 15.824219 116.433594 C 16.15625 116.5 16.457031 116.582031 16.75 116.667969 C 17.234375 118.449219 17.75 120.230469 18.285156 121.96875 C 19.359375 125.496094 21.832031 128.421875 25.066406 129.980469 C 31.242188 132.976562 45.160156 138 68.988281 138 C 92.820312 138 106.742188 132.976562 112.914062 129.984375 C 116.148438 128.417969 118.621094 125.496094 119.691406 121.972656 C 119.695312 121.964844 119.695312 121.960938 119.699219 121.953125 C 119.699219 121.953125 119.699219 121.949219 119.699219 121.949219 C 120.234375 120.214844 120.746094 118.441406 121.230469 116.667969 C 121.519531 116.582031 121.816406 116.503906 122.140625 116.4375 C 125.074219 115.898438 131.925781 114.082031 132.226562 108.898438 C 132.480469 104.535156 126.953125 102.015625 124.714844 101.175781 Z M 26.390625 10.273438 C 26.402344 10.261719 26.410156 10.253906 26.417969 10.246094 C 26.496094 10.164062 26.574219 10.097656 26.65625 10.027344 C 31.929688 5.410156 49.335938 2.191406 68.988281 2.191406 C 88.644531 2.191406 106.050781 5.410156 111.324219 10.023438 C 111.324219 10.027344 111.324219 10.027344 111.324219 10.027344 C 111.398438 10.09375 111.476562 10.160156 111.578125 10.261719 C 112.292969 10.953125 112.65625 11.625 112.65625 12.265625 C 112.65625 17.03125 94.722656 22.34375 68.988281 22.34375 C 43.253906 22.34375 25.320312 17.03125 25.320312 12.265625 C 25.324219 11.628906 25.683594 10.957031 26.390625 10.273438 Z M 23.5 13.921875 C 26.53125 20.828125 48.355469 24.535156 68.988281 24.535156 C 89.625 24.535156 111.453125 20.828125 114.480469 13.921875 C 115.414062 15.410156 116.246094 17.023438 116.988281 18.59375 C 113.492188 20.882812 97.3125 30.359375 68.988281 30.359375 C 40.667969 30.359375 24.488281 20.882812 20.992188 18.59375 C 21.734375 17.023438 22.5625 15.414062 23.5 13.921875 Z M 12.453125 35.988281 C 10.957031 35.738281 9.523438 35.5 8.585938 34.785156 C 10.550781 33.734375 14.292969 31.394531 16.53125 27.828125 C 16.734375 27.507812 16.929688 27.171875 17.121094 26.824219 C 18.714844 27.882812 21.96875 29.859375 26.886719 31.960938 L 24.804688 35.210938 C 24.480469 35.722656 24.628906 36.398438 25.140625 36.726562 C 25.320312 36.839844 25.527344 36.898438 25.726562 36.898438 C 26.089844 36.898438 26.441406 36.71875 26.652344 36.390625 L 28.949219 32.800781 C 32.566406 34.226562 37.152344 35.734375 42.679688 36.988281 L 41.71875 39.644531 C 41.515625 40.214844 41.808594 40.839844 42.378906 41.046875 C 42.5 41.09375 42.625 41.113281 42.75 41.113281 C 43.199219 41.113281 43.617188 40.835938 43.78125 40.390625 L 44.84375 37.457031 C 51.351562 38.789062 59.058594 39.734375 67.894531 39.804688 L 67.894531 42.746094 C 67.894531 43.351562 68.386719 43.839844 68.992188 43.839844 C 69.597656 43.839844 70.085938 43.351562 70.085938 42.746094 L 70.085938 39.804688 C 78.925781 39.734375 86.632812 38.789062 93.140625 37.457031 L 94.203125 40.390625 C 94.363281 40.835938 94.785156 41.113281 95.230469 41.113281 C 95.355469 41.113281 95.480469 41.09375 95.605469 41.046875 C 96.175781 40.839844 96.46875 40.210938 96.261719 39.644531 L 95.300781 36.988281 C 100.832031 35.734375 105.417969 34.226562 109.035156 32.800781 L 111.328125 36.390625 C 111.539062 36.71875 111.894531 36.894531 112.253906 36.894531 C 112.457031 36.894531 112.660156 36.839844 112.84375 36.722656 C 113.351562 36.398438 113.5 35.722656 113.175781 35.210938 L 111.097656 31.960938 C 116.007812 29.859375 119.261719 27.886719 120.859375 26.824219 C 121.050781 27.167969 121.242188 27.5 121.445312 27.816406 C 123.691406 31.394531 127.429688 33.734375 129.394531 34.78125 C 128.460938 35.496094 127.027344 35.738281 125.53125 35.984375 C 124.269531 36.195312 123.082031 36.390625 122.113281 36.898438 C 122.074219 36.917969 122.039062 36.945312 122.003906 36.964844 C 121.996094 36.96875 121.988281 36.972656 121.984375 36.976562 C 120.820312 37.648438 120.265625 38.914062 119.734375 40.144531 C 118.871094 42.140625 118.207031 43.367188 116.253906 43.574219 C 114.222656 43.792969 112.484375 43.089844 110.800781 42.414062 C 109.070312 41.722656 107.28125 41.003906 105.398438 41.484375 C 103.847656 41.886719 102.789062 42.796875 101.761719 43.679688 C 100.445312 44.8125 99.085938 45.980469 96.402344 46.3125 C 94.191406 46.585938 92.386719 46.183594 90.480469 45.753906 C 88.152344 45.234375 85.746094 44.695312 82.425781 45.253906 C 79.613281 45.730469 77.535156 46.710938 75.703125 47.578125 C 73.546875 48.597656 71.6875 49.476562 68.992188 49.476562 C 66.296875 49.476562 64.4375 48.597656 62.28125 47.578125 C 60.449219 46.710938 58.371094 45.730469 55.558594 45.253906 C 52.242188 44.695312 49.832031 45.234375 47.503906 45.753906 C 45.597656 46.183594 43.789062 46.585938 41.582031 46.3125 C 38.902344 45.980469 37.539062 44.8125 36.222656 43.679688 C 35.195312 42.796875 34.136719 41.886719 32.585938 41.484375 C 30.703125 41.003906 28.914062 41.71875 27.183594 42.414062 C 25.5 43.089844 23.769531 43.785156 21.726562 43.574219 C 19.777344 43.367188 19.113281 42.140625 18.25 40.144531 C 17.71875 38.914062 17.164062 37.648438 16.003906 36.980469 C 15.996094 36.972656 15.988281 36.96875 15.980469 36.964844 C 15.945312 36.945312 15.914062 36.917969 15.875 36.898438 C 14.898438 36.394531 13.710938 36.199219 12.453125 35.988281 Z M 13.140625 81.980469 C 12.300781 68.195312 13.273438 54.238281 15.984375 40.441406 C 16.070312 40.628906 16.152344 40.820312 16.238281 41.015625 C 17.039062 42.863281 18.132812 45.398438 21.496094 45.753906 C 24.066406 46.035156 26.15625 45.1875 28 44.449219 C 29.53125 43.835938 30.851562 43.300781 32.039062 43.609375 C 33.09375 43.882812 33.882812 44.558594 34.792969 45.34375 C 36.210938 46.558594 37.976562 48.074219 41.3125 48.488281 C 43.898438 48.8125 45.976562 48.34375 47.984375 47.898438 C 50.203125 47.402344 52.300781 46.933594 55.195312 47.417969 C 57.707031 47.84375 59.554688 48.714844 61.34375 49.5625 C 63.636719 50.648438 65.804688 51.671875 68.992188 51.671875 C 72.179688 51.671875 74.347656 50.648438 76.636719 49.5625 C 78.425781 48.714844 80.273438 47.84375 82.785156 47.417969 C 85.683594 46.933594 87.78125 47.398438 90 47.898438 C 92.007812 48.34375 94.082031 48.8125 96.671875 48.488281 C 100.007812 48.074219 101.769531 46.558594 103.1875 45.34375 C 104.101562 44.558594 104.890625 43.882812 105.945312 43.609375 C 107.132812 43.300781 108.453125 43.835938 109.984375 44.449219 C 111.828125 45.191406 113.921875 46.035156 116.484375 45.753906 C 119.851562 45.398438 120.945312 42.863281 121.746094 41.015625 C 121.828125 40.820312 121.914062 40.628906 122 40.441406 C 124.710938 54.238281 125.683594 68.195312 124.84375 81.976562 C 124.4375 88.574219 123.617188 95.214844 122.402344 101.722656 C 122.195312 102.902344 121.96875 104.097656 121.71875 105.285156 C 121.449219 106.597656 121.136719 108.011719 120.777344 109.570312 C 120.429688 109.492188 120.136719 109.398438 119.84375 109.292969 C 119.160156 109.054688 118.386719 108.777344 117.027344 108.882812 C 115.644531 108.980469 114.699219 110.046875 113.785156 111.074219 C 112.800781 112.183594 111.785156 113.328125 110.148438 113.652344 C 108.566406 113.964844 106.789062 113.359375 104.90625 112.726562 C 102.960938 112.066406 100.9375 111.386719 98.898438 111.644531 C 96.804688 111.914062 94.414062 113.292969 92.097656 114.625 C 90.03125 115.816406 87.894531 117.050781 86.292969 117.28125 C 84.308594 117.566406 83.03125 117.15625 81.550781 116.683594 C 80.523438 116.355469 79.46875 116.015625 78.140625 115.890625 C 76.21875 115.71875 74.636719 116.636719 73.089844 117.527344 C 71.722656 118.3125 70.429688 119.054688 68.996094 119.054688 C 67.558594 119.054688 66.265625 118.3125 64.898438 117.527344 C 63.351562 116.636719 61.746094 115.71875 59.847656 115.890625 C 58.519531 116.015625 57.460938 116.355469 56.441406 116.683594 C 54.953125 117.160156 53.675781 117.570312 51.691406 117.277344 C 50.09375 117.050781 47.957031 115.816406 45.890625 114.625 C 43.578125 113.292969 41.183594 111.914062 39.089844 111.644531 C 37.046875 111.386719 35.03125 112.066406 33.082031 112.726562 C 31.199219 113.363281 29.417969 113.964844 27.839844 113.652344 C 26.207031 113.328125 25.1875 112.183594 24.203125 111.074219 C 23.289062 110.046875 22.34375 108.980469 20.964844 108.882812 C 19.609375 108.777344 18.828125 109.054688 18.144531 109.292969 C 17.851562 109.398438 17.558594 109.492188 17.210938 109.570312 C 16.851562 108.011719 16.539062 106.597656 16.269531 105.277344 C 16.019531 104.097656 15.792969 102.902344 15.585938 101.710938 C 14.363281 95.214844 13.542969 88.574219 13.140625 81.980469 Z M 123.609375 106.9375 C 124.769531 107.402344 125.648438 108.003906 125.648438 108.308594 C 125.648438 108.363281 125.648438 108.503906 125.421875 108.71875 C 124.964844 109.148438 124.03125 109.484375 123.011719 109.625 C 123.226562 108.675781 123.425781 107.785156 123.609375 106.9375 Z M 14.96875 109.621094 C 13.949219 109.480469 13.015625 109.148438 12.558594 108.71875 C 12.332031 108.503906 12.332031 108.363281 12.332031 108.308594 C 12.332031 108.003906 13.210938 107.402344 14.371094 106.9375 C 14.554688 107.785156 14.753906 108.675781 14.96875 109.621094 Z M 111.960938 128.011719 C 105.953125 130.921875 92.382812 135.808594 68.988281 135.808594 C 45.597656 135.808594 32.027344 130.921875 26.019531 128.011719 C 24.183594 127.125 22.652344 125.695312 21.574219 123.941406 C 27.71875 126.648438 43.898438 132.5 68.992188 132.5 C 94.085938 132.5 110.265625 126.648438 116.410156 123.941406 C 115.328125 125.695312 113.796875 127.125 111.960938 128.011719 Z M 121.730469 114.289062 C 121.078125 114.417969 120.496094 114.582031 119.960938 114.78125 C 119.492188 114.953125 119 115.179688 118.507812 115.453125 C 118.421875 115.5 118.328125 115.546875 118.238281 115.59375 L 118.503906 114.328125 C 118.628906 113.734375 118.25 113.15625 117.660156 113.03125 C 117.066406 112.90625 116.484375 113.285156 116.363281 113.875 L 115.738281 116.832031 C 112.488281 118.335938 107.261719 120.351562 99.859375 122.027344 L 100.210938 118.390625 C 100.269531 117.789062 99.828125 117.253906 99.226562 117.195312 C 98.625 117.125 98.089844 117.578125 98.03125 118.179688 L 97.617188 122.496094 C 91.574219 123.738281 85.054688 124.554688 78.207031 124.9375 L 78.492188 121.925781 C 78.550781 121.324219 78.105469 120.789062 77.503906 120.734375 C 76.917969 120.660156 76.371094 121.117188 76.3125 121.71875 L 76 125.054688 C 71.375 125.246094 66.605469 125.246094 61.984375 125.054688 L 61.671875 121.71875 C 61.613281 121.117188 61.066406 120.65625 60.480469 120.734375 C 59.875 120.789062 59.433594 121.324219 59.492188 121.925781 L 59.777344 124.9375 C 52.925781 124.554688 46.410156 123.738281 40.367188 122.496094 L 39.953125 118.179688 C 39.894531 117.578125 39.347656 117.125 38.757812 117.195312 C 38.15625 117.253906 37.714844 117.789062 37.773438 118.390625 L 38.125 122.027344 C 30.726562 120.351562 25.5 118.335938 22.246094 116.832031 L 21.625 113.875 C 21.5 113.285156 20.917969 112.90625 20.324219 113.03125 C 19.734375 113.15625 19.355469 113.734375 19.480469 114.328125 L 19.746094 115.59375 C 19.660156 115.546875 19.566406 115.5 19.480469 115.453125 C 18.984375 115.179688 18.492188 114.953125 18.035156 114.785156 C 17.488281 114.582031 16.910156 114.417969 16.238281 114.285156 C 14.347656 113.9375 8.160156 112.507812 7.945312 108.769531 C 7.796875 106.238281 11.363281 104.277344 13.671875 103.367188 C 13.757812 103.828125 13.84375 104.289062 13.9375 104.753906 C 12.429688 105.289062 10.148438 106.414062 10.148438 108.308594 C 10.148438 109.050781 10.460938 109.742188 11.054688 110.304688 C 12.3125 111.5 14.601562 111.957031 16.359375 111.878906 C 16.363281 111.878906 16.363281 111.878906 16.367188 111.878906 C 16.371094 111.878906 16.378906 111.878906 16.382812 111.878906 C 16.398438 111.875 16.414062 111.878906 16.429688 111.875 C 17.582031 111.8125 18.296875 111.5625 18.871094 111.359375 C 19.46875 111.148438 19.90625 111 20.804688 111.0625 C 21.296875 111.101562 21.914062 111.792969 22.566406 112.527344 C 23.675781 113.78125 25.058594 115.335938 27.417969 115.800781 C 29.566406 116.222656 31.710938 115.5 33.785156 114.796875 C 35.578125 114.191406 37.273438 113.621094 38.816406 113.816406 C 40.472656 114.027344 42.671875 115.296875 44.796875 116.519531 C 47.046875 117.816406 49.367188 119.15625 51.382812 119.445312 C 53.859375 119.804688 55.511719 119.277344 57.109375 118.765625 C 58.0625 118.460938 58.964844 118.171875 60.050781 118.070312 C 61.253906 117.949219 62.445312 118.636719 63.8125 119.421875 C 65.296875 120.273438 66.976562 121.242188 68.996094 121.242188 C 71.019531 121.242188 72.699219 120.273438 74.183594 119.421875 C 75.550781 118.636719 76.714844 117.945312 77.945312 118.070312 C 79.03125 118.171875 79.929688 118.457031 80.886719 118.765625 C 82.484375 119.277344 84.140625 119.804688 86.613281 119.445312 C 88.628906 119.15625 90.949219 117.816406 93.195312 116.519531 C 95.324219 115.296875 97.523438 114.027344 99.179688 113.816406 C 100.726562 113.621094 102.417969 114.191406 104.210938 114.796875 C 106.285156 115.5 108.425781 116.21875 110.578125 115.800781 C 112.9375 115.335938 114.320312 113.777344 115.429688 112.527344 C 116.082031 111.792969 116.699219 111.101562 117.191406 111.0625 C 118.097656 110.996094 118.527344 111.148438 119.125 111.359375 C 119.699219 111.5625 120.414062 111.8125 121.570312 111.878906 C 121.585938 111.878906 121.601562 111.878906 121.621094 111.878906 C 121.621094 111.878906 121.625 111.878906 121.625 111.878906 C 121.628906 111.878906 121.628906 111.878906 121.628906 111.878906 C 123.382812 111.941406 125.679688 111.5 126.9375 110.304688 C 127.53125 109.738281 127.847656 109.046875 127.847656 108.308594 C 127.847656 106.410156 125.566406 105.289062 124.058594 104.75 C 124.152344 104.289062 124.238281 103.828125 124.324219 103.363281 C 126.632812 104.277344 130.199219 106.234375 130.050781 108.769531 C 129.824219 112.507812 123.636719 113.933594 121.730469 114.289062 Z M 121.730469 114.289062 " fill-opacity="1" fill-rule="nonzero"/></g><path fill="#254f7a" d="M 50.242188 86.398438 C 51.550781 87.707031 53.667969 88.003906 55.257812 87.171875 L 55.257812 87.34375 C 55.257812 90.589844 57.890625 93.226562 61.125 93.226562 L 61.730469 93.226562 C 61.351562 93.871094 61.152344 94.609375 61.152344 95.375 C 61.152344 96.515625 61.601562 97.59375 62.414062 98.40625 L 66.042969 102.027344 C 66.847656 102.835938 67.921875 103.285156 69.066406 103.285156 C 69.066406 103.285156 69.070312 103.285156 69.074219 103.285156 C 70.21875 103.285156 71.296875 102.839844 72.109375 102.03125 L 75.734375 98.402344 C 77.132812 97.003906 77.359375 94.867188 76.414062 93.226562 L 76.855469 93.226562 C 80.089844 93.226562 82.722656 90.589844 82.722656 87.34375 L 82.722656 87.003906 C 84.335938 87.847656 86.382812 87.589844 87.738281 86.234375 L 91.359375 82.601562 C 92.171875 81.796875 92.621094 80.722656 92.621094 79.574219 C 92.621094 78.429688 92.171875 77.351562 91.359375 76.546875 L 87.738281 72.914062 C 86.429688 71.605469 84.3125 71.304688 82.722656 72.140625 L 82.722656 71.628906 C 82.722656 68.390625 80.089844 65.757812 76.855469 65.757812 L 76.421875 65.757812 C 76.6875 65.195312 76.828125 64.578125 76.828125 63.941406 C 76.828125 62.796875 76.378906 61.71875 75.566406 60.910156 L 71.9375 57.285156 C 71.132812 56.476562 70.058594 56.027344 68.914062 56.027344 C 68.914062 56.027344 68.910156 56.027344 68.90625 56.027344 C 67.761719 56.027344 66.683594 56.472656 65.871094 57.28125 L 62.246094 60.910156 C 60.9375 62.21875 60.652344 64.171875 61.394531 65.757812 L 61.125 65.757812 C 57.890625 65.757812 55.257812 68.390625 55.257812 71.628906 L 55.257812 72.304688 C 53.640625 71.464844 51.597656 71.71875 50.242188 73.078125 L 46.621094 76.710938 C 45.8125 77.511719 45.363281 78.585938 45.359375 79.730469 C 45.359375 80.878906 45.804688 81.960938 46.617188 82.773438 Z M 84.992188 77.773438 C 85.945312 77.773438 86.710938 78.539062 86.710938 79.492188 C 86.710938 80.445312 85.945312 81.210938 84.992188 81.210938 C 84.039062 81.210938 83.273438 80.445312 83.273438 79.492188 C 83.273438 78.539062 84.039062 77.773438 84.992188 77.773438 Z M 76.035156 70.898438 L 76.8125 70.121094 C 77.242188 69.691406 77.933594 69.691406 78.363281 70.121094 C 78.789062 70.546875 78.789062 71.242188 78.363281 71.667969 L 77.585938 72.445312 C 77.371094 72.660156 77.089844 72.769531 76.808594 72.769531 C 76.53125 72.769531 76.25 72.660156 76.035156 72.445312 C 75.609375 72.019531 75.609375 71.328125 76.035156 70.898438 Z M 76.035156 86.539062 C 76.464844 86.109375 77.15625 86.109375 77.585938 86.539062 L 78.363281 87.316406 C 78.789062 87.742188 78.789062 88.4375 78.363281 88.863281 C 78.148438 89.078125 77.867188 89.183594 77.585938 89.183594 C 77.308594 89.183594 77.027344 89.078125 76.8125 88.863281 L 76.035156 88.085938 C 75.609375 87.660156 75.609375 86.964844 76.035156 86.539062 Z M 68.988281 97.214844 C 68.039062 97.214844 67.269531 96.445312 67.269531 95.492188 C 67.269531 94.539062 68.039062 93.773438 68.988281 93.773438 C 69.941406 93.773438 70.710938 94.539062 70.710938 95.492188 C 70.710938 96.445312 69.941406 97.214844 68.988281 97.214844 Z M 68.988281 61.769531 C 69.941406 61.769531 70.710938 62.539062 70.710938 63.492188 C 70.710938 64.445312 69.941406 65.210938 68.988281 65.210938 C 68.039062 65.210938 67.269531 64.445312 67.269531 63.492188 C 67.269531 62.539062 68.039062 61.769531 68.988281 61.769531 Z M 68.988281 73.171875 C 72.46875 73.171875 75.296875 76.007812 75.296875 79.492188 C 75.296875 82.972656 72.46875 85.800781 68.988281 85.800781 C 65.511719 85.800781 62.683594 82.972656 62.683594 79.492188 C 62.683594 76.007812 65.511719 73.171875 68.988281 73.171875 Z M 59.617188 70.121094 C 60.046875 69.691406 60.738281 69.691406 61.167969 70.121094 L 61.945312 70.898438 C 62.371094 71.328125 62.371094 72.019531 61.945312 72.445312 C 61.730469 72.660156 61.449219 72.769531 61.171875 72.769531 C 60.890625 72.769531 60.609375 72.660156 60.394531 72.445312 L 59.617188 71.667969 C 59.191406 71.242188 59.191406 70.546875 59.617188 70.121094 Z M 59.617188 87.316406 L 60.394531 86.539062 C 60.824219 86.109375 61.515625 86.109375 61.945312 86.539062 C 62.371094 86.964844 62.371094 87.660156 61.945312 88.085938 L 61.167969 88.863281 C 60.953125 89.078125 60.671875 89.183594 60.394531 89.183594 C 60.113281 89.183594 59.832031 89.078125 59.617188 88.863281 C 59.191406 88.4375 59.191406 87.742188 59.617188 87.316406 Z M 52.988281 77.773438 C 53.941406 77.773438 54.707031 78.539062 54.707031 79.492188 C 54.707031 80.445312 53.941406 81.210938 52.988281 81.210938 C 52.035156 81.210938 51.269531 80.445312 51.269531 79.492188 C 51.269531 78.539062 52.035156 77.773438 52.988281 77.773438 Z M 52.988281 77.773438 " fill-opacity="1" fill-rule="nonzero"/></svg>