<svg xmlns="http://www.w3.org/2000/svg" xmlns:xlink="http://www.w3.org/1999/xlink" width="184" zoomAndPan="magnify" viewBox="0 0 138 137.999998" height="184" preserveAspectRatio="xMidYMid meet" version="1.0"><defs><clipPath id="f2917da4fd"><path d="M 19.492188 0 L 118.492188 0 L 118.492188 138 L 19.492188 138 Z M 19.492188 0 " clip-rule="nonzero"/></clipPath></defs><rect x="-13.8" width="165.6" fill="#ffffff" y="-13.8" height="165.599997" fill-opacity="1"/><rect x="-13.8" width="165.6" fill="#ffffff" y="-13.8" height="165.599997" fill-opacity="1"/><g clip-path="url(#f2917da4fd)"><path fill="#254f7a" d="M 75.703125 9.019531 C 74.324219 6.773438 77.503906 5.835938 78.113281 7.769531 C 78.113281 8.855469 76.328125 9.792969 75.703125 9.019531 Z M 73.035156 14.132812 C 72.722656 13.527344 74.269531 12.035156 74.726562 12.9375 C 75.886719 13.929688 73.421875 15.273438 73.035156 14.132812 Z M 68.898438 21.417969 C 68.457031 20.992188 68.714844 20.09375 69.414062 19.652344 C 72.410156 18.214844 70.847656 22.703125 68.898438 21.417969 Z M 64.316406 27.210938 C 63.121094 25.738281 66.820312 22.59375 66.855469 25.757812 C 66.855469 26.75 64.960938 27.855469 64.316406 27.210938 Z M 64.113281 31.605469 C 69.6875 25.261719 76.878906 16.320312 79.804688 8.539062 C 82.730469 9.550781 65.992188 33.539062 64.113281 31.605469 Z M 59.71875 32.101562 C 57.804688 30.226562 63.507812 29.378906 61.519531 31.992188 C 60.859375 32.710938 60.363281 32.765625 59.71875 32.101562 Z M 53.960938 37.253906 C 52.949219 35.800781 55.359375 34.035156 56.152344 35.726562 C 56.351562 36.773438 54.660156 37.953125 53.960938 37.253906 Z M 48.792969 40.914062 C 47.929688 40.234375 49.75 38.152344 50.558594 38.980469 C 51.957031 39.847656 49.566406 41.722656 48.792969 40.914062 Z M 42.925781 44.960938 C 41.949219 43.140625 45.996094 41.90625 45.058594 44.390625 C 44.726562 45.363281 43.21875 45.75 42.925781 44.960938 Z M 36.066406 48.546875 C 35.21875 47.589844 37.960938 46.285156 38.308594 47.554688 C 39.101562 48.785156 37.019531 49.707031 36.066406 48.546875 Z M 30.289062 51.289062 C 29.277344 49.816406 32.625 48.417969 32.441406 50.332031 C 32.441406 51.65625 31.097656 52.261719 30.289062 51.289062 Z M 24.84375 51.929688 C 24.292969 51.25 24.585938 50.441406 25.507812 50.109375 C 28.835938 49.59375 26.703125 53.714844 24.84375 51.929688 Z M 24.570312 59.105469 C 25.398438 55.976562 32.164062 58.515625 34.445312 56.804688 C 38.4375 55.261719 39.300781 50.570312 43.386719 49.449219 C 55.765625 47.460938 51.222656 41.886719 59.699219 38.980469 C 66.378906 37.308594 65.953125 30.890625 70.054688 28.773438 C 72.832031 27.007812 75.1875 25.703125 76.585938 22.667969 C 77.230469 19.265625 83.519531 14.792969 83.886719 11.261719 C 83.960938 9.550781 85.984375 7.988281 85.453125 6.589844 C 85.175781 4.824219 83.132812 6.960938 81.699219 6.832031 C 79.179688 7.308594 76.164062 4.089844 73.957031 3.960938 C 73.035156 3.738281 73 3.757812 73.292969 4.328125 C 73.863281 5.378906 72.761719 10.65625 71.691406 12.015625 C 70.773438 13.175781 70.222656 12.550781 71.085938 11.335938 C 73.882812 5.617188 72.503906 -0.25 64.722656 1.570312 C 61.023438 2.378906 59.277344 4.109375 55.726562 5.488281 C 50.761719 7.125 35.347656 19.394531 28.929688 27.171875 C 18.757812 40.546875 14.691406 53.054688 37.335938 43.617188 C 43.714844 40.140625 49.160156 35.835938 55.230469 30.300781 C 59.058594 26.621094 59.847656 26.03125 59.847656 26.859375 C 49.914062 37.527344 33.378906 50.847656 20.597656 46.945312 C 20.761719 48.527344 21.019531 50.035156 21.550781 51.839844 C 22.214844 54.101562 22.179688 54.082031 25.140625 54.285156 C 28.285156 54.507812 36.652344 52.058594 39.613281 50.054688 C 40.699219 49.320312 41.34375 49.558594 40.625 50.441406 C 38.402344 52.464844 28.007812 55.921875 22.859375 55.242188 C 22.691406 56.34375 21.773438 59.363281 22.601562 59.710938 C 23.375 60.558594 23.816406 60.410156 24.570312 59.085938 Z M 73.347656 53.695312 C 74.453125 53.75 68.675781 47.683594 68.675781 49.410156 C 68.199219 49.777344 72.667969 54.671875 73.347656 53.695312 Z M 75.851562 56.585938 C 76.347656 55.535156 77.6875 50.074219 75.023438 50.863281 C 73.699219 50.863281 73.441406 51.269531 73.992188 52.371094 C 74.582031 53.53125 74.433594 54.101562 73.402344 54.5625 C 71.378906 55.390625 70.625 51.617188 70.496094 57.339844 C 71.691406 57.246094 75.390625 57.097656 75.851562 56.585938 Z M 66.984375 56.769531 C 67.09375 55.222656 67.773438 53.070312 68.730469 51.472656 C 67.019531 49.871094 67.40625 47.128906 70.238281 48.546875 C 71.582031 49.484375 73.789062 47.847656 75.539062 48.105469 C 77.191406 48.105469 77.191406 48.105469 77.191406 47.183594 C 77.191406 45.824219 76.292969 45.605469 70.882812 45.730469 C 67.167969 45.804688 66.15625 45.933594 65.769531 46.300781 C 65.402344 46.6875 65.253906 47.792969 65.109375 51.527344 C 65.015625 54.136719 65.015625 56.472656 65.109375 56.75 C 65.367188 57.375 66.707031 57.394531 66.964844 56.75 Z M 77.746094 60.519531 C 79.328125 59.675781 80.851562 57.523438 80.851562 56.105469 C 80.816406 53.824219 77.414062 48.953125 77.394531 53.898438 C 77.449219 59.25 73.957031 57.613281 70.808594 58.367188 C 71.417969 60.925781 75.464844 61.957031 77.746094 60.519531 Z M 78.386719 63.445312 C 87.75 59.308594 81.292969 46.78125 72.851562 49.355469 C 71.507812 49.722656 71.492188 50.460938 72.832031 50.292969 C 74.820312 50.035156 77.246094 50.148438 77.578125 50.496094 C 80.523438 51.289062 83.335938 55.773438 80.632812 59.121094 C 77.117188 64.234375 69.320312 62.378906 69.558594 56.492188 C 69.339844 55.148438 70.9375 53.382812 69.964844 52.8125 C 68.382812 51.636719 67.371094 57.0625 68.640625 59.875 C 70.109375 62.855469 74.984375 65.578125 78.386719 63.464844 Z M 72.574219 64.4375 C 70.019531 63.683594 67.644531 60.722656 67.167969 58.589844 C 67.078125 58.09375 64.519531 58 64.355469 57.503906 C 63.949219 56.914062 64.28125 47.242188 64.757812 46.210938 C 66.136719 44.207031 67.792969 45.273438 71.785156 44.921875 C 76.328125 44.921875 76.917969 44.976562 77.488281 45.492188 C 78.71875 46.523438 77.285156 48.765625 79.4375 49.300781 C 88.339844 53.625 82.453125 68.300781 72.574219 64.4375 Z M 60.878906 91.640625 C 62.441406 91.054688 64.410156 89.34375 64.410156 88.589844 C 64.410156 87.835938 67.242188 86.472656 68.234375 86.472656 C 70.460938 86.933594 71.601562 82.445312 72.761719 81.046875 C 74.140625 78.730469 78.792969 80 79.328125 77.441406 C 79.328125 76.246094 82.820312 73.707031 85.121094 73.210938 C 87.015625 72.808594 87.695312 72.253906 89.167969 69.773438 C 94.242188 61.808594 97.058594 68.429688 103.511719 55.019531 C 107.117188 49.539062 110.097656 53.625 113.519531 46.191406 C 114.695312 42.238281 84.496094 3.980469 84.695312 11.832031 C 83.925781 15.878906 79.601562 17.828125 77.910156 21.859375 C 76.640625 24.875 76.144531 25.628906 74.929688 26.328125 C 73.164062 27.339844 72.832031 28.753906 70.738281 29.4375 C 69.191406 29.988281 69.097656 30.097656 67.902344 32.453125 C 66.746094 35.5625 63.359375 38.449219 61.246094 39.550781 C 58.835938 39.734375 55.433594 41.816406 54.421875 44.222656 C 52.472656 49.777344 40.996094 49.335938 39.246094 53.75 C 34.558594 61.128906 28.855469 56.75 26.039062 58.847656 C 30.4375 68.226562 41.417969 82.316406 50.503906 88.074219 C 54.714844 90.722656 55.339844 94.105469 60.878906 91.605469 Z M 109.695312 61.605469 C 108.976562 60.613281 110.171875 59.03125 111.441406 59.472656 C 112.839844 60.464844 111.035156 62.582031 109.695312 61.605469 Z M 105.222656 65.816406 C 105.40625 63.867188 108.386719 63.921875 106.988281 66.019531 C 106.402344 66.609375 105.222656 66.480469 105.222656 65.816406 Z M 100.40625 71.5 C 99.632812 70.730469 100.203125 69.421875 101.304688 69.421875 C 102.097656 69.515625 102.777344 70.582031 101.875 71.242188 C 101.160156 71.960938 100.921875 72 100.40625 71.5 Z M 93.710938 77.277344 C 92.128906 75.769531 96.265625 74.019531 96.691406 75.511719 C 97.371094 76.761719 94.738281 78.308594 93.710938 77.277344 Z M 86.71875 83.84375 C 84.640625 80.808594 90.34375 79.871094 89.808594 82.960938 C 89.496094 83.789062 87.789062 84.265625 86.71875 83.84375 Z M 79.804688 88.128906 C 77.746094 84.78125 84.917969 85.867188 82.011719 88.441406 C 81.035156 89.121094 80.394531 89.03125 79.804688 88.128906 Z M 72.960938 92.304688 C 71.085938 88.664062 76.84375 89.820312 75.003906 92.195312 C 74.15625 92.875 73.292969 92.929688 72.960938 92.304688 Z M 66.671875 95.46875 C 65.21875 93.261719 70.074219 93.039062 69.910156 94.84375 C 69.910156 96.3125 67.535156 96.773438 66.671875 95.46875 Z M 72.539062 96.8125 C 76.402344 96.371094 77.320312 93.464844 80.023438 93.664062 C 81.238281 93.832031 81.496094 93.722656 84.769531 91.457031 C 96.46875 83.328125 106.917969 74.261719 113.742188 63.921875 C 115.761719 60.445312 118.484375 56.527344 116.902344 52.371094 C 116.425781 51.160156 116.390625 51.140625 115.800781 51.671875 C 112.324219 56.105469 104.433594 62.195312 100.460938 67.160156 C 99.484375 68.355469 98.527344 68.90625 98.527344 68.265625 C 98.527344 67.621094 107.964844 57.78125 111.109375 55.277344 C 113.003906 53.566406 117.53125 49.28125 115.855469 46.671875 C 115.578125 45.933594 115.46875 45.878906 115.175781 46.300781 C 114.238281 47.167969 113.757812 47.222656 112.875 49.007812 C 111.734375 51.160156 111.164062 51.601562 108.554688 52.390625 C 103.699219 53.808594 103.53125 58.148438 100.238281 62.269531 C 97.316406 66.113281 92.292969 65.394531 89.738281 70.65625 C 87.730469 75.199219 82.085938 73.636719 80.191406 77.882812 C 78.976562 79.945312 79.160156 79.816406 76.824219 80.128906 C 72.335938 79.742188 72.355469 87.300781 68.65625 87.410156 C 64.554688 87.835938 64.519531 92.175781 59.738281 93.058594 C 58.027344 93.59375 57.988281 93.609375 58.671875 93.996094 C 61.191406 95.414062 67.003906 90.886719 72.335938 87.871094 C 76.492188 85.148438 79.988281 83.050781 83.078125 80.257812 C 83.980469 80.019531 89.222656 74.941406 89.386719 76.449219 C 82.691406 82.445312 68.785156 92.210938 60.636719 95.230469 C 61.464844 95.78125 63.121094 96.921875 63.949219 97.472656 C 66.46875 97.472656 70.441406 97.417969 72.539062 96.828125 Z M 72.191406 99.421875 L 74.636719 97.160156 C 73.054688 98.097656 67.113281 98.375 65.4375 98.503906 C 65.347656 98.578125 69.375 101.722656 69.578125 101.722656 C 69.6875 101.722656 70.867188 100.691406 72.191406 99.441406 Z M 81.074219 106.503906 C 87.21875 101.058594 88.578125 102.640625 82.546875 96.847656 C 81 95.929688 79.785156 93.152344 77.890625 95.542969 C 77.15625 96.296875 71.03125 101.777344 70.515625 102.585938 C 71.933594 103.984375 76.695312 107.589844 78.316406 108.730469 C 78.386719 108.730469 79.640625 107.738281 81.074219 106.523438 Z M 47.5625 134.644531 C 50.191406 134.589844 50.394531 134.554688 51.570312 133.597656 C 61.042969 125.964844 63.839844 123.589844 69.285156 118.292969 C 67.316406 116.566406 63.914062 113.546875 62.40625 112.410156 C 56.976562 117.980469 48.316406 124.125 41.710938 129.421875 C 40.113281 131.226562 35.660156 133.027344 37.664062 134.261719 C 38.347656 134.8125 38.328125 134.8125 47.5625 134.644531 Z M 70 111.304688 C 70.664062 110.660156 70.296875 109.574219 69.484375 109.6875 C 68.289062 109.761719 68.53125 112.996094 70 111.304688 Z M 67.941406 112.003906 C 66.082031 109.832031 70.738281 106.855469 71.289062 110.3125 C 71.785156 111.910156 68.785156 113.585938 67.941406 112.003906 Z M 111.753906 136.28125 C 113.8125 135.417969 112.453125 135.199219 110.777344 133.761719 C 106.695312 130.472656 96.027344 123.019531 93.507812 120.871094 C 91.410156 118.976562 81.292969 111.910156 78 109.761719 C 70.867188 103.835938 60.492188 96.09375 51.921875 90.410156 C 48.554688 87.722656 47.691406 87.097656 47.449219 87.097656 C 46.492188 87.097656 41.894531 93.996094 41.894531 95.429688 C 41.894531 96.867188 51.164062 103.820312 53.152344 104.996094 C 57.511719 107.992188 62.773438 111.453125 67.277344 115.386719 C 76.253906 123.535156 80.023438 125.117188 88.652344 131.519531 C 95.109375 136.300781 95.566406 136.539062 98.96875 136.722656 C 103.992188 137 110.578125 136.78125 111.734375 136.28125 Z M 98.289062 137.699219 C 94.5 137.605469 95.53125 137.625 94.296875 136.578125 C 87.695312 132.421875 76.125 123.1875 69.632812 119.324219 C 64.300781 124.21875 62.660156 125.964844 51.847656 134.5 C 49.34375 136.410156 45.996094 135.234375 42.191406 135.675781 C 37.589844 135.785156 38.546875 135.75 36.324219 134.609375 C 32.917969 133.929688 44.785156 126.074219 47.359375 123.867188 C 51.664062 120.8125 57.824219 115.554688 61.558594 111.839844 C 55.433594 107.9375 45.703125 100.929688 41.085938 96.058594 C 40.054688 94.089844 45.296875 87.742188 46.476562 86.585938 C 40.902344 82.113281 29.5 68.410156 25.285156 59.765625 C 24.570312 61.144531 22.914062 61.898438 21.808594 60.300781 C 20.449219 58.074219 22.621094 56.621094 20.871094 52.8125 C 17.949219 43.800781 20.910156 36.386719 26.152344 29.417969 C 28.945312 24.820312 32 22.207031 36.15625 18.75 C 44.855469 11.171875 47.007812 8.761719 55.453125 4.550781 C 59.480469 2.691406 67.277344 -1.5 70.480469 1.035156 C 71.96875 1.699219 71.875 2.214844 72.980469 2.414062 C 73.3125 2.414062 73.570312 2.542969 73.570312 2.730469 C 74.46875 3.152344 77.945312 4.328125 79.710938 5.578125 C 81.164062 6.996094 84.367188 4.144531 85.691406 5.265625 C 87.289062 6.738281 86.019531 8.0625 85.949219 9.421875 C 86.976562 10.398438 90.675781 13.230469 91.722656 14.59375 C 99.871094 21.949219 108.183594 34.144531 113.628906 43.15625 C 115.523438 47.371094 117.105469 42.699219 117.179688 49.871094 C 117.714844 52.574219 119.40625 56.289062 117.328125 59.105469 C 112.820312 68.394531 110.632812 70.175781 100.808594 80.074219 C 97.371094 83.421875 92.203125 87.355469 81.847656 94.546875 C 81.550781 94.75 82.304688 95.6875 83.003906 96 C 84.292969 96.738281 87.640625 100.121094 87.382812 102.109375 C 87.289062 102.367188 85.433594 104.039062 83.261719 105.84375 C 81.09375 107.644531 79.328125 109.226562 79.328125 109.375 C 85.542969 113.621094 93.617188 119.894531 100.71875 125.117188 C 113.113281 134.609375 123.339844 138.378906 98.289062 137.699219 Z M 98.289062 137.699219 " fill-opacity="1" fill-rule="nonzero"/><path fill="#254f7a" d="M 103.328125 137.992188 C 101.859375 137.992188 100.183594 137.976562 98.289062 137.921875 C 95.292969 137.847656 95.21875 137.847656 94.703125 137.277344 C 94.574219 137.148438 94.425781 136.980469 94.167969 136.761719 C 91.117188 134.828125 87.050781 131.867188 82.765625 128.722656 C 78.019531 125.265625 73.128906 121.679688 69.6875 119.601562 C 69.007812 120.226562 68.402344 120.777344 67.8125 121.328125 C 63.785156 125.042969 61.355469 127.289062 51.992188 134.683594 C 50.300781 135.96875 48.296875 135.914062 45.980469 135.824219 C 44.765625 135.785156 43.53125 135.730469 42.207031 135.898438 C 38.402344 135.988281 38.328125 135.988281 37.132812 135.308594 C 36.894531 135.179688 36.617188 135.015625 36.25 134.828125 C 35.824219 134.738281 35.585938 134.535156 35.511719 134.242188 C 35.199219 132.863281 39.285156 129.699219 44.25 126 C 45.519531 125.042969 46.621094 124.234375 47.230469 123.71875 C 51.332031 120.8125 57.417969 115.664062 61.226562 111.894531 C 55.597656 108.308594 45.738281 101.28125 40.9375 96.203125 L 40.902344 96.148438 C 39.78125 94.035156 44.929688 87.925781 46.164062 86.601562 C 40.351562 81.855469 29.425781 68.484375 25.269531 60.207031 C 24.789062 60.90625 24.089844 61.367188 23.390625 61.402344 C 22.914062 61.421875 22.234375 61.273438 21.625 60.410156 C 20.945312 59.308594 21.09375 58.367188 21.238281 57.375 C 21.40625 56.214844 21.589844 54.890625 20.667969 52.886719 C 18.078125 44.867188 19.714844 37.601562 25.984375 29.269531 C 28.875 24.507812 32.203125 21.765625 36.027344 18.566406 C 37.207031 17.554688 38.253906 16.617188 39.210938 15.769531 C 45.445312 10.269531 48.019531 8.007812 55.339844 4.347656 C 55.765625 4.144531 56.222656 3.925781 56.722656 3.683594 C 61.042969 1.625 67.589844 -1.5 70.570312 0.835938 C 71.289062 1.148438 71.65625 1.441406 71.933594 1.679688 C 72.246094 1.9375 72.464844 2.101562 72.980469 2.195312 C 73.128906 2.195312 73.3125 2.230469 73.457031 2.304688 C 73.585938 2.378906 73.679688 2.453125 73.714844 2.5625 C 73.957031 2.671875 74.339844 2.820312 74.800781 3.003906 C 76.273438 3.59375 78.5 4.457031 79.804688 5.394531 C 80.503906 6.074219 81.679688 5.671875 82.820312 5.265625 C 83.980469 4.863281 85.082031 4.496094 85.800781 5.101562 C 87.03125 6.242188 86.683594 7.328125 86.390625 8.300781 C 86.277344 8.652344 86.167969 9 86.132812 9.332031 C 86.480469 9.644531 87.070312 10.140625 87.730469 10.691406 C 89.257812 11.960938 91.136719 13.527344 91.851562 14.445312 C 100.753906 22.484375 109.417969 35.800781 113.777344 43.027344 C 114.53125 44.722656 115.195312 44.90625 115.761719 45.070312 C 116.773438 45.363281 117.308594 45.714844 117.34375 49.851562 C 117.457031 50.347656 117.601562 50.917969 117.75 51.527344 C 118.414062 54.027344 119.167969 56.878906 117.4375 59.214844 C 113.28125 67.769531 111.128906 69.917969 103.109375 77.996094 C 102.429688 78.691406 101.691406 79.429688 100.921875 80.203125 C 97.480469 83.550781 92.332031 87.484375 81.917969 94.695312 C 81.917969 94.824219 82.433594 95.523438 83.042969 95.78125 C 84.328125 96.515625 87.824219 99.972656 87.546875 102.109375 C 87.382812 102.550781 84.734375 104.832031 83.355469 105.972656 C 81.332031 107.644531 79.96875 108.875 79.582031 109.28125 C 83.777344 112.167969 88.855469 115.976562 93.765625 119.675781 C 96.101562 121.421875 98.511719 123.242188 100.792969 124.914062 C 102.886719 126.515625 104.929688 127.96875 106.714844 129.238281 C 111.277344 132.476562 114.292969 134.609375 113.796875 136.097656 C 113.425781 137.203125 111.347656 137.9375 103.273438 137.9375 Z M 69.632812 119.085938 L 69.761719 119.160156 C 73.238281 121.238281 78.203125 124.859375 83.023438 128.375 C 87.308594 131.519531 91.375 134.480469 94.425781 136.410156 C 94.722656 136.667969 94.90625 136.851562 95.015625 136.980469 C 95.285156 137.277344 96.382812 137.449219 98.308594 137.496094 C 105.078125 137.679688 112.914062 137.679688 113.464844 136.007812 C 113.867188 134.8125 110.632812 132.511719 106.546875 129.625 C 104.746094 128.355469 102.703125 126.902344 100.609375 125.300781 C 98.34375 123.628906 95.917969 121.808594 93.582031 120.058594 C 88.597656 116.328125 83.445312 112.445312 79.214844 109.558594 L 79.125 109.503906 L 79.125 109.390625 C 79.125 109.078125 81.644531 106.945312 83.132812 105.695312 C 85.339844 103.855469 86.976562 102.367188 87.179688 102.070312 C 87.363281 100.269531 84.199219 96.957031 82.894531 96.203125 C 82.289062 95.945312 81.605469 95.210938 81.570312 94.75 C 81.550781 94.546875 81.664062 94.4375 81.71875 94.382812 C 92.109375 87.171875 97.242188 83.253906 100.644531 79.925781 C 101.417969 79.136719 102.152344 78.398438 102.832031 77.71875 C 110.816406 69.679688 112.96875 67.527344 117.105469 59.011719 C 118.726562 56.824219 118.007812 54.082031 117.363281 51.65625 C 117.199219 51.046875 117.050781 50.460938 116.941406 49.925781 C 116.886719 45.878906 116.40625 45.730469 115.652344 45.511719 C 115.027344 45.328125 114.238281 45.105469 113.410156 43.25 C 109.070312 36.058594 100.441406 22.777344 91.558594 14.757812 C 90.839844 13.839844 88.964844 12.273438 87.472656 11.042969 C 86.757812 10.433594 86.113281 9.921875 85.78125 9.589844 L 85.707031 9.515625 L 85.707031 9.421875 C 85.746094 9 85.875 8.597656 85.984375 8.191406 C 86.277344 7.214844 86.554688 6.390625 85.523438 5.433594 C 84.992188 4.992188 84.015625 5.320312 82.96875 5.691406 C 81.699219 6.132812 80.394531 6.574219 79.546875 5.746094 C 78.296875 4.863281 76.105469 3.996094 74.65625 3.425781 C 74.121094 3.226562 73.699219 3.058594 73.457031 2.929688 L 73.328125 2.875 L 73.328125 2.746094 C 73.328125 2.746094 73.183594 2.65625 72.945312 2.65625 C 72.28125 2.527344 71.988281 2.304688 71.65625 2.046875 C 71.363281 1.808594 71.03125 1.550781 70.351562 1.257812 L 70.296875 1.21875 C 67.535156 -0.988281 61.117188 2.085938 56.867188 4.109375 C 56.371094 4.347656 55.910156 4.566406 55.488281 4.75 C 48.222656 8.375 45.648438 10.636719 39.449219 16.117188 C 38.472656 16.964844 37.425781 17.902344 36.25 18.914062 C 32.441406 22.078125 29.148438 24.820312 26.28125 29.527344 C 20.136719 37.75 18.519531 44.90625 21.054688 52.738281 C 22.03125 54.820312 21.808594 56.273438 21.644531 57.429688 C 21.496094 58.421875 21.386719 59.214844 21.976562 60.171875 C 22.363281 60.722656 22.839844 61.015625 23.355469 60.980469 C 24 60.945312 24.679688 60.429688 25.085938 59.65625 L 25.285156 59.289062 L 25.46875 59.65625 C 29.5 67.933594 40.792969 81.726562 46.605469 86.398438 L 46.789062 86.546875 L 46.621094 86.710938 C 45.261719 88.074219 40.386719 94.105469 41.269531 95.910156 C 46.125 101.023438 56.132812 108.105469 61.6875 111.636719 L 61.90625 111.78125 L 61.722656 111.96875 C 57.84375 115.828125 51.734375 121.015625 47.503906 124.015625 C 46.917969 124.511719 45.8125 125.339844 44.527344 126.296875 C 41.214844 128.761719 35.679688 132.878906 35.953125 134.09375 C 35.953125 134.148438 35.992188 134.296875 36.394531 134.371094 L 36.453125 134.371094 C 36.835938 134.589844 37.132812 134.757812 37.390625 134.886719 C 38.125 135.300781 39.738281 135.480469 42.226562 135.417969 C 43.550781 135.269531 44.820312 135.308594 46.035156 135.34375 C 48.261719 135.417969 50.191406 135.492188 51.773438 134.277344 C 61.117188 126.902344 63.542969 124.660156 67.554688 120.941406 C 68.160156 120.371094 68.824219 119.765625 69.539062 119.105469 L 69.652344 118.992188 Z M 103.789062 137.054688 C 102.1875 137.054688 100.515625 137.019531 98.96875 136.925781 C 95.511719 136.722656 95.015625 136.484375 88.523438 131.667969 C 85.652344 129.53125 83.371094 127.96875 81.164062 126.460938 C 76.863281 123.519531 73.144531 120.960938 67.148438 115.535156 C 63.25 112.132812 58.78125 109.078125 54.84375 106.394531 C 54.238281 105.972656 53.628906 105.566406 53.042969 105.160156 C 51.863281 104.460938 41.691406 96.257812 41.691406 95.429688 C 41.691406 93.628906 46.53125 86.878906 47.449219 86.878906 C 48.371094 86.878906 48.351562 87.28125 52.066406 90.246094 C 60.195312 95.632812 70.679688 103.414062 78.148438 109.59375 C 81.347656 111.671875 91.539062 118.789062 93.65625 120.703125 C 94.90625 121.769531 98.179688 124.144531 101.636719 126.664062 C 105.1875 129.257812 108.867188 131.925781 110.925781 133.578125 C 111.332031 133.929688 111.699219 134.1875 112.03125 134.425781 C 112.65625 134.867188 113.058594 135.160156 113.023438 135.546875 C 112.984375 135.859375 112.65625 136.117188 111.847656 136.449219 C 111 136.796875 107.558594 137.019531 103.808594 137.019531 Z M 47.433594 87.300781 C 46.734375 87.320312 42.097656 93.960938 42.097656 95.429688 C 42.375 96.039062 51.148438 103.5625 53.261719 104.8125 C 53.851562 105.214844 54.457031 105.621094 55.066406 106.042969 C 59.019531 108.75 63.507812 111.800781 67.425781 115.222656 C 73.402344 120.648438 77.117188 123.1875 81.40625 126.128906 C 83.613281 127.636719 85.910156 129.21875 88.78125 131.355469 C 95.238281 136.136719 95.621094 136.320312 98.988281 136.523438 C 104.011719 136.796875 110.519531 136.578125 111.660156 136.097656 C 112.472656 135.769531 112.5625 135.585938 112.582031 135.527344 C 112.582031 135.382812 112.160156 135.070312 111.773438 134.792969 C 111.460938 134.574219 111.054688 134.277344 110.648438 133.929688 C 108.609375 132.292969 104.929688 129.605469 101.378906 127.03125 C 97.902344 124.511719 94.628906 122.121094 93.359375 121.035156 C 91.246094 119.121094 81.09375 112.023438 77.875 109.945312 C 70.40625 103.761719 59.921875 95.984375 51.792969 90.59375 C 49.085938 88.441406 47.671875 87.339844 47.433594 87.300781 Z M 40.867188 134.941406 C 38.179688 134.941406 38.015625 134.8125 37.535156 134.425781 C 37.167969 134.203125 36.964844 133.910156 36.949219 133.578125 C 36.929688 132.769531 38.050781 131.980469 39.355469 131.058594 C 40.183594 130.472656 41.03125 129.882812 41.546875 129.292969 C 43.421875 127.785156 45.390625 126.257812 47.488281 124.660156 C 52.820312 120.539062 58.339844 116.289062 62.238281 112.28125 L 62.367188 112.152344 L 62.515625 112.261719 C 63.820312 113.253906 66.542969 115.644531 68.53125 117.394531 L 69.578125 118.3125 L 69.414062 118.476562 C 63.914062 123.832031 60.953125 126.3125 51.679688 133.800781 C 50.46875 134.773438 50.226562 134.828125 47.542969 134.886719 L 47.542969 134.683594 C 47.542969 134.683594 47.542969 134.902344 47.542969 134.902344 C 44.359375 134.957031 42.261719 134.996094 40.867188 134.996094 Z M 47.542969 134.425781 L 47.542969 134.628906 C 47.5625 134.628906 47.542969 134.425781 47.542969 134.425781 C 50.136719 134.371094 50.28125 134.332031 51.421875 133.433594 C 60.75 125.910156 63.542969 123.554688 68.972656 118.292969 L 68.273438 117.6875 C 66.359375 116.011719 63.765625 113.734375 62.421875 112.683594 C 58.503906 116.675781 53.042969 120.886719 47.746094 124.972656 C 45.667969 126.570312 43.679688 128.097656 41.839844 129.585938 C 41.308594 130.195312 40.441406 130.800781 39.597656 131.390625 C 38.492188 132.179688 37.335938 132.992188 37.351562 133.5625 C 37.351562 133.746094 37.5 133.910156 37.757812 134.074219 C 38.382812 134.589844 38.472656 134.589844 47.523438 134.425781 Z M 69.042969 112.832031 C 68.492188 112.832031 68.015625 112.574219 67.757812 112.113281 C 67.203125 111.453125 67.132812 110.625 67.574219 109.871094 C 68.085938 108.96875 69.210938 108.378906 70.09375 108.546875 C 70.515625 108.621094 71.269531 108.949219 71.492188 110.273438 C 71.804688 111.25 70.9375 112.242188 69.980469 112.648438 C 69.667969 112.777344 69.355469 112.851562 69.0625 112.851562 Z M 69.78125 108.933594 C 69.117188 108.933594 68.328125 109.410156 67.941406 110.074219 C 67.738281 110.421875 67.480469 111.140625 68.085938 111.855469 L 68.085938 111.894531 C 68.457031 112.539062 69.210938 112.5 69.796875 112.242188 C 70.609375 111.910156 71.308594 111.101562 71.066406 110.347656 C 70.9375 109.519531 70.570312 109.042969 70 108.933594 C 69.925781 108.933594 69.855469 108.914062 69.761719 108.914062 Z M 69.246094 112.003906 C 69.136719 112.003906 69.0625 111.984375 68.988281 111.949219 C 68.546875 111.726562 68.4375 111.027344 68.546875 110.476562 C 68.675781 109.886719 69.007812 109.503906 69.46875 109.484375 C 69.855469 109.429688 70.238281 109.613281 70.425781 110 C 70.664062 110.457031 70.535156 111.066406 70.148438 111.453125 C 69.78125 111.875 69.46875 112.003906 69.246094 112.003906 Z M 69.597656 109.886719 C 69.558594 109.886719 69.539062 109.886719 69.503906 109.886719 C 69.117188 109.90625 68.988281 110.402344 68.953125 110.550781 C 68.859375 111.027344 68.988281 111.46875 69.15625 111.5625 C 69.300781 111.636719 69.539062 111.488281 69.816406 111.15625 C 70.128906 110.828125 70.148438 110.421875 70.019531 110.164062 C 69.980469 110.074219 69.835938 109.871094 69.578125 109.871094 Z M 78.242188 108.933594 L 78.1875 108.894531 C 76.550781 107.738281 71.785156 104.132812 70.351562 102.734375 L 70.222656 102.605469 L 70.3125 102.457031 C 70.644531 101.941406 72.925781 99.828125 75.664062 97.308594 C 76.675781 96.371094 77.488281 95.632812 77.726562 95.394531 C 78.242188 94.75 78.757812 94.417969 79.289062 94.382812 C 80.117188 94.328125 80.816406 95.027344 81.496094 95.6875 C 81.863281 96.058594 82.25 96.441406 82.65625 96.683594 L 83.097656 97.105469 C 85.636719 99.550781 86.683594 100.5625 86.628906 101.539062 C 86.589844 102.347656 85.765625 102.992188 84.292969 104.148438 C 83.464844 104.792969 82.433594 105.601562 81.203125 106.6875 C 78.515625 108.949219 78.40625 108.949219 78.316406 108.949219 L 78.242188 108.949219 Z M 70.792969 102.550781 C 72.320312 103.984375 76.660156 107.277344 78.316406 108.472656 C 78.609375 108.269531 79.546875 107.515625 80.925781 106.355469 C 82.160156 105.253906 83.207031 104.445312 84.035156 103.800781 C 85.414062 102.714844 86.1875 102.125 86.207031 101.5 C 86.242188 100.710938 85.101562 99.605469 82.800781 97.398438 L 82.398438 97.011719 C 81.992188 96.773438 81.589844 96.386719 81.203125 96 C 80.558594 95.375 79.953125 94.769531 79.328125 94.824219 C 78.921875 94.84375 78.5 95.136719 78.058594 95.6875 C 77.800781 95.945312 76.992188 96.699219 75.980469 97.636719 C 74.140625 99.332031 71.433594 101.832031 70.808594 102.566406 Z M 69.558594 101.90625 C 69.191406 101.90625 65.308594 98.777344 65.21875 98.558594 L 65.164062 98.410156 L 65.328125 98.265625 L 65.402344 98.265625 C 65.625 98.246094 65.898438 98.226562 66.230469 98.207031 C 68.472656 98.0625 73.164062 97.75 74.507812 96.957031 L 76.199219 95.945312 L 72.320312 99.550781 C 69.816406 101.886719 69.632812 101.886719 69.558594 101.886719 Z M 65.898438 98.667969 C 66.746094 99.386719 69.0625 101.1875 69.558594 101.464844 C 69.835938 101.261719 70.773438 100.453125 72.042969 99.257812 L 73.679688 97.730469 C 71.675781 98.28125 68.144531 98.519531 66.265625 98.632812 C 66.136719 98.632812 66.027344 98.632812 65.898438 98.648438 Z M 63.894531 97.675781 L 63.839844 97.636719 C 63.011719 97.085938 61.335938 95.964844 60.527344 95.394531 L 60.195312 95.15625 L 60.582031 95.007812 C 68.75 91.992188 82.675781 82.152344 89.148438 76.375 C 88.6875 76.210938 86.519531 77.9375 85.339844 78.878906 C 84.21875 79.777344 83.539062 80.292969 83.1875 80.421875 C 80.613281 82.757812 77.761719 84.597656 74.46875 86.730469 C 73.808594 87.152344 73.144531 87.597656 72.464844 88.039062 C 71.214844 88.753906 69.910156 89.546875 68.675781 90.316406 C 64.539062 92.875 60.621094 95.300781 58.597656 94.164062 C 58.285156 93.996094 58.046875 93.847656 58.082031 93.609375 C 58.117188 93.316406 58.449219 93.222656 59.71875 92.835938 C 62.109375 92.394531 63.269531 91.089844 64.390625 89.839844 C 65.511719 88.589844 66.578125 87.394531 68.675781 87.171875 C 70.296875 87.136719 71.160156 85.515625 72.097656 83.824219 C 73.203125 81.785156 74.339844 79.6875 76.878906 79.890625 L 77.15625 79.851562 C 78.34375 79.691406 79.246094 79.09375 79.859375 78.050781 L 80.042969 77.753906 C 81 75.601562 82.929688 74.886719 84.789062 74.207031 C 86.664062 73.507812 88.597656 72.789062 89.589844 70.5625 C 91.0625 67.527344 93.324219 66.441406 95.53125 65.394531 C 97.242188 64.566406 98.859375 63.792969 100.109375 62.140625 C 101.234375 60.742188 101.96875 59.34375 102.6875 58 C 104.066406 55.40625 105.242188 53.164062 108.535156 52.207031 C 111.109375 51.414062 111.625 51.03125 112.746094 48.933594 C 113.425781 47.535156 113.90625 47.167969 114.496094 46.6875 C 114.679688 46.542969 114.863281 46.375 115.101562 46.171875 C 115.210938 46.007812 115.359375 45.824219 115.578125 45.859375 C 115.820312 45.898438 115.949219 46.171875 116.132812 46.632812 C 117.34375 48.507812 115.746094 51.507812 111.332031 55.460938 C 108.074219 58.054688 99.007812 67.511719 98.804688 68.320312 C 98.804688 68.355469 98.804688 68.375 98.804688 68.375 C 98.933594 68.394531 99.539062 68.042969 100.351562 67.070312 C 102.375 64.53125 105.425781 61.699219 108.371094 58.957031 C 111.257812 56.273438 113.980469 53.734375 115.691406 51.582031 C 115.984375 51.304688 116.1875 51.121094 116.445312 51.175781 C 116.71875 51.25 116.867188 51.582031 117.160156 52.335938 C 118.632812 56.199219 116.480469 59.859375 114.566406 63.09375 C 114.367188 63.425781 114.183594 63.757812 113.996094 64.070312 C 107.910156 73.304688 98.417969 82.316406 84.953125 91.679688 C 81.644531 93.976562 81.367188 94.105469 80.0625 93.921875 C 78.828125 93.832031 77.984375 94.457031 76.992188 95.15625 C 75.90625 95.945312 74.671875 96.828125 72.648438 97.050781 C 70.589844 97.621094 66.746094 97.695312 64.023438 97.695312 L 63.96875 97.695312 Z M 61.097656 95.265625 C 61.960938 95.855469 63.289062 96.738281 64.023438 97.234375 C 66.726562 97.234375 70.496094 97.160156 72.484375 96.589844 L 72.519531 96.589844 C 74.433594 96.371094 75.628906 95.503906 76.675781 94.75 C 77.6875 94.015625 78.664062 93.335938 80.042969 93.425781 C 81.183594 93.59375 81.347656 93.535156 84.640625 91.257812 C 98.050781 81.929688 107.503906 72.953125 113.554688 63.777344 C 113.742188 63.464844 113.925781 63.132812 114.125 62.800781 C 115.984375 59.65625 118.097656 56.085938 116.703125 52.410156 C 116.554688 52.042969 116.371094 51.5625 116.277344 51.507812 C 116.242188 51.507812 116.039062 51.691406 115.929688 51.800781 C 114.238281 53.972656 111.496094 56.511719 108.589844 59.195312 C 105.648438 61.917969 102.613281 64.75 100.605469 67.253906 C 99.945312 68.0625 99.0625 68.851562 98.566406 68.6875 C 98.492188 68.652344 98.289062 68.558594 98.289062 68.226562 C 98.289062 67.269531 108.296875 57.191406 110.964844 55.078125 C 116.222656 50.332031 116.40625 47.941406 115.652344 46.742188 C 115.542969 46.488281 115.46875 46.320312 115.433594 46.246094 C 115.414062 46.265625 115.378906 46.320312 115.320312 46.394531 C 115.066406 46.632812 114.863281 46.800781 114.679688 46.945312 C 114.109375 47.40625 113.683594 47.738281 113.042969 49.0625 C 111.882812 51.25 111.257812 51.746094 108.589844 52.554688 C 105.464844 53.476562 104.324219 55.644531 103 58.148438 C 102.28125 59.507812 101.527344 60.925781 100.386719 62.359375 C 99.082031 64.089844 97.332031 64.917969 95.640625 65.726562 C 93.507812 66.757812 91.320312 67.804688 89.902344 70.691406 C 88.855469 73.082031 86.832031 73.835938 84.882812 74.554688 C 83.023438 75.253906 81.257812 75.898438 80.375 77.902344 L 80.191406 78.234375 C 79.179688 79.945312 79.125 79.980469 77.175781 80.238281 L 76.84375 80.273438 C 74.542969 80.089844 73.457031 82.058594 72.429688 83.992188 C 71.492188 85.71875 70.515625 87.503906 68.675781 87.558594 C 66.761719 87.761719 65.75 88.882812 64.683594 90.078125 C 63.5625 91.328125 62.292969 92.746094 59.792969 93.207031 C 59.296875 93.351562 58.78125 93.519531 58.558594 93.628906 C 58.632812 93.683594 58.726562 93.738281 58.78125 93.757812 C 60.582031 94.789062 64.410156 92.414062 68.4375 89.933594 C 69.6875 89.160156 70.976562 88.351562 72.226562 87.652344 C 72.90625 87.210938 73.570312 86.769531 74.230469 86.34375 C 77.523438 84.210938 80.355469 82.371094 82.929688 80.054688 L 83.023438 80 C 83.300781 79.925781 84.199219 79.207031 85.066406 78.507812 C 87.21875 76.796875 88.6875 75.695312 89.3125 75.953125 C 89.40625 75.988281 89.570312 76.101562 89.609375 76.375 L 89.609375 76.484375 C 89.609375 76.484375 89.535156 76.558594 89.535156 76.558594 C 83.171875 82.261719 69.414062 92.011719 61.097656 95.230469 Z M 68.199219 96.441406 C 67.574219 96.441406 66.890625 96.203125 66.488281 95.578125 C 65.972656 94.789062 66.230469 94.273438 66.414062 94.035156 C 66.964844 93.351562 68.363281 93.261719 69.226562 93.609375 C 69.835938 93.867188 70.148438 94.308594 70.09375 94.84375 C 70.09375 95.523438 69.613281 96.09375 68.859375 96.332031 C 68.65625 96.386719 68.417969 96.425781 68.199219 96.425781 Z M 66.835938 95.339844 C 67.277344 96 68.125 96.113281 68.730469 95.929688 C 69.320312 95.742188 69.667969 95.339844 69.667969 94.824219 C 69.707031 94.363281 69.355469 94.125 69.0625 93.996094 C 68.273438 93.664062 67.132812 93.8125 66.726562 94.289062 C 66.507812 94.546875 66.542969 94.898438 66.820312 95.320312 Z M 73.714844 92.949219 C 73.625 92.949219 73.550781 92.949219 73.476562 92.929688 C 73.164062 92.875 72.925781 92.691406 72.777344 92.394531 C 72.023438 90.90625 72.503906 90.261719 72.851562 90.023438 C 73.476562 89.582031 74.597656 89.746094 75.207031 90.375 C 75.445312 90.628906 75.941406 91.328125 75.167969 92.324219 C 74.671875 92.746094 74.15625 92.949219 73.714844 92.949219 Z M 73.144531 92.210938 C 73.238281 92.378906 73.367188 92.488281 73.550781 92.523438 C 73.898438 92.597656 74.398438 92.414062 74.855469 92.046875 C 75.242188 91.550781 75.261719 91.070312 74.894531 90.6875 C 74.433594 90.207031 73.550781 90.058594 73.089844 90.390625 C 72.667969 90.6875 72.6875 91.347656 73.144531 92.230469 Z M 57.546875 92.746094 C 55.746094 92.746094 54.605469 91.734375 53.226562 90.5 C 52.433594 89.804688 51.550781 89.011719 50.410156 88.292969 C 41.195312 82.445312 30.289062 68.410156 25.875 58.976562 L 25.800781 58.828125 L 25.949219 58.71875 C 26.996094 57.945312 28.359375 58 29.957031 58.074219 C 32.71875 58.203125 36.136719 58.351562 39.117188 53.679688 C 39.945312 51.5625 42.945312 50.550781 46.109375 49.464844 C 49.621094 48.269531 53.261719 47.039062 54.257812 44.1875 C 55.324219 41.648438 58.800781 39.570312 61.226562 39.367188 C 63.140625 38.355469 66.5625 35.578125 67.757812 32.398438 C 68.972656 29.988281 69.097656 29.839844 70.699219 29.25 C 71.859375 28.882812 72.464844 28.257812 73.089844 27.613281 C 73.570312 27.117188 74.085938 26.601562 74.855469 26.144531 C 76.015625 25.460938 76.492188 24.726562 77.746094 21.765625 C 78.535156 19.890625 79.859375 18.472656 81.128906 17.09375 C 82.65625 15.457031 84.089844 13.910156 84.511719 11.777344 C 84.496094 11.191406 84.660156 10.785156 85.011719 10.621094 C 85.671875 10.304688 86.847656 10.894531 88.707031 12.496094 C 96.597656 19.265625 114.714844 42.972656 113.742188 46.230469 C 111.828125 50.402344 109.988281 51.046875 108.203125 51.671875 C 106.769531 52.171875 105.296875 52.683594 103.714844 55.113281 C 99.980469 62.875 97.425781 63.980469 94.960938 65.027344 C 93.175781 65.800781 91.484375 66.535156 89.367188 69.847656 C 87.878906 72.382812 87.160156 72.972656 85.195312 73.394531 C 82.875 73.894531 79.582031 76.414062 79.582031 77.40625 C 79.269531 78.914062 77.726562 79.226562 76.253906 79.539062 C 74.949219 79.816406 73.585938 80.089844 72.980469 81.121094 C 72.632812 81.542969 72.28125 82.261719 71.914062 82.996094 C 71.03125 84.78125 69.945312 86.988281 68.234375 86.65625 C 67.296875 86.65625 64.742188 88.203125 64.667969 88.570312 C 64.667969 89.492188 62.53125 91.238281 61.007812 91.808594 C 59.609375 92.433594 58.523438 92.710938 57.585938 92.710938 Z M 26.316406 58.957031 C 30.75 68.335938 41.527344 82.167969 50.632812 87.925781 C 51.808594 88.664062 52.710938 89.472656 53.5 90.171875 C 55.5625 91.992188 56.921875 93.207031 60.785156 91.441406 C 62.332031 90.851562 64.1875 89.175781 64.1875 88.589844 C 64.1875 88 67.277344 86.269531 68.234375 86.269531 C 69.667969 86.566406 70.644531 84.578125 71.492188 82.851562 C 71.859375 82.078125 72.226562 81.359375 72.59375 80.917969 C 73.273438 79.761719 74.726562 79.464844 76.125 79.171875 C 77.597656 78.878906 78.867188 78.601562 79.125 77.40625 C 79.125 76.042969 82.800781 73.507812 85.082031 73.027344 C 86.921875 72.640625 87.546875 72.109375 88.984375 69.679688 C 91.171875 66.242188 93.011719 65.449219 94.777344 64.695312 C 97.167969 63.664062 99.652344 62.597656 103.328125 54.949219 C 105.003906 52.390625 106.546875 51.855469 108.058594 51.324219 C 109.824219 50.699219 111.496094 50.109375 113.335938 46.136719 C 114.183594 43.324219 96.726562 20 88.429688 12.882812 C 86.242188 11.003906 85.46875 10.933594 85.195312 11.0625 C 84.953125 11.171875 84.917969 11.558594 84.9375 11.871094 C 84.496094 14.1875 83.023438 15.769531 81.441406 17.441406 C 80.191406 18.785156 78.886719 20.183594 78.128906 21.988281 C 76.84375 25.058594 76.328125 25.832031 75.058594 26.566406 C 74.324219 26.988281 73.84375 27.484375 73.386719 27.964844 C 72.742188 28.625 72.078125 29.308594 70.828125 29.710938 C 69.355469 30.246094 69.285156 30.320312 68.125 32.617188 C 66.890625 35.910156 63.324219 38.78125 61.375 39.808594 L 61.28125 39.808594 C 59.019531 39.992188 55.636719 42.015625 54.640625 44.390625 C 53.574219 47.425781 49.839844 48.695312 46.238281 49.90625 C 43.164062 50.957031 40.257812 51.929688 39.484375 53.898438 C 36.359375 58.828125 32.789062 58.664062 29.941406 58.515625 C 28.503906 58.441406 27.273438 58.386719 26.351562 58.976562 Z M 80.90625 89.105469 C 80.835938 89.105469 80.761719 89.105469 80.667969 89.085938 C 80.28125 89.011719 79.933594 88.734375 79.621094 88.257812 C 78.8125 86.953125 79.398438 86.34375 79.695312 86.144531 C 80.484375 85.589844 82.085938 85.828125 82.675781 86.585938 C 82.894531 86.859375 83.28125 87.613281 82.140625 88.605469 C 81.664062 88.9375 81.257812 89.105469 80.890625 89.105469 Z M 79.988281 88.019531 C 80.226562 88.40625 80.484375 88.605469 80.761719 88.664062 C 81.054688 88.71875 81.421875 88.589844 81.902344 88.277344 C 82.324219 87.910156 82.746094 87.339844 82.359375 86.839844 C 81.902344 86.253906 80.558594 86.050781 79.953125 86.472656 C 79.4375 86.839844 79.695312 87.523438 80.007812 88.019531 Z M 87.640625 84.210938 C 87.289062 84.210938 86.941406 84.15625 86.648438 84.046875 L 86.589844 84.046875 C 86.589844 84.027344 86.554688 83.972656 86.554688 83.972656 C 85.726562 82.757812 86.113281 81.949219 86.425781 81.582031 C 87.03125 80.882812 88.230469 80.625 89.113281 81.046875 C 89.847656 81.398438 90.179688 82.097656 90.011719 82.996094 C 89.867188 83.382812 89.515625 83.714844 89.019531 83.917969 C 88.578125 84.101562 88.101562 84.210938 87.621094 84.210938 Z M 86.847656 83.679688 C 87.417969 83.878906 88.210938 83.824219 88.835938 83.550781 C 89.222656 83.382812 89.496094 83.144531 89.589844 82.886719 C 89.738281 82.023438 89.296875 81.617188 88.910156 81.433594 C 88.210938 81.101562 87.179688 81.304688 86.71875 81.855469 C 86.316406 82.335938 86.351562 82.960938 86.832031 83.679688 Z M 94.609375 77.828125 C 94.226562 77.828125 93.839844 77.71875 93.5625 77.425781 C 93.15625 77.039062 93.03125 76.558594 93.230469 76.101562 C 93.597656 75.253906 94.941406 74.664062 95.863281 74.71875 C 96.394531 74.757812 96.761719 75.015625 96.890625 75.4375 C 97.1875 75.988281 96.929688 76.6875 96.210938 77.242188 C 95.75 77.570312 95.164062 77.808594 94.609375 77.808594 Z M 95.714844 75.160156 C 94.90625 75.160156 93.875 75.695312 93.617188 76.285156 C 93.488281 76.578125 93.5625 76.855469 93.855469 77.128906 C 94.335938 77.625 95.308594 77.40625 95.953125 76.925781 C 96.394531 76.597656 96.761719 76.101562 96.503906 75.621094 C 96.414062 75.328125 96.191406 75.199219 95.84375 75.179688 C 95.808594 75.179688 95.769531 75.179688 95.734375 75.179688 Z M 100.992188 72.054688 C 100.773438 72.054688 100.535156 71.925781 100.257812 71.648438 C 99.851562 71.242188 99.742188 70.65625 99.964844 70.105469 C 100.203125 69.550781 100.71875 69.203125 101.304688 69.203125 C 101.859375 69.277344 102.355469 69.679688 102.484375 70.195312 C 102.59375 70.65625 102.429688 71.078125 102.003906 71.390625 C 101.601562 71.796875 101.304688 72.015625 100.992188 72.015625 Z M 100.550781 71.355469 C 100.921875 71.703125 101.011719 71.8125 101.710938 71.097656 C 102.023438 70.859375 102.132812 70.601562 102.058594 70.324219 C 101.96875 69.976562 101.636719 69.699219 101.269531 69.644531 C 100.773438 69.644531 100.460938 69.976562 100.332031 70.289062 C 100.183594 70.65625 100.257812 71.078125 100.535156 71.371094 Z M 106.015625 66.609375 C 105.832031 66.609375 105.648438 66.570312 105.5 66.515625 C 105.1875 66.386719 105.003906 66.128906 105.003906 65.835938 C 105.09375 64.898438 105.738281 64.402344 106.273438 64.253906 C 106.75 64.125 107.191406 64.253906 107.414062 64.546875 C 107.578125 64.769531 107.742188 65.265625 107.15625 66.148438 C 106.824219 66.480469 106.402344 66.609375 106.015625 66.609375 Z M 105.425781 65.835938 C 105.425781 65.964844 105.519531 66.058594 105.664062 66.128906 C 105.976562 66.257812 106.511719 66.203125 106.84375 65.890625 C 107.136719 65.433594 107.230469 65.027344 107.082031 64.804688 C 106.953125 64.640625 106.695312 64.585938 106.382812 64.660156 C 105.996094 64.769531 105.5 65.136719 105.425781 65.835938 Z M 75.8125 65.265625 C 74.691406 65.265625 73.550781 65.046875 72.519531 64.640625 C 69.871094 63.851562 67.480469 60.851562 66.964844 58.644531 C 66.875 58.496094 66.15625 58.351562 65.714844 58.257812 C 64.832031 58.054688 64.28125 57.925781 64.152344 57.597656 C 63.746094 56.640625 64.058594 47.203125 64.554688 46.136719 C 65.566406 44.648438 66.746094 44.703125 68.546875 44.777344 C 69.414062 44.8125 70.460938 44.847656 71.765625 44.738281 L 71.785156 44.738281 C 76.4375 44.738281 76.992188 44.792969 77.632812 45.363281 C 78.222656 45.859375 78.277344 46.613281 78.316406 47.257812 C 78.371094 48.140625 78.40625 48.859375 79.492188 49.117188 C 84.125 51.359375 84.863281 56.34375 83.226562 60.117188 C 81.605469 63.8125 78.699219 65.285156 75.8125 65.285156 Z M 67.519531 45.144531 C 66.359375 45.144531 65.605469 45.328125 64.925781 46.320312 C 64.5 47.257812 64.152344 56.695312 64.539062 57.394531 L 64.539062 57.449219 C 64.648438 57.597656 65.382812 57.742188 65.808594 57.855469 C 66.726562 58.054688 67.296875 58.203125 67.371094 58.570312 C 67.847656 60.648438 70.203125 63.539062 72.632812 64.253906 C 77.523438 66.167969 81.257812 63.480469 82.800781 59.949219 C 84.972656 54.984375 82.507812 51.066406 79.328125 49.519531 C 77.984375 49.191406 77.929688 48.179688 77.875 47.296875 C 77.835938 46.671875 77.800781 46.0625 77.339844 45.695312 C 76.804688 45.21875 76.234375 45.164062 71.765625 45.164062 C 70.460938 45.273438 69.375 45.234375 68.511719 45.199219 C 68.144531 45.199219 67.8125 45.179688 67.5 45.179688 Z M 75.664062 64.421875 C 75.058594 64.421875 74.414062 64.328125 73.753906 64.144531 C 71.507812 63.5 69.375 61.828125 68.457031 59.96875 C 67.390625 57.632812 67.867188 53.550781 68.988281 52.648438 C 69.339844 52.371094 69.726562 52.371094 70.09375 52.648438 C 70.773438 53.054688 70.441406 53.878906 70.148438 54.691406 C 69.910156 55.296875 69.6875 55.921875 69.761719 56.457031 C 69.667969 58.882812 70.992188 60.832031 73.238281 61.570312 C 75.445312 62.304688 78.535156 61.789062 80.464844 58.992188 C 81.496094 57.707031 81.773438 56.105469 81.238281 54.507812 C 80.652344 52.683594 79.105469 51.121094 77.523438 50.699219 L 77.46875 50.699219 C 77.46875 50.699219 77.433594 50.644531 77.433594 50.644531 C 77.191406 50.402344 74.949219 50.238281 72.851562 50.515625 C 71.839844 50.644531 71.65625 50.277344 71.621094 50.109375 C 71.546875 49.742188 71.988281 49.375 72.796875 49.152344 C 77.46875 47.738281 81.386719 50.773438 82.710938 54.339844 C 83.796875 57.285156 83.355469 61.476562 78.5 63.648438 C 77.652344 64.164062 76.695312 64.4375 75.664062 64.4375 Z M 69.539062 52.851562 C 69.449219 52.851562 69.355469 52.886719 69.265625 52.960938 C 68.363281 53.679688 67.792969 57.46875 68.84375 59.765625 C 69.707031 61.515625 71.730469 63.113281 73.863281 63.722656 C 75.023438 64.050781 76.714844 64.234375 78.277344 63.261719 L 78.296875 63.261719 C 82.914062 61.203125 83.335938 57.246094 82.304688 54.46875 C 81.054688 51.085938 77.320312 48.195312 72.90625 49.558594 C 72.261719 49.742188 72.042969 49.960938 72.042969 50.035156 C 72.042969 50.035156 72.261719 50.148438 72.796875 50.089844 C 74.617188 49.871094 77.101562 49.90625 77.671875 50.3125 C 79.382812 50.789062 81.019531 52.445312 81.644531 54.378906 C 82.214844 56.125 81.917969 57.871094 80.796875 59.25 C 78.757812 62.230469 75.464844 62.765625 73.109375 61.972656 C 70.679688 61.164062 69.246094 59.066406 69.355469 56.472656 C 69.246094 55.867188 69.523438 55.167969 69.761719 54.523438 C 70.074219 53.714844 70.238281 53.199219 69.871094 52.980469 C 69.742188 52.886719 69.652344 52.851562 69.539062 52.851562 Z M 110.429688 62.066406 C 110.117188 62.066406 109.824219 61.972656 109.546875 61.769531 L 109.492188 61.714844 C 109.125 61.203125 109.160156 60.484375 109.601562 59.894531 C 110.0625 59.269531 110.816406 59.011719 111.496094 59.25 L 111.550781 59.25 C 111.972656 59.582031 112.175781 60.003906 112.140625 60.484375 C 112.085938 61.074219 111.660156 61.625 111.074219 61.898438 C 110.851562 61.992188 110.632812 62.046875 110.429688 62.046875 Z M 109.839844 61.457031 C 110.28125 61.753906 110.707031 61.644531 110.925781 61.53125 C 111.367188 61.328125 111.699219 60.886719 111.734375 60.464844 C 111.773438 60.152344 111.625 59.875 111.347656 59.65625 C 110.742188 59.453125 110.226562 59.804688 109.96875 60.152344 C 109.730469 60.484375 109.546875 61 109.839844 61.441406 Z M 75.28125 61.386719 C 74.527344 61.386719 73.753906 61.238281 73.015625 60.945312 C 71.75 60.429688 70.867188 59.492188 70.609375 58.40625 L 70.550781 58.203125 L 70.753906 58.148438 C 71.5625 57.964844 72.375 57.910156 73.164062 57.871094 C 75.425781 57.761719 77.210938 57.6875 77.175781 53.878906 C 77.175781 52.316406 77.523438 51.527344 78.1875 51.527344 C 79.363281 51.527344 81.019531 54.433594 81.035156 56.070312 C 81.035156 57.558594 79.472656 59.785156 77.816406 60.667969 C 77.101562 61.128906 76.179688 61.347656 75.242188 61.347656 Z M 71.085938 58.515625 C 71.363281 59.378906 72.117188 60.117188 73.183594 60.539062 C 74.671875 61.144531 76.476562 61.074219 77.632812 60.335938 C 79.140625 59.527344 80.632812 57.429688 80.632812 56.085938 C 80.59375 54.578125 79.050781 51.949219 78.203125 51.949219 C 77.835938 51.949219 77.617188 52.667969 77.597656 53.878906 C 77.632812 58.074219 75.480469 58.183594 73.183594 58.296875 C 72.484375 58.332031 71.765625 58.367188 71.066406 58.496094 Z M 23.410156 60.464844 C 23.042969 60.464844 22.710938 60.171875 22.453125 59.894531 C 21.773438 59.546875 22.03125 58.074219 22.453125 56.199219 C 22.527344 55.8125 22.601562 55.480469 22.636719 55.242188 L 22.675781 55.039062 L 22.875 55.039062 C 28.136719 55.757812 38.382812 52.207031 40.460938 50.3125 C 40.683594 50.035156 40.699219 49.890625 40.699219 49.851562 C 40.644531 49.835938 40.3125 49.851562 39.707031 50.257812 C 36.726562 52.28125 28.265625 54.746094 25.101562 54.523438 C 22.085938 54.320312 22.011719 54.265625 21.351562 51.984375 L 21.351562 51.929688 C 20.855469 50.3125 20.558594 48.839844 20.355469 47 L 20.320312 46.6875 L 20.632812 46.78125 C 26.316406 48.507812 33.214844 46.984375 41.160156 42.21875 C 49.199219 37.417969 56.152344 30.539062 59.609375 26.804688 C 59.609375 26.75 59.609375 26.730469 59.609375 26.730469 C 59.257812 26.730469 56.921875 28.976562 55.378906 30.464844 C 48.425781 36.792969 43.21875 40.65625 37.425781 43.800781 C 28.597656 47.480469 23.171875 48.085938 21.277344 45.640625 C 20.265625 44.335938 18.960938 39.902344 28.726562 27.042969 C 34.871094 19.59375 50.449219 6.996094 55.617188 5.285156 C 57.015625 4.734375 58.136719 4.125 59.222656 3.554688 C 60.859375 2.671875 62.386719 1.84375 64.628906 1.367188 C 68.65625 0.429688 70.609375 1.605469 71.507812 2.746094 C 73.015625 4.640625 72.90625 7.96875 71.234375 11.445312 C 70.808594 12.035156 70.792969 12.386719 70.847656 12.441406 C 70.902344 12.441406 71.121094 12.386719 71.492188 11.90625 C 72.484375 10.636719 73.585938 5.433594 73.074219 4.457031 C 72.925781 4.164062 72.796875 3.941406 72.945312 3.777344 C 73.089844 3.574219 73.367188 3.648438 73.972656 3.777344 C 74.949219 3.832031 76.070312 4.476562 77.246094 5.15625 C 78.738281 6.019531 80.28125 6.902344 81.625 6.644531 L 81.664062 6.644531 C 81.664062 6.644531 81.699219 6.644531 81.699219 6.644531 C 82.195312 6.683594 82.859375 6.40625 83.410156 6.148438 C 84.125 5.835938 84.734375 5.5625 85.195312 5.800781 C 85.433594 5.929688 85.578125 6.1875 85.636719 6.589844 C 85.949219 7.402344 85.453125 8.265625 84.9375 9.167969 C 84.53125 9.863281 84.125 10.582031 84.089844 11.300781 C 83.886719 13.210938 82.066406 15.347656 80.300781 17.40625 C 78.71875 19.246094 77.082031 21.140625 76.789062 22.742188 C 75.464844 25.648438 73.3125 26.988281 70.828125 28.570312 L 70.167969 28.996094 C 68.492188 29.859375 67.589844 31.441406 66.617188 33.132812 C 65.253906 35.503906 63.730469 38.210938 59.738281 39.222656 C 56.152344 40.453125 54.972656 42.128906 53.722656 43.910156 C 52.140625 46.191406 50.484375 48.546875 43.402344 49.6875 C 41.378906 50.257812 40.167969 51.730469 38.898438 53.308594 C 37.71875 54.761719 36.488281 56.273438 34.539062 57.042969 C 33.488281 57.796875 31.652344 57.742188 29.867188 57.6875 C 27.476562 57.613281 25.210938 57.558594 24.769531 59.195312 L 24.769531 59.25 C 24.273438 60.097656 23.90625 60.464844 23.503906 60.503906 C 23.484375 60.503906 23.445312 60.503906 23.429688 60.503906 Z M 23.023438 55.5 C 22.988281 55.71875 22.933594 55.996094 22.859375 56.289062 C 22.636719 57.285156 22.195312 59.34375 22.65625 59.527344 L 22.730469 59.582031 C 23.023438 59.914062 23.246094 60.0625 23.429688 60.042969 C 23.667969 60.023438 23.960938 59.691406 24.347656 59.011719 C 24.882812 57.082031 27.402344 57.15625 29.847656 57.210938 C 31.578125 57.265625 33.359375 57.300781 34.28125 56.621094 L 34.335938 56.621094 C 36.210938 55.867188 37.390625 54.394531 38.546875 52.980469 C 39.816406 51.433594 41.105469 49.816406 43.292969 49.207031 C 50.226562 48.085938 51.753906 45.917969 53.375 43.597656 C 54.605469 41.851562 55.855469 40.03125 59.609375 38.742188 C 63.433594 37.785156 64.851562 35.285156 66.230469 32.855469 C 67.222656 31.109375 68.160156 29.453125 69.925781 28.554688 L 70.570312 28.148438 C 73 26.601562 75.113281 25.277344 76.363281 22.539062 C 76.675781 20.902344 78.257812 19.023438 79.953125 17.058594 C 81.679688 15.050781 83.464844 12.972656 83.648438 11.207031 C 83.683594 10.398438 84.125 9.625 84.550781 8.890625 C 85.027344 8.082031 85.46875 7.308594 85.210938 6.628906 C 85.15625 6.332031 85.082031 6.167969 84.972656 6.113281 C 84.695312 5.964844 84.125 6.222656 83.574219 6.480469 C 82.96875 6.757812 82.289062 7.050781 81.679688 7.015625 C 80.191406 7.289062 78.589844 6.371094 77.046875 5.46875 C 75.90625 4.808594 74.820312 4.179688 73.917969 4.125 C 73.734375 4.089844 73.515625 4.035156 73.367188 4.015625 C 73.402344 4.089844 73.441406 4.144531 73.457031 4.199219 C 74.046875 5.304688 72.945312 10.691406 71.839844 12.109375 C 71.363281 12.714844 70.902344 12.957031 70.609375 12.714844 C 70.277344 12.476562 70.40625 11.871094 70.902344 11.171875 C 72.503906 7.878906 72.632812 4.734375 71.214844 2.949219 C 70 1.441406 67.773438 1.019531 64.757812 1.71875 C 62.570312 2.195312 61.0625 3.003906 59.460938 3.867188 C 58.359375 4.457031 57.21875 5.082031 55.78125 5.632812 C 51.074219 7.199219 35.660156 19.265625 29.074219 27.265625 C 22.324219 36.203125 19.601562 42.789062 21.625 45.402344 C 23.375 47.644531 28.761719 46.964844 37.261719 43.433594 C 43 40.304688 48.167969 36.460938 55.101562 30.152344 C 58.761719 26.640625 59.386719 26.179688 59.8125 26.363281 C 60.050781 26.472656 60.050781 26.769531 60.050781 26.878906 L 60.050781 26.972656 L 59.996094 27.027344 C 55.101562 32.285156 39.394531 47.867188 25.414062 47.867188 C 23.851562 47.867188 22.324219 47.664062 20.816406 47.242188 C 21 48.894531 21.296875 50.277344 21.738281 51.785156 L 21.738281 51.839844 C 22.152344 53.210938 23.277344 53.960938 25.101562 54.082031 C 28.230469 54.320312 36.542969 51.875 39.46875 49.90625 C 40.183594 49.429688 40.753906 49.300781 41.011719 49.578125 C 41.160156 49.722656 41.234375 50.035156 40.753906 50.605469 C 38.402344 52.738281 28.136719 56.070312 23.003906 55.519531 Z M 70.296875 57.578125 L 70.296875 57.339844 C 70.367188 54.726562 70.550781 54.15625 70.902344 53.953125 C 71.179688 53.789062 71.472656 53.953125 71.785156 54.136719 C 72.207031 54.378906 72.703125 54.632812 73.347656 54.378906 C 73.789062 54.175781 74.027344 53.972656 74.101562 53.734375 C 74.195312 53.457031 74.101562 53.054688 73.808594 52.484375 C 73.476562 51.855469 73.421875 51.433594 73.605469 51.140625 C 73.789062 50.828125 74.230469 50.679688 74.984375 50.679688 C 75.738281 50.476562 76.164062 50.734375 76.382812 51.011719 C 77.433594 52.242188 76.402344 55.941406 76.035156 56.714844 L 75.996094 56.769531 C 75.609375 57.191406 73.9375 57.375 71.140625 57.558594 C 70.882812 57.558594 70.664062 57.597656 70.496094 57.597656 L 70.257812 57.597656 Z M 71.140625 54.304688 C 71.140625 54.304688 71.121094 54.304688 71.105469 54.304688 C 70.808594 54.46875 70.753906 56.253906 70.71875 57.097656 C 70.847656 57.097656 70.976562 57.097656 71.121094 57.082031 C 72.261719 57.007812 75.261719 56.824219 75.664062 56.457031 C 76.105469 55.5 76.863281 52.1875 76.050781 51.230469 C 75.832031 50.972656 75.519531 50.917969 75.058594 51.046875 L 75.003906 51.046875 C 74.414062 51.046875 74.066406 51.140625 73.957031 51.324219 C 73.863281 51.488281 73.9375 51.800781 74.175781 52.261719 C 74.527344 52.960938 74.636719 53.4375 74.488281 53.84375 C 74.359375 54.210938 74.046875 54.488281 73.496094 54.746094 C 72.648438 55.09375 71.988281 54.746094 71.5625 54.488281 C 71.398438 54.394531 71.234375 54.304688 71.140625 54.304688 Z M 66.066406 57.449219 C 65.53125 57.449219 65.070312 57.210938 64.925781 56.84375 C 64.777344 56.457031 64.832031 53.382812 64.925781 51.527344 C 65.070312 47.664062 65.21875 46.597656 65.640625 46.171875 C 66.101562 45.730469 67.078125 45.621094 70.902344 45.53125 C 74.710938 45.457031 76.421875 45.53125 77.0625 46.15625 C 77.375 46.46875 77.433594 46.871094 77.433594 47.203125 C 77.433594 48.34375 77.175781 48.34375 75.554688 48.34375 C 74.820312 48.234375 73.992188 48.472656 73.203125 48.695312 C 72.097656 49.007812 70.976562 49.335938 70.128906 48.730469 C 69.191406 48.253906 68.4375 48.253906 68.105469 48.730469 C 67.71875 49.28125 67.941406 50.460938 68.878906 51.34375 L 69.007812 51.453125 L 68.914062 51.601562 C 67.996094 53.109375 67.296875 55.242188 67.1875 56.804688 L 67.1875 56.859375 C 67.019531 57.226562 66.597656 57.46875 66.066406 57.46875 Z M 73.074219 45.917969 C 72.445312 45.917969 71.730469 45.917969 70.902344 45.953125 C 67.390625 46.027344 66.265625 46.136719 65.9375 46.46875 C 65.625 46.800781 65.476562 47.976562 65.328125 51.542969 C 65.21875 54.265625 65.238281 56.457031 65.328125 56.695312 C 65.402344 56.898438 65.714844 57.042969 66.066406 57.042969 C 66.414062 57.042969 66.671875 56.953125 66.78125 56.730469 C 66.890625 55.148438 67.574219 53.089844 68.472656 51.527344 C 67.554688 50.570312 67.222656 49.246094 67.757812 48.472656 C 67.976562 48.160156 68.65625 47.535156 70.332031 48.363281 C 71.03125 48.859375 72.023438 48.582031 73.074219 48.269531 C 73.898438 48.03125 74.78125 47.792969 75.574219 47.902344 C 76.519531 47.902344 76.992188 47.664062 76.992188 47.183594 C 76.992188 46.816406 76.917969 46.597656 76.75 46.429688 C 76.347656 46.027344 75.1875 45.898438 73.054688 45.898438 Z M 73.074219 54.027344 C 73.015625 54.027344 72.980469 54.027344 72.925781 54.027344 C 71.675781 53.789062 68.675781 50.550781 68.457031 49.632812 C 68.417969 49.503906 68.457031 49.410156 68.472656 49.335938 C 68.492188 49.0625 68.65625 48.953125 68.75 48.914062 C 69.46875 48.636719 71.25 50.402344 71.988281 51.195312 C 72.871094 52.113281 73.863281 53.292969 73.679688 53.734375 C 73.660156 53.789062 73.605469 53.878906 73.457031 53.898438 C 73.386719 53.972656 73.257812 54.027344 73.089844 54.027344 Z M 73.367188 53.476562 L 73.367188 53.679688 C 73.367188 53.679688 73.367188 53.476562 73.367188 53.476562 Z M 68.859375 49.539062 C 68.988281 50.109375 71.675781 53.199219 72.90625 53.585938 C 73 53.625 73.128906 53.640625 73.164062 53.585938 L 73.238281 53.496094 C 73 52.867188 70.957031 50.570312 69.578125 49.648438 C 69.0625 49.300781 68.898438 49.320312 68.878906 49.335938 C 68.878906 49.335938 68.878906 49.375 68.878906 49.429688 L 68.878906 49.539062 C 68.878906 49.539062 68.84375 49.558594 68.84375 49.558594 Z M 25.855469 52.613281 C 25.453125 52.613281 25.066406 52.445312 24.699219 52.097656 C 24.402344 51.730469 24.3125 51.304688 24.402344 50.917969 C 24.53125 50.476562 24.898438 50.109375 25.433594 49.925781 C 26.851562 49.707031 27.253906 50.238281 27.402344 50.570312 C 27.621094 51.140625 27.308594 51.914062 26.683594 52.335938 C 26.425781 52.5 26.152344 52.59375 25.855469 52.59375 Z M 25.011719 51.800781 C 25.636719 52.390625 26.167969 52.171875 26.445312 52.003906 C 26.90625 51.710938 27.144531 51.121094 26.996094 50.734375 C 26.851562 50.367188 26.316406 50.21875 25.527344 50.332031 C 25.15625 50.460938 24.882812 50.71875 24.789062 51.03125 C 24.714844 51.289062 24.789062 51.542969 24.992188 51.800781 Z M 31.246094 51.984375 C 30.839844 51.984375 30.4375 51.785156 30.140625 51.433594 C 29.8125 50.9375 29.847656 50.402344 30.214844 49.945312 C 30.695312 49.355469 31.558594 49.0625 32.128906 49.28125 C 32.367188 49.375 32.734375 49.648438 32.664062 50.367188 C 32.664062 51.085938 32.277344 51.691406 31.6875 51.914062 C 31.539062 51.96875 31.394531 51.984375 31.246094 51.984375 Z M 30.453125 51.160156 C 30.75 51.507812 31.152344 51.636719 31.523438 51.507812 C 31.945312 51.359375 32.222656 50.902344 32.222656 50.332031 C 32.257812 49.960938 32.164062 49.742188 31.945312 49.648438 C 31.558594 49.503906 30.859375 49.742188 30.511719 50.183594 C 30.328125 50.402344 30.179688 50.753906 30.453125 51.160156 Z M 37.222656 49.28125 C 36.765625 49.28125 36.265625 49.097656 35.917969 48.675781 C 35.679688 48.398438 35.640625 48.085938 35.808594 47.753906 C 36.101562 47.183594 37.003906 46.726562 37.703125 46.800781 C 38.125 46.835938 38.417969 47.074219 38.546875 47.441406 C 38.878906 47.996094 38.769531 48.582031 38.253906 48.953125 C 37.976562 49.152344 37.609375 49.265625 37.242188 49.265625 Z M 37.535156 47.222656 C 37.019531 47.222656 36.359375 47.570312 36.175781 47.957031 C 36.101562 48.125 36.121094 48.269531 36.230469 48.398438 C 36.707031 48.96875 37.5 48.96875 37.976562 48.621094 C 38.144531 48.507812 38.472656 48.179688 38.144531 47.644531 L 38.144531 47.589844 C 38.050781 47.371094 37.90625 47.257812 37.628906 47.222656 C 37.589844 47.222656 37.554688 47.222656 37.535156 47.222656 Z M 43.625 45.605469 C 43.203125 45.605469 42.871094 45.402344 42.722656 45.050781 C 42.410156 44.445312 42.539062 43.820312 43.074219 43.324219 C 43.585938 42.84375 44.488281 42.585938 45.039062 42.953125 C 45.28125 43.121094 45.609375 43.523438 45.261719 44.464844 C 45.003906 45.179688 44.25 45.585938 43.660156 45.605469 C 43.660156 45.605469 43.660156 45.605469 43.644531 45.605469 Z M 44.433594 43.210938 C 44.101562 43.210938 43.660156 43.378906 43.367188 43.652344 C 43.144531 43.855469 42.796875 44.296875 43.109375 44.867188 C 43.203125 45.144531 43.441406 45.199219 43.644531 45.179688 C 44.101562 45.179688 44.671875 44.847656 44.855469 44.335938 C 44.96875 44.039062 45.097656 43.523438 44.800781 43.324219 C 44.710938 43.25 44.5625 43.230469 44.414062 43.230469 Z M 49.308594 41.316406 C 49.03125 41.316406 48.8125 41.226562 48.644531 41.058594 C 48.40625 40.859375 48.296875 40.546875 48.371094 40.195312 C 48.5 39.535156 49.144531 38.816406 49.769531 38.632812 C 50.136719 38.523438 50.46875 38.59375 50.707031 38.835938 C 51.054688 39.039062 51.238281 39.386719 51.183594 39.773438 C 51.109375 40.417969 50.410156 41.023438 49.785156 41.246094 C 49.621094 41.300781 49.457031 41.335938 49.289062 41.335938 Z M 50.082031 39 C 50.027344 39 49.953125 39 49.898438 39.039062 C 49.417969 39.183594 48.886719 39.792969 48.792969 40.289062 C 48.757812 40.488281 48.792969 40.65625 48.921875 40.765625 L 48.941406 40.765625 C 49.144531 40.988281 49.472656 40.914062 49.65625 40.859375 C 50.210938 40.675781 50.722656 40.160156 50.761719 39.734375 C 50.78125 39.515625 50.6875 39.332031 50.429688 39.183594 C 50.320312 39.074219 50.191406 39.019531 50.0625 39.019531 Z M 54.496094 37.675781 C 54.21875 37.675781 53.980469 37.585938 53.816406 37.398438 L 53.816406 37.363281 C 53.445312 36.867188 53.410156 36.277344 53.703125 35.746094 C 54.015625 35.175781 54.660156 34.789062 55.210938 34.808594 C 55.710938 34.808594 56.09375 35.121094 56.335938 35.617188 C 56.480469 36.386719 55.910156 37.105469 55.269531 37.4375 C 54.992188 37.585938 54.734375 37.65625 54.496094 37.65625 Z M 54.128906 37.125 C 54.421875 37.398438 54.917969 37.179688 55.066406 37.085938 C 55.5625 36.828125 56.023438 36.257812 55.929688 35.761719 C 55.78125 35.449219 55.523438 35.25 55.195312 35.25 C 55.195312 35.25 55.175781 35.25 55.15625 35.25 C 54.753906 35.25 54.292969 35.542969 54.054688 35.964844 C 53.925781 36.1875 53.777344 36.628906 54.109375 37.125 Z M 60.566406 32.765625 C 60.234375 32.765625 59.921875 32.597656 59.570312 32.25 C 58.816406 31.515625 59.167969 30.945312 59.371094 30.722656 C 59.941406 30.097656 61.300781 29.914062 61.871094 30.390625 C 62.128906 30.613281 62.441406 31.109375 61.6875 32.101562 C 61.28125 32.542969 60.933594 32.746094 60.582031 32.765625 Z M 60.953125 30.558594 C 60.492188 30.558594 59.941406 30.722656 59.683594 31.019531 C 59.589844 31.109375 59.332031 31.421875 59.867188 31.957031 C 60.125 32.230469 60.34375 32.34375 60.566406 32.34375 C 60.785156 32.34375 61.042969 32.175781 61.355469 31.84375 C 61.578125 31.550781 61.925781 31 61.59375 30.742188 C 61.449219 30.613281 61.207031 30.558594 60.953125 30.558594 Z M 64.390625 31.917969 C 64.1875 31.917969 64.042969 31.828125 63.949219 31.753906 L 63.820312 31.605469 L 63.949219 31.460938 C 72.191406 22.078125 77.304688 14.554688 79.582031 8.46875 L 79.65625 8.285156 L 79.859375 8.355469 C 80.0625 8.429688 80.320312 8.632812 80.339844 9.148438 C 80.464844 12.699219 68.4375 30.300781 64.832031 31.828125 C 64.648438 31.902344 64.5 31.9375 64.371094 31.9375 Z M 79.878906 8.890625 C 77.542969 14.921875 72.503906 22.335938 64.484375 31.476562 C 64.539062 31.476562 64.613281 31.441406 64.667969 31.421875 C 68.070312 29.96875 80.023438 12.476562 79.914062 9.148438 C 79.914062 9.039062 79.894531 8.964844 79.878906 8.890625 Z M 64.851562 27.613281 C 64.574219 27.613281 64.335938 27.523438 64.171875 27.355469 C 63.746094 26.824219 63.800781 26.089844 64.28125 25.351562 C 64.742188 24.652344 65.605469 24.027344 66.304688 24.230469 C 66.652344 24.339844 67.078125 24.691406 67.078125 25.757812 C 67.078125 26.472656 66.339844 27.15625 65.605469 27.449219 C 65.328125 27.558594 65.089844 27.613281 64.867188 27.613281 Z M 64.484375 27.0625 C 64.648438 27.230469 65.015625 27.230469 65.4375 27.0625 C 66.027344 26.824219 66.652344 26.253906 66.652344 25.757812 C 66.652344 25.113281 66.488281 24.707031 66.175781 24.617188 C 65.75 24.488281 65.070312 24.910156 64.628906 25.574219 C 64.484375 25.792969 64.058594 26.53125 64.484375 27.0625 Z M 69.613281 21.859375 C 69.339844 21.859375 69.042969 21.765625 68.785156 21.601562 L 68.75 21.601562 C 68.546875 21.359375 68.4375 21.066406 68.472656 20.734375 C 68.53125 20.238281 68.84375 19.761719 69.300781 19.464844 C 70.480469 18.894531 70.957031 19.226562 71.140625 19.464844 C 71.507812 19.964844 71.214844 20.828125 70.738281 21.34375 C 70.40625 21.691406 70.019531 21.859375 69.632812 21.859375 Z M 69.027344 21.25 C 69.667969 21.65625 70.183594 21.304688 70.425781 21.046875 C 70.828125 20.625 70.992188 20 70.792969 19.722656 C 70.625 19.484375 70.148438 19.539062 69.503906 19.835938 C 69.171875 20.035156 68.933594 20.421875 68.898438 20.773438 C 68.898438 20.917969 68.898438 21.105469 69.027344 21.25 Z M 73.699219 14.777344 L 73.679688 14.777344 C 73.273438 14.777344 72.960938 14.574219 72.851562 14.207031 C 72.59375 13.671875 73.238281 12.863281 73.808594 12.570312 C 74.269531 12.328125 74.691406 12.402344 74.910156 12.789062 C 75.351562 13.195312 75.28125 13.597656 75.207031 13.820312 C 75.003906 14.335938 74.324219 14.777344 73.714844 14.777344 Z M 74.304688 12.863281 C 74.230469 12.863281 74.121094 12.882812 74.011719 12.957031 C 73.515625 13.210938 73.128906 13.820312 73.257812 14.039062 L 73.257812 14.078125 C 73.328125 14.261719 73.476562 14.371094 73.714844 14.371094 C 74.140625 14.371094 74.691406 14.058594 74.820312 13.691406 C 74.894531 13.488281 74.820312 13.285156 74.617188 13.101562 L 74.5625 13.046875 C 74.542969 12.992188 74.46875 12.882812 74.304688 12.882812 Z M 76.363281 9.496094 C 76.035156 9.496094 75.738281 9.367188 75.554688 9.148438 C 74.96875 8.15625 75.207031 7.492188 75.410156 7.199219 C 75.722656 6.703125 76.363281 6.445312 76.992188 6.519531 C 77.632812 6.609375 78.148438 7.050781 78.351562 7.695312 L 78.351562 7.75 C 78.351562 8.503906 77.671875 9.148438 76.992188 9.386719 C 76.789062 9.460938 76.585938 9.496094 76.402344 9.496094 Z M 75.886719 8.890625 C 76.070312 9.09375 76.421875 9.128906 76.804688 9 C 77.339844 8.816406 77.875 8.320312 77.910156 7.785156 C 77.746094 7.308594 77.375 6.996094 76.917969 6.941406 C 76.457031 6.886719 75.980469 7.070312 75.738281 7.417969 C 75.5 7.804688 75.539062 8.320312 75.886719 8.890625 Z M 75.886719 8.890625 " fill-opacity="1" fill-rule="nonzero"/></g></svg>