<svg xmlns="http://www.w3.org/2000/svg" xmlns:xlink="http://www.w3.org/1999/xlink" width="184" zoomAndPan="magnify" viewBox="0 0 138 137.999998" height="184" preserveAspectRatio="xMidYMid meet" version="1.0"><defs><clipPath id="a55b443bba"><path d="M 0 4.226562 L 138 4.226562 L 138 133.976562 L 0 133.976562 Z M 0 4.226562 " clip-rule="nonzero"/></clipPath></defs><rect x="-13.8" width="165.6" fill="#ffffff" y="-13.8" height="165.599997" fill-opacity="1"/><rect x="-13.8" width="165.6" fill="#ffffff" y="-13.8" height="165.599997" fill-opacity="1"/><g clip-path="url(#a55b443bba)"><path fill="#254f7a" d="M 110.585938 97.519531 C 106.878906 101.878906 101.75 106.976562 97.328125 110.828125 L 97.628906 108.703125 L 98.132812 102.703125 C 98.382812 99.820312 98.402344 96.644531 98.683594 93.941406 C 98.835938 92.488281 98.871094 90.414062 98.929688 88.910156 C 98.945312 88.515625 98.84375 88.25 98.664062 87.90625 L 95.265625 81.65625 C 91.574219 77.699219 90.433594 75.914062 87.71875 70.789062 C 87.589844 70.242188 88.308594 67.054688 89.109375 68.503906 C 89.203125 68.675781 92.496094 72.410156 93.292969 73.296875 C 93.261719 73.503906 93.566406 73.453125 93.65625 73.503906 C 93.734375 73.476562 93.863281 73.410156 93.839844 73.457031 C 93.839844 73.457031 94.128906 73.351562 94.167969 73.425781 C 94.199219 73.488281 94.328125 73.332031 94.453125 73.441406 L 95.070312 73.144531 L 94.605469 55.894531 C 94.53125 53.238281 95.457031 52.125 96.355469 52.351562 C 97.109375 52.542969 97.84375 53.671875 97.96875 55.625 C 98.285156 60.585938 98.632812 65.46875 98.992188 70.445312 C 99.058594 71.363281 99.105469 72.207031 100.058594 72.230469 C 101.042969 72.257812 101.207031 72.09375 101.199219 70.554688 L 101.128906 50.84375 C 101.117188 47.660156 104.902344 47.5625 104.964844 50.636719 L 105.363281 70.242188 C 105.382812 71.246094 105.433594 71.933594 106.027344 72.007812 C 108.589844 72.328125 108.554688 68.765625 108.535156 67.324219 L 108.257812 54.421875 C 108.238281 52.632812 111.023438 50.289062 111.058594 54.378906 C 111.164062 61 111.339844 68.824219 111.378906 75.019531 C 111.382812 76.851562 112.964844 76.371094 113.523438 74.609375 C 114.21875 72.402344 114.976562 70.382812 115.785156 67.820312 C 115.957031 67.457031 117.441406 67.0625 117.894531 67.007812 C 118.121094 66.984375 119.542969 67.402344 119.253906 68.511719 L 117.265625 76.015625 L 113.382812 91.558594 L 113.511719 93.964844 Z M 79.167969 124.199219 C 79.109375 124.234375 79.050781 124.269531 78.992188 124.304688 C 79.003906 124.160156 79.023438 124.027344 79.058594 123.929688 C 79.09375 124.023438 79.128906 124.109375 79.167969 124.199219 Z M 79.375 124.074219 C 79.375 124.070312 79.375 124.066406 79.375 124.054688 C 79.375 124.0625 79.375 124.070312 79.375 124.074219 Z M 72.257812 127.949219 C 74.464844 126.867188 76.640625 125.6875 78.773438 124.429688 C 78.648438 122.886719 78.585938 121.273438 78.523438 119.667969 L 77.84375 104.085938 C 77.558594 97.417969 77.265625 90.441406 77.195312 83.78125 L 77.121094 73.371094 C 77.117188 72.871094 79.167969 66.429688 79.414062 65.632812 C 79.84375 64.234375 80.292969 62.476562 80.777344 61.203125 C 80.855469 60.988281 80.933594 60.738281 80.992188 60.511719 C 81.464844 58.695312 82.089844 56.898438 82.625 55.085938 L 84.15625 50.054688 C 84.539062 48.179688 82.726562 47.875 81.78125 48.847656 C 80.554688 50.105469 80.042969 53.078125 79.996094 53.199219 C 78.875 55.945312 77.8125 60.738281 77.601562 58.046875 C 77.078125 51.386719 78.15625 44.3125 77.332031 37.222656 C 76.855469 33.148438 74.296875 31.824219 73.691406 36.644531 L 73.8125 48.609375 C 73.839844 50.121094 73.949219 54.15625 71.179688 53.816406 C 69.761719 54.144531 70.554688 42.648438 70.296875 35.1875 C 70.253906 33.917969 70.679688 30.648438 70.296875 29.648438 C 69.328125 27.117188 66.945312 28.257812 66.355469 33.125 C 65.832031 37.476562 66.261719 47.082031 66.183594 50.59375 L 66.222656 50.929688 L 66.175781 50.933594 C 66.171875 51.050781 66.167969 51.164062 66.164062 51.28125 C 66.136719 52.5625 66.488281 53.992188 65.203125 53.964844 C 64.042969 53.9375 63.097656 53.058594 62.957031 51.9375 L 62.90625 51.542969 L 62.871094 51.546875 L 62.863281 51.191406 C 62.480469 48.035156 62.910156 42.507812 62.761719 38.210938 C 62.535156 31.71875 59.214844 33.804688 59.214844 37.960938 L 59.707031 50.199219 C 60.015625 54.238281 59.316406 54.273438 59.359375 53.992188 C 58.191406 52.691406 56.980469 51.046875 55.816406 49.546875 C 53.742188 47.929688 51.753906 50.363281 52.058594 50.800781 L 56.472656 56.085938 C 58.183594 59.132812 60.230469 62.558594 61.8125 65.585938 L 64.050781 69.507812 C 64.238281 69.933594 64.351562 70.132812 64.351562 70.648438 C 64.335938 79.984375 64.238281 89.667969 63.941406 98.945312 C 63.921875 99.566406 63.886719 100.1875 63.839844 100.78125 C 63.550781 104.460938 63.539062 108.636719 63.285156 112.457031 L 62.78125 120.453125 C 62.707031 121.414062 62.589844 122.3125 62.488281 123.230469 C 62.429688 123.761719 62.28125 123.777344 62.109375 124.902344 C 64.664062 126.421875 67.257812 127.765625 69.945312 129.03125 Z M 33.074219 101.363281 C 31.195312 99.234375 29.328125 97.15625 27.511719 94.980469 C 27.589844 94.304688 27.738281 91.828125 27.589844 91.234375 C 27.34375 90.386719 26.234375 87.253906 26.257812 86.605469 C 26.277344 85.984375 24.699219 81.789062 24.359375 80.441406 C 23.664062 77.675781 22.625 74.222656 21.804688 71.441406 C 21.628906 70.851562 21.410156 70.257812 21.257812 69.675781 C 20.742188 67.757812 20.660156 68.054688 21.375 67.667969 C 21.832031 67.417969 22.066406 67.234375 22.402344 67.695312 L 25.933594 75.046875 C 26.609375 77.175781 28.023438 75.445312 28.03125 73.144531 L 27.785156 54.765625 C 27.808594 52.472656 29.496094 51.730469 30.898438 53.925781 L 32.074219 70.082031 C 32.207031 71.195312 32.363281 72.386719 33.519531 72.429688 C 34.804688 72.472656 34.46875 71.300781 34.492188 70.015625 L 34.515625 69.25 C 34.753906 62.105469 34.964844 55.902344 35.101562 48.734375 C 35.859375 46.546875 36.984375 47.1875 38.183594 48.445312 C 38.292969 51.667969 37.925781 54.65625 38.039062 56.730469 L 38.777344 70.097656 C 38.8125 71.265625 38.289062 72.128906 39.484375 72.269531 C 40.796875 72.417969 41.980469 71.476562 42.132812 70.164062 L 42.554688 53.417969 C 43.226562 51.589844 45 52.511719 45.316406 53.832031 C 46.367188 58.175781 44.410156 69.492188 44.464844 71.65625 L 44.820312 72.867188 C 45.226562 74.25 46.59375 71.753906 47.824219 70.167969 C 47.863281 70.121094 49.257812 68.328125 49.480469 68.203125 C 51.742188 66.972656 52.199219 69.648438 51.941406 70.203125 L 50.433594 73.003906 C 49.773438 73.839844 42.128906 86.726562 42.140625 88.871094 L 41.316406 93.394531 C 41.3125 96.070312 41.558594 98.664062 41.523438 101.210938 C 41.507812 102.042969 41.492188 104.738281 41.621094 105.519531 C 41.816406 106.738281 41.902344 108.042969 41.933594 109.390625 C 41.9375 109.640625 41.949219 109.882812 41.96875 110.113281 C 39.148438 107.550781 35.527344 104.148438 33.074219 101.363281 Z M 137.90625 42.589844 C 137.855469 41.980469 137.804688 41.371094 137.757812 40.761719 C 137.390625 37.414062 136.582031 34.117188 135.359375 31.019531 C 132.335938 23.441406 126.96875 16.964844 120.070312 12.640625 C 114.703125 9.277344 107.742188 6.957031 101.4375 6.894531 C 101.175781 6.890625 100.808594 6.875 100.90625 6.960938 C 101.410156 7.089844 102.257812 7.070312 102.644531 7.25 C 102.488281 7.28125 102.335938 7.304688 102.183594 7.34375 C 102.128906 7.351562 101.210938 7.375 102.164062 7.488281 C 102.265625 7.5 102.347656 7.523438 102.453125 7.546875 C 101.375 7.480469 99.464844 7.402344 98.472656 7.542969 L 100.300781 7.769531 L 106.167969 8.824219 C 108.828125 9.5 110.628906 9.898438 113.167969 11.105469 C 113.796875 11.40625 114.582031 11.722656 115.078125 12.125 L 116.492188 12.996094 C 118.90625 14.296875 121.71875 16.273438 123.695312 18.289062 C 128.390625 23.078125 131.703125 28.628906 133.390625 35.046875 C 133.679688 36.136719 134.230469 38.546875 134.242188 39.582031 C 134.265625 41.578125 134.546875 43.316406 134.472656 45.484375 C 134.300781 50.277344 133.734375 54.199219 132.417969 59.046875 C 129.1875 70.949219 122.441406 82.515625 114.902344 92.207031 C 114.90625 92.082031 114.90625 91.964844 114.910156 91.84375 C 114.980469 91.390625 116.15625 87.773438 116.382812 87.472656 C 116.753906 86.976562 117.832031 82.628906 118.324219 81.324219 C 118.871094 79.871094 119.34375 78.378906 119.855469 76.910156 L 122.128906 70.007812 C 122.6875 68.390625 122.765625 67.464844 121.851562 65.757812 C 120.671875 63.558594 117.367188 62.730469 115.078125 64.5625 L 115.128906 53.664062 C 115.144531 51.316406 113.257812 49.386719 110.859375 49.363281 C 109.886719 49.351562 109.160156 49.433594 108.234375 49.984375 C 108.214844 49.128906 108.242188 47.625 108.03125 46.792969 C 106.949219 42.542969 101.398438 41.933594 99.21875 45.335938 C 98.292969 46.777344 98.429688 48.164062 98.371094 49.773438 C 97.371094 49.171875 96.433594 49.078125 95.324219 49.148438 C 93.058594 49.289062 91.261719 51.21875 91.21875 53.605469 L 91.230469 64.15625 C 87.503906 62.710938 82.992188 65.988281 83.914062 70.316406 C 84.023438 70.84375 84.277344 71.453125 84.542969 71.894531 L 88.761719 78.949219 C 89.183594 79.664062 89.566406 80.40625 90.019531 81.101562 C 90.777344 82.269531 91.578125 83.382812 92.257812 84.660156 C 92.289062 84.71875 92.332031 84.785156 92.371094 84.839844 C 93.050781 85.734375 93.617188 87.03125 94.425781 88.113281 L 95.21875 89.378906 C 95.234375 90.714844 95.269531 92.058594 95.269531 93.394531 C 95.257812 96.082031 95.507812 98.660156 95.46875 101.210938 C 95.457031 102.035156 95.441406 104.75 95.566406 105.523438 C 95.761719 106.738281 95.851562 108.042969 95.882812 109.390625 C 95.914062 110.839844 96.128906 110.746094 96.160156 111.835938 C 91.042969 116.203125 85.714844 120.238281 79.957031 123.722656 C 80.074219 122.171875 80.09375 119.300781 80.035156 117.816406 C 80.007812 117.144531 80.058594 113.707031 80.171875 113.28125 C 80.371094 112.539062 80.117188 106.40625 80.191406 104.6875 C 80.28125 102.628906 80.289062 100.542969 80.339844 98.46875 C 80.390625 96.398438 80.40625 94.308594 80.429688 92.222656 C 80.445312 90.699219 80.414062 85.964844 80.542969 85.019531 C 80.761719 83.425781 80.628906 81.835938 80.644531 80.199219 L 80.679688 73.671875 L 87.796875 51.203125 C 88.917969 47.546875 85.234375 44.59375 82.210938 45.214844 C 81.554688 45.347656 80.890625 45.625 80.347656 46.023438 L 80.441406 35.523438 C 80.457031 32.9375 78.589844 30.96875 76.027344 30.914062 C 75.046875 30.890625 74.222656 31.011719 73.328125 31.554688 L 73.21875 29.078125 C 72.511719 24.46875 66.746094 23.5625 64.433594 27.015625 C 63.339844 28.652344 63.707031 29.824219 63.570312 31.449219 C 63.566406 31.472656 63.566406 31.5 63.566406 31.527344 C 61.785156 30.4375 59.203125 30.675781 57.710938 32.144531 C 56.8125 33.03125 56.378906 34.144531 56.371094 35.398438 L 56.375 45.886719 C 54.535156 45.15625 52.730469 45.566406 51.191406 46.640625 C 48.96875 48.191406 48.3125 51.152344 49.6875 53.625 L 52.554688 58.660156 C 54.945312 62.765625 57.238281 66.9375 59.6875 71.011719 C 59.738281 71.097656 59.792969 71.1875 59.84375 71.273438 L 59.933594 77.171875 C 59.945312 78.28125 59.910156 79.390625 59.957031 80.492188 C 60.035156 82.34375 60.179688 84.164062 60.132812 86.089844 C 60.132812 86.179688 60.136719 86.285156 60.144531 86.371094 C 60.285156 88.03125 60.140625 89.738281 60.304688 91.515625 L 60.375 94.675781 C 60.410156 98.484375 60.410156 102.339844 60.550781 106.125 C 60.601562 107.558594 60.640625 109.027344 60.625 110.46875 C 60.613281 111.667969 60.585938 115.078125 60.722656 116.210938 C 60.917969 117.835938 61.007812 119.570312 61.039062 121.371094 C 61.066406 123.082031 61.269531 123.222656 61.308594 124.429688 C 55.183594 120.765625 48.695312 115.992188 43.230469 111.234375 C 43.328125 110.992188 43.339844 111.109375 43.386719 110.785156 C 43.488281 110.097656 43.605469 109.425781 43.675781 108.703125 L 44.1875 102.699219 C 44.308594 101.332031 44.390625 99.941406 44.453125 98.535156 C 44.519531 96.984375 44.582031 95.433594 44.738281 93.941406 L 44.957031 89.519531 C 45.964844 87.886719 46.960938 86.238281 47.929688 84.566406 L 51.933594 77.808594 C 52.996094 75.984375 54.03125 74.140625 55.082031 72.308594 C 55.546875 71.496094 55.878906 71.015625 56.042969 70.007812 C 56.699219 65.949219 52.503906 62.722656 48.773438 64.03125 L 48.773438 53.640625 C 48.742188 49.464844 44.070312 47.886719 41.230469 49.808594 C 41.15625 47.742188 41.332031 45.917969 39.425781 44.417969 C 36.691406 42.269531 32.09375 43.855469 32.0625 48 L 31.992188 50.582031 C 29.800781 48.730469 25.554688 49.527344 25.054688 53.152344 L 25.082031 57.84375 L 25.132812 65.472656 C 22.265625 61.933594 16.398438 65.160156 17.847656 69.371094 C 19.136719 73.113281 20.589844 77.003906 21.980469 80.710938 L 26.109375 91.671875 C 26.140625 92.234375 26.171875 92.792969 26.207031 93.351562 C 19.96875 85.429688 14.582031 76.917969 10.714844 67.613281 C 7.347656 59.523438 5.132812 49.828125 5.925781 41.019531 C 6.394531 35.828125 8.484375 29.691406 11.414062 25.296875 C 16.472656 17.699219 23.347656 12.679688 32.105469 10.136719 C 36.019531 9 39.953125 8.605469 43.976562 8.898438 C 46.703125 9.097656 48.917969 9.214844 51.691406 10.101562 C 52.382812 10.320312 52.683594 10.328125 53.613281 10.660156 L 56.570312 11.835938 C 58.789062 12.800781 59.238281 12.996094 61.304688 14.320312 C 64.222656 16.1875 66.441406 18.222656 68.738281 20.703125 C 69.367188 21.378906 70.492188 21.390625 71.144531 20.675781 C 73.097656 18.53125 73.855469 17.617188 76.121094 15.773438 C 78.035156 14.214844 81.09375 12.382812 83.152344 11.445312 C 83.625 11.238281 84.121094 10.992188 84.53125 10.761719 C 86.320312 9.824219 88.375 9.0625 90.566406 8.546875 L 92.867188 7.976562 C 94.121094 7.566406 95.539062 7.578125 95.867188 7.46875 C 96.546875 7.242188 97.710938 7.1875 98.476562 7.113281 C 96.921875 7.03125 97.1875 6.996094 95.953125 6.863281 C 95.167969 6.78125 93.613281 6.808594 93.089844 6.6875 C 92.625 6.582031 89.765625 6.980469 89.027344 7.121094 C 83.230469 8.25 77.433594 10.871094 72.875 14.621094 L 70.03125 17.15625 L 67.828125 14.851562 C 62.683594 10.167969 57.691406 7.445312 50.914062 5.640625 C 46.863281 4.566406 42.511719 4.246094 38.34375 4.511719 C 31.628906 4.941406 24.535156 7.410156 18.992188 11.097656 C 12.148438 15.65625 6.851562 22.140625 3.796875 29.800781 C 0.00390625 39.328125 0.464844 48.421875 2.671875 58.21875 L 3.894531 62.628906 C 6.246094 70.507812 10.710938 79.269531 15.101562 85.9375 C 26.824219 103.734375 44.378906 120.726562 63.25 130.660156 C 65.289062 131.734375 67.078125 132.5625 69.15625 133.519531 C 69.636719 133.742188 70.210938 133.753906 70.726562 133.511719 C 73.421875 132.238281 75.757812 131.066406 78.359375 129.609375 C 94.414062 120.625 110.5625 105.625 121.136719 90.320312 C 123.914062 86.296875 126.761719 81.886719 128.96875 77.515625 C 130.085938 75.304688 131.246094 73.117188 132.128906 70.796875 L 133.257812 68.1875 C 133.75 66.917969 135.292969 62.335938 135.613281 61.027344 C 135.890625 59.945312 136.195312 58.871094 136.449219 57.78125 C 137.445312 53.421875 138 48.9375 137.957031 44.429688 C 137.941406 43.820312 137.921875 43.203125 137.90625 42.589844 Z M 137.90625 42.589844 " fill-opacity="1" fill-rule="evenodd"/></g></svg>